<svg width="147" height="99" viewBox="0 0 147 99" fill="none" xmlns="http://www.w3.org/2000/svg">
<path d="M17.5796 68.1795C22.3143 74.4906 22.5997 84.0407 28.7956 89.4933C36.1436 95.9588 47.9132 96.8876 57.1271 97.3345C76.448 98.2714 97.7313 100.077 115.94 92.9465C119.138 91.6945 122.595 90.4817 124.881 87.8049C127.549 84.6831 128.721 80.042 130.261 76.3561C131.734 72.8368 133.562 68.6982 134.227 64.9586C135.07 60.233 130.041 58.5899 125.999 58.1308L17.5796 68.1795Z" fill="#898989"/>
<path d="M23.1378 54.0061C16.7214 58.4272 8.1411 59.7907 2.2387 65.5599C4.5371 65.3313 7.0154 65.2616 9.392 65.5394C5.7602 67.9217 2.3346 70.506 0 74.1755C9.1429 72.0852 19.6043 71.4758 28.9878 72.5896C25.5006 75.7362 22.0645 80.6782 20.4099 85.132C22.2115 84.4568 24.0297 83.7669 25.8828 83.1615C28.7806 82.2144 38.1511 79.7165 38.1511 79.7165C38.1511 79.7165 39.6964 84.8748 39.925 86.872C41.8731 84.9159 44.2264 83.1697 46.3701 81.3721C50.785 84.6769 54.4893 88.371 57.9139 92.6663C58.1854 90.3767 58.1053 88.0066 58.3377 85.7126C61.1797 86.8019 62.137 89.9956 64.3175 91.8593C66.6631 89.8721 68.4937 87.0903 71.1252 85.4183C72.4801 87.5907 72.723 90.4013 74.1561 92.5202C76.9031 91.1942 79.5308 88.8281 82.1598 87.15C84.0091 85.9681 91.7761 83.5836 89.5274 83.2376C88.8459 83.1326 94.3088 85.3216 96.0717 86.1575C98.5405 87.3291 101.289 88.262 103.698 89.3059C104.085 87.6216 103.529 85.7024 103.328 84.152C106.023 83.4085 116.535 84.7511 118.588 85.1918C120.993 85.7065 123.417 87.0903 125.797 87.3414C126.161 83.7297 122.198 81.7839 120.139 79.6691C125.795 77.8921 131.857 78.6006 137.658 78.5696C135.656 75.8125 130.788 74.8714 127.77 73.4485C123.582 71.4758 119.521 69.9624 115.121 68.8381C120.717 68.5231 126.476 68.7393 132.113 69.2585C136.428 69.6575 140.78 70.8004 145.11 70.7365C143.289 67.8168 140.647 66.0668 137.991 64.1702C140.773 64.1144 143.899 65.484 146.428 66.4271C141.378 60.1796 133.208 53.9054 125.037 52.7686C118.211 51.8194 110.275 51.4361 103.441 52.1654C93.6068 53.2134 84.9006 56.9816 75.5439 59.6441C65.9835 62.3644 56.4374 60.0107 47.2496 57.3668C44.4459 56.5598 41.6411 56.3703 38.7811 55.9418C37.2472 55.7112 33.2022 55.8162 32.2282 54.6881L23.1378 54.0061Z" fill="#B2B3B3"/>
<path d="M38.7139 32.5824L50.1025 31.1793C50.1025 31.1793 54.5512 17.9631 58.9372 21.8619C63.3232 25.7607 69.6576 17.4759 75.0184 17.4759C80.3792 17.4759 87.6885 26.2479 92.562 25.2735C97.4353 24.2987 99.872 20.8871 99.872 20.8871L106.938 27.2227L105.476 32.5824L110.344 38.4817C110.344 38.4817 104.257 56.9488 98.4101 59.8728C92.562 62.796 72.582 69.6189 60.8864 63.7705C49.1911 57.9236 38.7139 32.5824 38.7139 32.5824Z" fill="#C5C6C6"/>
<path d="M58.6619 25.1983L33.5146 5.9664C33.5146 5.9664 44.6962 6.1742 50.9058 10.9231C58.8014 16.9615 58.6619 25.1983 58.6619 25.1983Z" fill="#9D9E9E"/>
<path d="M58.6619 25.1983L33.5146 5.9664C33.5146 5.9664 44.6962 6.1742 50.9058 10.9231C58.8014 16.9615 58.6619 25.1983 58.6619 25.1983Z" fill="#FEFEFE" fill-opacity="0.101961"/>
<path d="M41.897 7.07935C42.1617 7.14075 42.4301 7.20486 42.6995 7.27556C46.7472 10.3477 50.7829 13.5046 54.5506 16.5508C50.4282 13.5685 46.113 10.3389 41.897 7.07935Z" fill="#FEFEFE" fill-opacity="0.101961"/>
<path d="M38.5913 6.4505C38.7956 6.4833 38.9999 6.516 39.2107 6.5479C44.1047 10.2202 49.0623 14.0705 53.6256 17.7602C48.7229 14.2224 43.5488 10.3243 38.5913 6.4505Z" fill="#FEFEFE" fill-opacity="0.101961"/>
<path d="M35.6831 6.10187C35.8175 6.11067 35.9594 6.12498 36.105 6.14228C41.7017 10.2873 47.4589 14.7373 52.698 18.9733C47.145 14.9559 41.2318 10.4865 35.6831 6.10187Z" fill="#FEFEFE" fill-opacity="0.101961"/>
<path d="M57.8527 15.5113C57.8527 15.5113 55.2455 5.78618 64.6062 1.29578C73.967 -3.19472 81.6308 5.42758 81.6308 5.42758C81.6308 5.42758 99.2939 18.8572 99.053 33.5769C98.8526 45.8221 87.3175 54.1302 75.6622 53.9394C66.7111 53.7929 53.8471 48.9645 51.873 36.7798C49.8988 24.595 57.8527 15.5113 57.8527 15.5113Z" fill="#B2B3B3"/>
<path d="M83.2218 6.73311C83.2218 6.73311 83.0716 15.9112 82.9223 25.0356C82.7979 32.6337 76.2394 37.7911 69.0158 37.6728C61.7032 37.5532 55.4022 32.4289 55.5282 24.7299C55.6108 19.6866 57.7131 15.7635 57.8478 15.5221C57.8539 15.5164 57.854 15.5103 57.854 15.5103C57.854 15.5103 57.8483 15.4923 57.8368 15.4625C57.6645 14.7406 55.6212 5.6098 64.6051 1.2944C73.9661 -3.1932 81.6327 5.42952 81.6327 5.42952C81.6327 5.42952 82.2315 5.88502 83.216 6.72112C83.222 6.72712 83.2218 6.73311 83.2218 6.73311Z" fill="white" fill-opacity="0.301961"/>
<path d="M77.4941 17.8328C75.6807 22.1619 70.7045 24.1998 66.3752 22.3863C64.304 21.5187 62.5688 19.5703 61.626 17.7156C60.6602 15.816 57.6621 10.633 57.6621 10.633C57.6621 10.633 58.2728 5.48437 62.4519 2.32007L72.9404 6.71368C77.2697 8.52718 79.3054 13.5089 77.4941 17.8328Z" fill="white" fill-opacity="0.501961"/>
<path d="M70.6877 10.8359C70.1718 12.0674 68.7552 12.6476 67.5237 12.1317C66.2921 11.6159 65.712 10.1992 66.2279 8.96769C66.7437 7.73619 68.1604 7.15599 69.3919 7.67189C70.6234 8.18779 71.2036 9.60439 70.6877 10.8359Z" fill="#898989"/>
<path d="M61.5142 10.6197L61.8011 6.96649L56.189 4.14069L61.5142 10.6197Z" fill="#898989"/>
<path d="M61.6825 10.3813L55.043 6.87128L57.6586 10.474L61.6825 10.3813Z" fill="#898989"/>
<path d="M88.8284 31.4909L111.406 4.21078C111.406 4.21078 98.3745 7.88779 92.7994 14.6241C85.7105 23.1893 88.8284 31.4909 88.8284 31.4909Z" fill="#9D9E9E"/>
<path d="M88.8284 31.4909L111.406 4.21078C111.406 4.21078 98.3745 7.88779 92.7994 14.6241C85.7105 23.1893 88.8284 31.4909 88.8284 31.4909Z" fill="#FEFEFE" fill-opacity="0.101961"/>
<path d="M101.98 7.93719C101.692 8.08149 101.4 8.22959 101.11 8.38469C97.4671 12.7519 93.8689 17.2014 90.5454 21.4555C94.3077 17.1562 98.2073 12.5465 101.98 7.93719Z" fill="#FEFEFE" fill-opacity="0.101961"/>
<path d="M105.629 6.27518C105.401 6.37178 105.174 6.46828 104.938 6.56588C100.519 11.8036 96.0888 17.2413 92.0635 22.394C96.5412 17.2899 101.208 11.7366 105.629 6.27518Z" fill="#FEFEFE" fill-opacity="0.101961"/>
<path d="M108.913 5.02029C108.758 5.07089 108.597 5.12939 108.433 5.19209C103.359 11.1265 98.2073 17.4197 93.5859 23.3354C98.6537 17.5438 103.982 11.1827 108.913 5.02029Z" fill="#FEFEFE" fill-opacity="0.101961"/>
<path d="M105.354 40.38C104.121 43.6692 102.064 46.9588 102.064 46.9588C102.064 46.9588 100.469 42.8582 98.1657 43.06C88.8803 43.8759 94.8822 38.327 92.806 35.5064C90.4358 32.2886 82.816 36.4812 82.816 36.4812C81.5011 39.5766 80.3025 41.3643 72.373 39.5766C68.0687 38.6056 66.0032 42.8168 65.0284 46.4712C64.0536 50.126 55.5256 54.0248 54.7952 51.832C54.0636 49.6384 55.5256 43.5472 55.5256 43.5472L51.3839 44.278C51.3839 44.278 49.9216 38.674 47.7291 36.2372C46.3276 34.681 41.8435 33.3227 38.7876 32.5452C39.0031 60.8936 58.8524 73.6385 74.1656 73.6385C89.3831 73.6385 108.391 65.2519 110.957 38.9066L105.354 40.38Z" fill="#EBECEC"/>
<path d="M64.9622 71.8113C64.6498 71.8394 64.3515 71.8672 64.0596 71.896C65.1176 72.2575 66.1787 72.5622 67.2352 72.8112C67.2451 72.8131 67.2553 72.8157 67.2652 72.8176C67.4564 72.8628 67.6475 72.9054 67.8379 72.9465C67.8744 72.9544 67.9109 72.962 67.9474 72.9697C68.1283 73.008 68.3091 73.0445 68.4897 73.0802C68.5311 73.0878 68.5733 73.0954 68.6147 73.103C68.7952 73.138 68.9761 73.1714 69.1567 73.2022C69.1749 73.2053 69.1924 73.2079 69.2106 73.211C69.7613 73.3041 70.3104 73.382 70.8562 73.4443C70.9417 73.4542 71.0272 73.4648 71.1131 73.4732C71.2408 73.4876 71.3685 73.4994 71.4965 73.5116C71.5991 73.5203 71.7021 73.5298 71.8051 73.5386C71.9241 73.5481 72.0434 73.558 72.1623 73.5667C72.2741 73.5743 72.3858 73.5807 72.4972 73.5876C72.6085 73.5944 72.721 73.6013 72.8324 73.6058C72.9566 73.6119 73.0798 73.6165 73.2037 73.6203C73.3025 73.6241 73.4016 73.6282 73.5005 73.6309C73.7129 73.6359 73.9253 73.6385 74.1359 73.6385C74.137 73.6385 74.137 73.6385 74.137 73.6385C89.3446 73.6241 108.385 65.2116 110.957 38.9066L105.354 40.38C104.311 43.1607 102.65 46.0148 102.064 46.9588C102.064 46.9588 101.929 46.6118 101.682 46.1254C96.9229 59.9477 85.3526 69.9997 64.9622 71.8113Z" fill="#D9DADA"/>
<path d="M115.503 78.2569C120.168 75.5911 126.405 74.7689 130.696 71.2902C129.025 71.428 127.223 71.47 125.496 71.3025C128.136 69.866 130.626 68.3077 132.323 66.0951C125.677 67.3555 118.072 67.723 111.251 67.0514C113.786 65.154 116.283 62.1741 117.486 59.4885C116.177 59.8957 114.855 60.3117 113.508 60.6767C111.401 61.2478 104.589 62.754 104.589 62.754C104.589 62.754 103.466 59.6436 103.3 58.4393C101.884 59.6188 100.173 60.6717 98.6145 61.7557C95.4051 59.7629 92.7122 57.5354 90.2227 54.9454C90.0253 56.326 90.0836 57.7552 89.9147 59.1384C87.8487 58.4816 87.1528 56.5558 85.5677 55.4321C83.8625 56.6303 82.5317 58.3077 80.6188 59.3159C79.6339 58.006 79.4573 56.3112 78.4155 55.0335C76.4186 55.8331 74.5084 57.2598 72.5972 58.2717C71.2529 58.9844 65.6067 60.4222 67.2414 60.6308C67.7368 60.6941 63.7656 59.3742 62.484 58.8702C60.6894 58.1637 58.6911 57.6012 56.9398 56.9717C56.6584 57.9873 57.0626 59.1445 57.2094 60.0794C55.2499 60.5277 47.6082 59.7182 46.1158 59.4524C44.3676 59.1421 42.6056 58.3077 40.8755 58.1563C40.6104 60.334 43.4916 61.5074 44.9886 62.7825C40.8768 63.854 36.4699 63.4269 32.2534 63.4455C33.7084 65.108 37.247 65.6755 39.4413 66.5335C42.4859 67.723 45.4379 68.6355 48.6365 69.3135C44.5681 69.5034 40.3815 69.3731 36.2843 69.06C33.147 68.8194 29.9838 68.1302 26.8361 68.1687C28.1593 69.9293 30.0799 70.9845 32.0109 72.1281C29.9886 72.1618 27.7163 71.3359 25.8779 70.7673C29.5484 74.5344 35.4881 78.3177 41.4274 79.0031C46.3898 79.5755 52.1588 79.8066 57.1268 79.3669C64.2759 78.7349 70.6048 76.4627 77.4066 74.8573C84.3566 73.217 91.2961 74.6363 97.9751 76.2305C100.013 76.7171 102.052 76.8313 104.131 77.0897C105.246 77.2288 108.187 77.1655 108.895 77.8457L115.503 78.2569Z" fill="#B2B3B3"/>
</svg>
