<svg width="99" height="114" viewBox="0 0 99 114" fill="none" xmlns="http://www.w3.org/2000/svg">
<path d="M12.103 42.8237C6.10678 46.002 7.29035 54.4928 13.9731 56.1736C15.1732 56.4757 16.2055 57.1958 16.9019 58.1592L19.3 61.4734C19.9608 62.3867 21.2609 62.6715 22.286 62.1279L24.5569 60.9238C25.5827 60.3802 25.9899 59.1902 25.4927 58.1907C23.6782 54.541 22.7275 53.3182 23.3753 51.1894C25.2706 44.9617 18.0998 39.6445 12.103 42.8237Z" fill="#92B5F9"/>
<path d="M17.803 46.8418C17.7716 47.3379 18.063 47.8601 18.3559 48.4745C18.7695 48.0158 19.2394 47.459 19.2359 46.8813C19.233 46.4762 18.8795 46.0249 18.4545 46.0651C18.408 46.0696 17.8251 46.4936 17.803 46.8418ZM12.7961 51.1895C13.2496 51.4055 13.8512 51.362 14.6326 51.0546C14.2805 50.5538 13.8826 50.1305 13.3426 49.9193C12.1238 49.4419 12.0353 50.8266 12.7961 51.1895ZM19.013 58.5358C17.3308 55.4537 15.4098 52.2493 14.8321 51.352C11.2481 52.7995 11.2209 48.7125 13.4855 49.5991C14.1312 49.8511 14.5813 50.3405 14.9748 50.9101C16.15 50.3899 17.21 49.6565 18.0873 48.7606C17.7158 47.9859 17.3957 47.4122 17.4329 46.8211C17.4894 45.9292 18.4481 45.3616 19.1659 45.9647C19.4352 46.1914 19.6045 46.5416 19.6066 46.8793C19.6118 47.5994 19.0374 48.2739 18.5238 48.8242C19.7232 51.322 21.0047 53.8143 22.3398 56.2433L22.0098 56.4024C20.6968 54.0123 19.4346 51.562 18.2515 49.1043C17.3736 49.9741 16.3264 50.6895 15.172 51.207C15.9071 52.3556 17.7637 55.4845 19.3438 58.378L19.013 58.5358Z" fill="white"/>
<path d="M16.8384 58.0791C16.8591 58.1059 16.882 58.1312 16.9019 58.1593L19.3 61.4734C19.9607 62.3867 21.2609 62.6715 22.2859 62.1279L24.5569 60.9238C25.5827 60.3803 25.9899 59.1903 25.4927 58.1908C24.6855 56.5668 24.0504 55.4248 23.6497 54.4681L16.8384 58.0791Z" fill="#7C9AF2"/>
<path d="M6.30216 41.7279L3.114 39.1245C2.80545 38.8724 2.77331 38.4339 3.04254 38.145C3.31191 37.8562 3.77981 37.8267 4.08911 38.0788L7.27727 40.6822C7.58657 40.9343 7.61797 41.3722 7.34873 41.661C7.07798 41.9519 6.60932 41.9786 6.30216 41.7279Z" fill="#92B5F9"/>
<path d="M5.22861 51.0491L0.935367 52.1395C0.540299 52.2405 0.133175 52.0219 0.0260569 51.6521C-0.0810608 51.2818 0.151763 50.9006 0.54683 50.8004L4.84008 49.7093C5.23577 49.609 5.6429 49.8276 5.75014 50.1973C5.85726 50.5671 5.62431 50.9481 5.22861 51.0491Z" fill="#92B5F9"/>
<path d="M5.79219 64.4038C5.42136 64.2407 5.26213 63.8274 5.43631 63.4805C6.08718 62.1828 6.8743 60.9373 7.77657 59.7792C8.01731 59.4691 8.48169 59.4009 8.81234 59.6262C9.14386 59.8522 9.2167 60.2867 8.97534 60.5963C8.12869 61.684 7.39017 62.8526 6.7786 64.0703C6.60506 64.4159 6.16503 64.5676 5.79219 64.4038Z" fill="#92B5F9"/>
<path d="M16.5103 38.016C16.1032 38.0507 15.7417 37.77 15.7053 37.3882C15.5281 35.5757 15.1481 33.7739 14.5758 32.0343C14.4558 31.6679 14.6751 31.2795 15.0666 31.1672C15.458 31.0542 15.8731 31.2601 15.9932 31.6264C16.596 33.4577 16.9953 35.3538 17.1818 37.2619C17.219 37.6456 16.9161 37.9812 16.5103 38.016Z" fill="#92B5F9"/>
<path d="M22.7604 41.5468C22.5139 41.2405 22.5803 40.8053 22.9067 40.5746L26.7521 37.8669C27.08 37.6369 27.545 37.6984 27.7908 38.0047C28.0373 38.3108 27.9715 38.7453 27.6443 38.9761L23.799 41.6837C23.4718 41.9137 23.0075 41.8535 22.7604 41.5468Z" fill="#92B5F9"/>
<path d="M34.0942 49.8724C34.0319 49.8931 33.9655 49.9072 33.8955 49.9125C32.2424 50.0335 30.571 49.9882 28.9273 49.7781C28.5214 49.7254 28.2379 49.3757 28.2936 48.9959C28.3485 48.6161 28.7236 48.3501 29.1287 48.4029C30.6673 48.5995 32.2325 48.6423 33.7797 48.5286C34.1884 48.4986 34.5456 48.7839 34.577 49.1664C34.6034 49.4833 34.3983 49.7674 34.0942 49.8724Z" fill="#92B5F9"/>
<path d="M52.2775 16.0993L18.8578 33.5078C17.5187 34.3047 18.0764 36.1762 19.1814 36.8419L51.9886 58.8002C55.6829 59.3787 54.6976 59.1749 56.0381 58.3782L86.1938 38.1179C87.5339 37.3216 87.9103 36.5623 86.8052 35.8965L56.705 15.8621C55.5998 15.1963 53.6178 15.3028 52.2775 16.0993Z" fill="#4951EC"/>
<path d="M68.7155 98.1386L98.9999 58.4776L85.2028 60.2138L78.6488 48.6115L57.123 92.1423L68.7155 98.1386Z" fill="#009846"/>
<path d="M57.0698 92.2328L58.2513 89.8405L70.2938 96.0696L68.7188 98.1384L57.0698 92.2328Z" fill="black" fill-opacity="0.101961"/>
<path d="M71.4766 85.6458C77.0934 77.0302 83.0646 68.6185 89.3819 60.4388C83.7681 69.056 77.7914 77.4644 71.4766 85.6458Z" fill="black" fill-opacity="0.101961"/>
<path d="M69.8999 86.7343C74.6668 77.254 79.8097 67.9401 85.324 58.8218C80.5599 68.3032 75.4111 77.6144 69.8999 86.7343Z" fill="black" fill-opacity="0.101961"/>
<path d="M66.0244 83.5013C71.2207 74.3181 76.7844 65.3176 82.7088 56.5286C77.5154 65.7133 71.9462 74.711 66.0244 83.5013Z" fill="black" fill-opacity="0.101961"/>
<path d="M59.9458 94.5448C65.0401 85.1513 70.505 75.9342 76.3342 66.923C71.2433 76.3176 65.773 85.532 59.9458 94.5448Z" fill="black" fill-opacity="0.101961"/>
<path d="M72.9014 89.3069C78.4229 80.2828 84.3052 71.4528 90.5406 62.8452C85.022 71.8707 79.1342 80.6979 72.9014 89.3069Z" fill="black" fill-opacity="0.101961"/>
<path d="M32.0668 59.8191C32.0668 59.8191 40.8505 40.6852 52.5906 40.6852C69.5933 40.6852 73.562 61.9029 73.562 61.9029C73.562 61.9029 84.8174 67.9162 84.489 87.2501C84.216 103.334 68.4854 114.246 52.5906 113.996C40.3838 113.803 22.8411 107.461 20.149 91.4573C17.4566 75.4527 32.0668 59.8191 32.0668 59.8191Z" fill="#009846"/>
<path d="M61.0632 104.992C57.9041 103.888 58.612 106.975 59.1516 108.266C59.7657 109.734 60.2649 110.421 61.3453 110.572" stroke="#263138" stroke-width="0.5292" stroke-miterlimit="22.9256"/>
<path d="M61.7726 105.002C64.6526 103.851 64.0072 107.07 63.5153 108.416C62.9555 109.947 62.5 110.663 61.5151 110.82" stroke="#263138" stroke-width="0.5292" stroke-miterlimit="22.9256"/>
<path d="M64.5631 104.987C66.963 103.908 66.4254 106.925 66.0153 108.187C65.549 109.623 65.1697 110.294 64.3486 110.441" stroke="#263138" stroke-width="0.5292" stroke-miterlimit="22.9256"/>
<path d="M41.6309 104.992C38.472 103.888 39.1798 106.975 39.7197 108.266C40.3334 109.734 40.8329 110.421 41.9132 110.572" stroke="#263138" stroke-width="0.5292" stroke-miterlimit="22.9256"/>
<path d="M44.0864 105.066C40.9278 103.962 41.6354 107.049 42.1749 108.34C42.7888 109.808 43.2881 110.494 44.3685 110.646" stroke="#263138" stroke-width="0.5292" stroke-miterlimit="22.9256"/>
<path d="M45.1318 104.987C47.5319 103.908 46.9942 106.925 46.5841 108.187C46.1177 109.623 45.7383 110.294 44.9175 110.441" stroke="#263138" stroke-width="0.5292" stroke-miterlimit="22.9256"/>
<path d="M73.8622 61.5649C73.8622 61.5649 74.0719 63.2372 73.8622 75.2048C73.6878 85.1704 60.2065 89.1555 50.0743 89.0006C39.8168 88.8438 30.9786 82.1226 31.1553 72.0248C31.2711 65.4098 29.9627 63.6828 31.7601 59.8598C33.9866 55.1237 34.7962 54.7449 34.7962 54.7449C36.0108 52.0927 38.1702 49.432 41.071 46.4093C43.3692 44.0146 45.8278 41.2639 50.1797 40.5367C61.5149 38.6421 68.1945 49.0616 68.1945 49.0616C68.1945 49.0616 69.2067 49.8194 70.0164 52.0927C71.8382 55.3131 71.283 54.2732 72.2429 56.6394C73.2036 59.0074 73.8622 61.5649 73.8622 61.5649Z" fill="white" fill-opacity="0.301961"/>
<path d="M71.8382 56.4499C72.6478 59.102 75.0768 63.0804 68.397 65.7324C62.5271 67.4376 66.1141 63.8381 54.3741 63.8381C41.8245 63.2698 45.8219 66.4903 38.3834 64.5959C34.5666 63.6238 34.9986 54.1765 34.9986 54.1765L37.4275 50.4345C37.4275 50.4345 40.9901 46.8524 45.8219 46.7882L61.7708 47.0322C68.3537 47.133 71.0285 53.7976 71.8382 56.4499Z" fill="white" fill-opacity="0.501961"/>
<path d="M59.822 60.0284L54.3326 56.6392L48.9653 60.0284L54.3326 67.0586L59.822 60.0284Z" fill="#263138"/>
<path d="M58.6812 54.9841C60.025 53.088 63.5181 50.4334 66.743 54.9841" stroke="black" stroke-width="1.0583" stroke-miterlimit="22.9256"/>
<path d="M42.8926 54.9841C44.2361 53.088 47.7296 50.4334 50.9542 54.9841" stroke="black" stroke-width="1.0583" stroke-miterlimit="22.9256"/>
<path d="M43.0242 75.1346L41.5425 77.7003C38.0315 83.7686 33.2959 89.2838 27.5716 93.969L26.9443 94.4831C26.9443 94.4831 28.1555 99.6604 33.723 98.7518C38.0382 92.5838 43.0153 87.0755 48.9118 81.9889L51.0889 80.3287L43.0242 75.1346Z" fill="#7C9AF2"/>
<path d="M51.0933 80.3225C50.7637 80.6941 48.6982 79.8319 46.4804 78.396C44.2604 76.9603 42.7057 75.4921 43.0353 75.1206C43.3648 74.7489 45.4532 75.6143 47.6733 77.0501C49.891 78.4858 51.4229 79.9508 51.0933 80.3225Z" fill="#92B5F9"/>
<path d="M51.0821 80.3349L51.0865 80.3266C51.0865 80.3266 45.9734 77.6518 45.0443 76.1936L44.4331 76.9154C44.9964 77.3794 45.6962 77.8898 46.4803 78.396C48.673 79.8152 50.7163 80.6742 51.0821 80.3349Z" fill="#92B5F9"/>
<path d="M41.824 88.7707C41.1743 88.9754 38.2768 89.6152 35.7161 85.9675C35.3865 86.3584 35.0502 86.7457 34.709 87.1293C36.4633 89.3981 38.3839 90.0766 39.7222 90.2374C39.9336 90.2629 40.2152 90.2864 40.4288 90.2932C40.8878 89.7817 41.3517 89.2739 41.824 88.7707Z" fill="#FA7167"/>
<path d="M36.6747 86.0745L34.8885 80.1069L33.9802 81.9237L31.9141 81.6263L35.5092 86.6998L36.6747 86.0745Z" fill="#FA7167"/>
<path d="M35.2527 87.0975L30.2505 86.2974L31.4166 87.5708L30.2527 88.5489L35.0931 88.1721L35.2527 87.0975Z" fill="#FA7167"/>
<path d="M34.3681 88.2479C33.9254 87.239 34.5595 86.0537 35.784 85.5997C37.0086 85.1461 38.3608 85.5965 38.8042 86.6054C39.247 87.6143 38.613 88.8 37.3884 89.2536C36.1637 89.7071 34.8115 89.2566 34.3681 88.2479Z" fill="#FA7167"/>
<path d="M32.888 58.1547L31.8108 110.969C31.8108 110.969 18.3409 95.7606 18.6069 82.7189C18.9451 66.1366 32.888 58.1547 32.888 58.1547Z" fill="#009846"/>
<path d="M32.888 58.1547L31.8108 110.969C31.8108 110.969 18.3409 95.7606 18.6069 82.7189C18.9451 66.1366 32.888 58.1547 32.888 58.1547Z" fill="black" fill-opacity="0.101961"/>
<path d="M23.3126 98.6183C23.0882 98.2022 22.8635 97.7786 22.6489 97.3471C22.783 88.869 23.0738 80.3233 23.5108 72.2471C23.6189 80.7358 23.5522 89.7288 23.3126 98.6183Z" fill="black" fill-opacity="0.101961"/>
<path d="M26.3467 103.677C26.149 103.371 25.9513 103.064 25.7441 102.75C25.8359 92.5412 26.1466 82.0707 26.6762 72.2887C26.8201 82.3754 26.6968 93.1839 26.3467 103.677Z" fill="black" fill-opacity="0.101961"/>
<path d="M29.3576 107.925C29.2062 107.736 29.0549 107.532 28.9038 107.319C28.9176 95.699 29.2429 83.5609 29.8508 72.3303C29.9963 83.7655 29.8313 96.132 29.3576 107.925Z" fill="black" fill-opacity="0.101961"/>
<path d="M72.8506 60.0492L73.7753 112.864C73.7753 112.864 85.3364 97.655 85.1081 84.6134C84.8179 68.0311 72.8506 60.0492 72.8506 60.0492Z" fill="#009846"/>
<path d="M72.8506 60.0492L73.7753 112.864C73.7753 112.864 85.3364 97.655 85.1081 84.6134C84.8179 68.0311 72.8506 60.0492 72.8506 60.0492Z" fill="black" fill-opacity="0.101961"/>
<path d="M81.0686 100.513C81.261 100.097 81.454 99.673 81.6382 99.2415C81.5229 90.7635 81.2736 82.2177 80.8987 74.1416C80.8056 82.6305 80.863 91.6232 81.0686 100.513Z" fill="black" fill-opacity="0.101961"/>
<path d="M78.4649 105.572C78.6345 105.265 78.8043 104.959 78.9824 104.644C78.9034 94.4357 78.6365 83.9651 78.1824 74.1832C78.059 84.2698 78.1645 95.0783 78.4649 105.572Z" fill="black" fill-opacity="0.101961"/>
<path d="M75.8806 109.82C76.0106 109.63 76.1405 109.426 76.2701 109.213C76.2583 97.5933 75.9794 85.4552 75.4576 74.2249C75.3324 85.6598 75.4742 98.0264 75.8806 109.82Z" fill="black" fill-opacity="0.101961"/>
<path d="M72.607 57.5488C72.607 56.5025 69.5257 55.6543 65.7248 55.6543C61.924 55.6543 58.8428 56.5025 58.8428 57.5488C58.8428 58.595 61.924 59.4431 65.7248 59.4431C69.5257 59.4431 72.607 58.595 72.607 57.5488Z" fill="#FFBFE1" fill-opacity="0.701961"/>
<path d="M48.7227 57.1697C48.7227 56.1235 45.6414 55.2753 41.8405 55.2753C38.0398 55.2753 34.9585 56.1235 34.9585 57.1697C34.9585 58.216 38.0398 59.0641 41.8405 59.0641C45.6414 59.0641 48.7227 58.216 48.7227 57.1697Z" fill="#FFBFE1" fill-opacity="0.701961"/>
<path d="M39.3715 23.1354C37.7492 23.0576 36.055 22.7741 34.318 22.216C30.8154 21.0889 28.3963 19.2476 27.1247 16.7443C25.15 12.8498 26.6972 8.80685 26.7639 8.63666C26.8969 8.29806 27.2958 8.12388 27.6576 8.24834C28.0179 8.37069 28.203 8.74491 28.0711 9.08293C28.0572 9.11924 26.6604 12.8018 28.3892 16.194C29.4949 18.3652 31.6435 19.9772 34.7742 20.9838C45.0433 24.287 54.0306 16.975 54.1208 16.8999C54.4094 16.6609 54.8491 16.6864 55.1036 16.9556C55.3572 17.2237 55.3299 17.6351 55.0432 17.8742C54.7138 18.147 48.0565 23.5599 39.3715 23.1354Z" fill="#7C9AF2"/>
<path d="M37.8356 48.9326C37.8356 48.9326 62.257 44.622 68.7691 50.6285L68.8035 40.0534C68.8188 34.8331 57.9795 33.8766 54.3751 33.6494C49.9736 33.3731 41.0516 34.6516 38.3195 38.5127C36.4518 41.1527 37.8356 48.9326 37.8356 48.9326Z" fill="#0B0754"/>
<path d="M28.6715 4.05444L28.0791 6.46463C27.5965 6.44065 27.0877 6.67055 26.7665 7.10646C26.2998 7.73948 26.4082 8.56607 27.0076 8.95275C27.6077 9.33989 28.4727 9.14044 28.9397 8.50684C29.2446 8.09219 29.3045 7.59457 29.1401 7.19144L31.372 5.79459L35.0692 3.48042L29.6679 0L28.6715 4.05444Z" fill="#7C9AF2"/>
<path d="M89.861 46.007C90.167 44.9729 91.1591 44.4317 92.2427 44.7135C93.3679 45.0059 93.8792 45.9369 93.5928 46.9764C93.2922 47.9914 92.3145 48.5573 91.189 48.2649C90.0845 47.9779 89.5592 47.0218 89.861 46.007ZM91.2008 43.4553C91.3696 43.0495 91.3118 41.5959 93.47 40.1984C94.3562 39.6302 95.0843 39.1466 95.2803 38.4831C95.6202 37.3387 94.3341 36.7892 93.0517 36.7947C92.3876 36.7977 91.8465 36.3 91.8244 35.6794C91.8036 35.049 92.3261 34.5209 92.9993 34.4904C93.7338 34.457 94.6006 34.5236 95.509 34.7596C98.2618 35.4747 99.0906 37.224 98.6095 38.8436C98.1704 40.3266 96.8998 41.0477 95.8647 41.6613C94.1224 42.6973 94.1236 43.8522 93.9744 44.1756L91.2008 43.4553Z" fill="#92B5F9"/>
</svg>
