<svg width="99" height="114" viewBox="0 0 99 114" fill="none" xmlns="http://www.w3.org/2000/svg">
<path d="M12.1029 42.8236C6.10673 46.0021 7.29042 54.4928 13.9732 56.1736C15.1732 56.4758 16.2055 57.1959 16.9019 58.1593L19.3 61.4734C19.9608 62.3867 21.2609 62.6715 22.286 62.1279L24.557 60.9238C25.5828 60.3802 25.9899 59.1903 25.4928 58.1908C23.6783 54.541 22.7274 53.3182 23.3754 51.1894C25.2706 44.9617 18.0999 39.6445 12.1029 42.8236Z" fill="#C5C6C6"/>
<path d="M17.8035 46.8417C17.772 47.3378 18.0634 47.86 18.3563 48.4745C18.7699 48.0157 19.24 47.4589 19.2365 46.8812C19.2336 46.4761 18.8799 46.0248 18.455 46.0649C18.4085 46.0696 17.8256 46.4935 17.8035 46.8417ZM12.7966 51.1894C13.2502 51.4054 13.8517 51.362 14.6332 51.0545C14.2809 50.5537 13.8831 50.1305 13.3431 49.9191C12.1244 49.4419 12.0358 50.8265 12.7966 51.1894ZM19.0136 58.5358C17.3312 55.4536 15.4104 52.2492 14.8324 51.352C11.2486 52.7995 11.2215 48.7125 13.4859 49.599C14.1317 49.851 14.5817 50.3404 14.9753 50.9101C16.1504 50.3899 17.2105 49.6565 18.0877 48.7605C17.7163 47.9858 17.3962 47.4121 17.4334 46.8211C17.4898 45.9291 18.4485 45.3616 19.1664 45.9646C19.4357 46.1912 19.605 46.5416 19.6072 46.8793C19.6122 47.5994 19.0378 48.2738 18.5242 48.8241C19.7236 51.3219 21.0052 53.8142 22.3402 56.2432L22.0103 56.4024C20.6973 54.0123 19.435 51.5619 18.252 49.1042C17.3741 49.974 16.3268 50.6894 15.1725 51.2069C15.9076 52.3556 17.7642 55.4844 19.3443 58.3779L19.0136 58.5358Z" fill="#C5C6C6"/>
<path d="M16.8384 58.079C16.859 58.1058 16.8818 58.1312 16.9018 58.1593L19.3 61.4734C19.9607 62.3867 21.2608 62.6715 22.2859 62.1279L24.5569 60.9238C25.5827 60.3802 25.9898 59.1903 25.4927 58.1908C24.6853 56.5668 24.0503 55.4248 23.6497 54.4681L16.8384 58.079Z" fill="#C5C6C6"/>
<path d="M6.30221 41.7279L3.11404 39.1245C2.80537 38.8724 2.77335 38.4339 3.04259 38.145C3.31195 37.8562 3.77986 37.8267 4.08915 38.0788L7.27732 40.6822C7.58649 40.9343 7.61801 41.3721 7.34877 41.661C7.07802 41.9519 6.60924 41.9786 6.30221 41.7279Z" fill="#C5C6C6"/>
<path d="M5.22873 51.0492L0.93548 52.1396C0.540413 52.2406 0.133292 52.022 0.0260484 51.6522C-0.0810693 51.2818 0.15188 50.9007 0.546821 50.8005L4.84019 49.7094C5.23589 49.6091 5.64301 49.8277 5.75025 50.1974C5.85724 50.5672 5.62442 50.9482 5.22873 51.0492Z" fill="#C5C6C6"/>
<path d="M5.79213 64.4038C5.42142 64.2407 5.26206 63.8274 5.43637 63.4805C6.08711 62.1828 6.87435 60.9373 7.77663 59.7792C8.01736 59.4691 8.48162 59.4009 8.81239 59.6262C9.14392 59.8522 9.21675 60.2867 8.97527 60.5963C8.12875 61.684 7.39023 62.8527 6.77867 64.0701C6.60499 64.4159 6.16509 64.5676 5.79213 64.4038Z" fill="#C5C6C6"/>
<path d="M16.5102 38.0159C16.1031 38.0507 15.7415 37.77 15.7052 37.3882C15.5281 35.5757 15.1479 33.7739 14.5758 32.0342C14.4558 31.6679 14.6751 31.2795 15.0666 31.1671C15.458 31.0542 15.873 31.2601 15.9931 31.6264C16.596 33.4577 16.9953 35.3538 17.1818 37.2619C17.2188 37.6456 16.9161 37.9812 16.5102 38.0159Z" fill="#C5C6C6"/>
<path d="M22.7603 41.5468C22.5139 41.2405 22.5803 40.8053 22.9067 40.5746L26.7521 37.8669C27.0799 37.6369 27.545 37.6984 27.7908 38.0046C28.0372 38.3108 27.9715 38.7453 27.6442 38.9761L23.7989 41.6837C23.4718 41.9137 23.0074 41.8535 22.7603 41.5468Z" fill="#C5C6C6"/>
<path d="M34.0941 49.8724C34.0319 49.8931 33.9655 49.9072 33.8955 49.9125C32.2424 50.0335 30.571 49.9882 28.9272 49.7781C28.5214 49.7254 28.2378 49.3757 28.2936 48.9959C28.3485 48.6161 28.7236 48.3501 29.1286 48.4029C30.6673 48.5994 32.2325 48.6423 33.7798 48.5286C34.1884 48.4986 34.5455 48.784 34.577 49.1664C34.6034 49.4833 34.3984 49.7675 34.0941 49.8724Z" fill="#C5C6C6"/>
<path d="M52.2774 16.0994L18.8578 33.5078C17.5187 34.3048 18.0764 36.1762 19.1814 36.8419L51.9885 58.8002C55.6829 59.3787 54.6976 59.1748 56.0379 58.3782L86.1936 38.1179C87.5339 37.3217 87.9102 36.5623 86.805 35.8965L56.7048 15.8622C55.5998 15.1963 53.6178 15.3029 52.2774 16.0994Z" fill="#9D9E9E"/>
<path d="M68.7154 98.1385L98.9999 58.4776L85.2027 60.2137L78.6488 48.6114L57.123 92.1422L68.7154 98.1385Z" fill="#A7A8A8"/>
<path d="M57.0698 92.2327L58.2513 89.8404L70.2936 96.0695L68.7188 98.1384L57.0698 92.2327Z" fill="black" fill-opacity="0.101961"/>
<path d="M71.4771 85.6457C77.0939 77.0302 83.0652 68.6184 89.3824 60.4388C83.7687 69.056 77.7918 77.4643 71.4771 85.6457Z" fill="black" fill-opacity="0.101961"/>
<path d="M69.8999 86.7342C74.6668 77.254 79.8097 67.9401 85.3238 58.8217C80.5598 68.3031 75.411 77.6143 69.8999 86.7342Z" fill="black" fill-opacity="0.101961"/>
<path d="M66.0244 83.5012C71.2208 74.318 76.7845 65.3176 82.7088 56.5286C77.5154 65.7133 71.9463 74.7109 66.0244 83.5012Z" fill="black" fill-opacity="0.101961"/>
<path d="M59.9453 94.5447C65.0396 85.1511 70.5045 75.9341 76.3337 66.9227C71.2426 76.3175 65.7725 85.5319 59.9453 94.5447Z" fill="black" fill-opacity="0.101961"/>
<path d="M72.9014 89.307C78.423 80.2829 84.3052 71.4528 90.5407 62.8453C85.0221 71.8708 79.1343 80.698 72.9014 89.307Z" fill="black" fill-opacity="0.101961"/>
<path d="M32.066 59.8191C32.066 59.8191 40.8496 40.6852 52.5897 40.6852C69.5924 40.6852 73.5609 61.9029 73.5609 61.9029C73.5609 61.9029 84.8164 67.9162 84.4881 87.25C84.2149 103.334 68.4843 114.246 52.5897 113.996C40.3828 113.803 22.8403 107.461 20.148 91.4572C17.4557 75.4526 32.066 59.8191 32.066 59.8191Z" fill="#A7A8A8"/>
<path d="M61.0631 104.992C57.9042 103.888 58.612 106.975 59.1517 108.266C59.7656 109.734 60.2649 110.421 61.3453 110.572" stroke="#727271" stroke-width="0.5292" stroke-miterlimit="22.9256"/>
<path d="M61.7722 105.002C64.6521 103.851 64.0069 107.07 63.515 108.416C62.9551 109.947 62.4996 110.663 61.5146 110.82" stroke="#727271" stroke-width="0.5292" stroke-miterlimit="22.9256"/>
<path d="M64.5631 104.987C66.963 103.908 66.4253 106.925 66.0153 108.187C65.5489 109.623 65.1697 110.294 64.3486 110.441" stroke="#727271" stroke-width="0.5292" stroke-miterlimit="22.9256"/>
<path d="M41.631 104.992C38.472 103.888 39.1799 106.975 39.7196 108.266C40.3333 109.734 40.8328 110.421 41.9133 110.572" stroke="#727271" stroke-width="0.5292" stroke-miterlimit="22.9256"/>
<path d="M44.0859 105.066C40.9273 103.962 41.6349 107.049 42.1745 108.34C42.7884 109.808 43.2878 110.494 44.3681 110.646" stroke="#727271" stroke-width="0.5292" stroke-miterlimit="22.9256"/>
<path d="M45.1309 104.987C47.5309 103.908 46.9933 106.925 46.5832 108.187C46.1169 109.623 45.7374 110.294 44.9165 110.441" stroke="#727271" stroke-width="0.5292" stroke-miterlimit="22.9256"/>
<path d="M73.8623 61.5649C73.8623 61.5649 74.072 63.2371 73.8623 75.2048C73.6879 85.1704 60.2066 89.1555 50.0744 89.0006C39.8169 88.8438 30.9787 82.1226 31.1554 72.0247C31.2711 65.4098 29.9627 63.6828 31.7601 59.8598C33.9867 55.1237 34.7962 54.7449 34.7962 54.7449C36.0107 52.0927 38.1703 49.4321 41.0711 46.4093C43.3693 44.0145 45.8278 41.2639 50.1798 40.5367C61.5149 38.6421 68.1946 49.0616 68.1946 49.0616C68.1946 49.0616 69.2068 49.8193 70.0165 52.0927C71.8381 55.3131 71.2831 54.2732 72.243 56.6394C73.2035 59.0073 73.8623 61.5649 73.8623 61.5649Z" fill="white" fill-opacity="0.301961"/>
<path d="M71.8382 56.4498C72.6479 59.1019 75.0769 63.0803 68.3971 65.7323C62.5271 67.4375 66.1142 63.838 54.3742 63.838C41.8246 63.2697 45.822 66.4902 38.3834 64.5958C34.5667 63.6238 34.9986 54.1764 34.9986 54.1764L37.4276 50.4344C37.4276 50.4344 40.99 46.8523 45.822 46.7881L61.7709 47.0321C68.3538 47.133 71.0284 53.7975 71.8382 56.4498Z" fill="white" fill-opacity="0.501961"/>
<path d="M59.8221 60.0284L54.3326 56.6392L48.9653 60.0284L54.3326 67.0586L59.8221 60.0284Z" fill="#727271"/>
<path d="M58.6812 54.9841C60.0248 53.088 63.5181 50.4334 66.7429 54.9841" stroke="#727271" stroke-width="1.0583" stroke-miterlimit="22.9256"/>
<path d="M42.8926 54.9841C44.2361 53.088 47.7296 50.4334 50.9542 54.9841" stroke="#727271" stroke-width="1.0583" stroke-miterlimit="22.9256"/>
<path d="M43.0242 75.1347L41.5425 77.7004C38.0316 83.7687 33.296 89.2838 27.5717 93.969L26.9443 94.4831C26.9443 94.4831 28.1555 99.6604 33.7231 98.7518C38.0382 92.5838 43.0153 87.0755 48.9119 81.9889L51.089 80.3287L43.0242 75.1347Z" fill="#9D9E9E"/>
<path d="M51.0934 80.3225C50.7638 80.6941 48.6983 79.8319 46.4805 78.396C44.2604 76.9603 42.7058 75.4921 43.0353 75.1205C43.3649 74.7489 45.4533 75.6143 47.6732 77.05C49.8911 78.4858 51.4229 79.9508 51.0934 80.3225Z" fill="#D9DADA"/>
<path d="M51.0819 80.3349L51.0865 80.3266C51.0865 80.3266 45.9733 77.6518 45.0443 76.1936L44.4331 76.9154C44.9963 77.3794 45.6962 77.8898 46.4803 78.396C48.673 79.8152 50.7161 80.6742 51.0819 80.3349Z" fill="#D9DADA"/>
<path d="M41.8241 88.7707C41.1745 88.9753 38.2769 89.6151 35.7161 85.9675C35.3866 86.3584 35.0503 86.7456 34.709 87.1292C36.4634 89.3981 38.3839 90.0766 39.7223 90.2372C39.9336 90.2629 40.2152 90.2864 40.4288 90.2932C40.8878 89.7817 41.3518 89.2738 41.8241 88.7707Z" fill="#EBECEC"/>
<path d="M36.6748 86.0745L34.8886 80.1069L33.9802 81.9237L31.9141 81.6262L35.5093 86.6998L36.6748 86.0745Z" fill="#EBECEC"/>
<path d="M35.2526 87.0974L30.2505 86.2974L31.4165 87.5708L30.2527 88.5489L35.0931 88.1721L35.2526 87.0974Z" fill="#EBECEC"/>
<path d="M34.3682 88.2477C33.9254 87.2388 34.5594 86.0536 35.784 85.5995C37.0087 85.146 38.3609 85.5964 38.8043 86.6052C39.2471 87.614 38.6129 88.7999 37.3884 89.2534C36.1638 89.707 34.8116 89.2565 34.3682 88.2477Z" fill="#EBECEC"/>
<path d="M32.8879 58.1547L31.8108 110.969C31.8108 110.969 18.3409 95.7606 18.6069 82.719C18.945 66.1367 32.8879 58.1547 32.8879 58.1547Z" fill="#A7A8A8"/>
<path d="M32.8879 58.1547L31.8108 110.969C31.8108 110.969 18.3409 95.7606 18.6069 82.719C18.945 66.1367 32.8879 58.1547 32.8879 58.1547Z" fill="#A7A8A8" fill-opacity="0.101961"/>
<path d="M23.3132 98.6182C23.0887 98.2022 22.8642 97.7787 22.6494 97.3471C22.7837 88.8691 23.0744 80.3232 23.5114 72.2471C23.6195 80.7359 23.5528 89.7287 23.3132 98.6182Z" fill="black" fill-opacity="0.101961"/>
<path d="M26.3467 103.677C26.149 103.371 25.9513 103.064 25.7441 102.75C25.8359 92.5411 26.1465 82.0707 26.6761 72.2886C26.8201 82.3752 26.6968 93.1839 26.3467 103.677Z" fill="black" fill-opacity="0.101961"/>
<path d="M29.3577 107.925C29.2061 107.736 29.0548 107.531 28.9038 107.319C28.9175 95.6989 29.2429 83.5609 29.8508 72.3303C29.9962 83.7655 29.8313 96.1319 29.3577 107.925Z" fill="black" fill-opacity="0.101961"/>
<path d="M72.8501 60.0492L73.7749 112.864C73.7749 112.864 85.3359 97.655 85.1076 84.6134C84.8174 68.0312 72.8501 60.0492 72.8501 60.0492Z" fill="#A7A8A8"/>
<path d="M72.8501 60.0492L73.7749 112.864C73.7749 112.864 85.3359 97.655 85.1076 84.6134C84.8174 68.0312 72.8501 60.0492 72.8501 60.0492Z" fill="#A7A8A8" fill-opacity="0.101961"/>
<path d="M81.0687 100.513C81.2611 100.097 81.4541 99.673 81.6384 99.2414C81.523 90.7635 81.2735 82.2176 80.8987 74.1415C80.8056 82.6303 80.863 91.6231 81.0687 100.513Z" fill="black" fill-opacity="0.101961"/>
<path d="M78.4644 105.571C78.6341 105.265 78.8037 104.958 78.9819 104.644C78.903 94.4356 78.6361 83.9651 78.182 74.1832C78.0584 84.2697 78.1641 95.0783 78.4644 105.571Z" fill="black" fill-opacity="0.101961"/>
<path d="M75.8805 109.82C76.0106 109.631 76.1406 109.426 76.2701 109.213C76.2583 97.5933 75.9794 85.4553 75.4577 74.2249C75.3325 85.6599 75.4741 98.0264 75.8805 109.82Z" fill="black" fill-opacity="0.101961"/>
<path d="M72.607 57.5486C72.607 56.5023 69.5258 55.6541 65.7249 55.6541C61.9241 55.6541 58.8428 56.5023 58.8428 57.5486C58.8428 58.5948 61.9241 59.4429 65.7249 59.4429C69.5258 59.4429 72.607 58.5948 72.607 57.5486Z" fill="#FEFEFE" fill-opacity="0.701961"/>
<path d="M48.7227 57.1697C48.7227 56.1234 45.6414 55.2752 41.8405 55.2752C38.0397 55.2752 34.9585 56.1234 34.9585 57.1697C34.9585 58.2159 38.0397 59.064 41.8405 59.064C45.6414 59.064 48.7227 58.2159 48.7227 57.1697Z" fill="#FEFEFE" fill-opacity="0.701961"/>
<path d="M39.3725 23.1355C37.7501 23.0577 36.056 22.7742 34.3189 22.216C30.8162 21.0889 28.3971 19.2477 27.1256 16.7443C25.1509 12.8498 26.6982 8.80691 26.7649 8.63672C26.8977 8.29812 27.2968 8.12394 27.6586 8.2484C28.0189 8.37075 28.2038 8.74497 28.0721 9.08287C28.0582 9.1193 26.6614 12.8018 28.3902 16.194C29.4959 18.3653 31.6443 19.9772 34.7752 20.9837C45.0443 24.287 54.0315 16.975 54.1218 16.8999C54.4104 16.661 54.85 16.6865 55.1044 16.9556C55.3581 17.2236 55.3309 17.6351 55.0442 17.8742C54.7148 18.147 48.0574 23.56 39.3725 23.1355Z" fill="#EBECEC"/>
<path d="M37.8356 48.9326C37.8356 48.9326 62.257 44.622 68.769 50.6285L68.8034 40.0533C68.8188 34.8331 57.9795 33.8766 54.375 33.6494C49.9737 33.3731 41.0516 34.6516 38.3194 38.5127C36.4518 41.1527 37.8356 48.9326 37.8356 48.9326Z" fill="#727271"/>
<path d="M28.6715 4.05445L28.0791 6.46463C27.5965 6.44065 27.0877 6.67054 26.7664 7.10646C26.2999 7.73948 26.4081 8.56607 27.0076 8.95274C27.6077 9.33989 28.4727 9.14044 28.9398 8.50684C29.2447 8.09219 29.3044 7.59457 29.1402 7.19144L31.3721 5.79459L35.0691 3.48043L29.668 0L28.6715 4.05445Z" fill="#EBECEC"/>
<path d="M89.861 46.007C90.1671 44.9729 91.1591 44.4316 92.2426 44.7135C93.3679 45.0059 93.8792 45.9369 93.5927 46.9764C93.2922 47.9914 92.3146 48.5573 91.189 48.2649C90.0846 47.9779 89.5592 47.0218 89.861 46.007ZM91.2008 43.4553C91.3696 43.0495 91.3118 41.5959 93.4699 40.1984C94.3561 39.6302 95.0843 39.1465 95.2802 38.4831C95.6203 37.3387 94.334 36.7892 93.0516 36.7946C92.3877 36.7977 91.8466 36.3 91.8243 35.6794C91.8036 35.049 92.326 34.5209 92.9994 34.4904C93.7339 34.457 94.6006 34.5236 95.509 34.7596C98.2617 35.4747 99.0906 37.224 98.6094 38.8436C98.1703 40.3265 96.8998 41.0477 95.8647 41.6613C94.1223 42.6972 94.1237 43.8522 93.9745 44.1755L91.2008 43.4553Z" fill="#C5C6C6"/>
</svg>
