<svg width="124" height="79" viewBox="0 0 124 79" fill="none" xmlns="http://www.w3.org/2000/svg">
<path d="M93.4466 61.9964L123.652 19.4796L109.891 21.3408L103.354 8.90302L81.8843 55.5683L93.4466 61.9964Z" fill="#A7A8A8"/>
<path d="M81.8311 55.6655L83.0094 53.1009L95.0206 59.7785L93.4497 61.9964L81.8311 55.6655Z" fill="black" fill-opacity="0.101961"/>
<path d="M96.2002 48.6041C101.802 39.3682 107.758 30.3508 114.059 21.5822C108.46 30.8198 102.499 39.8336 96.2002 48.6041Z" fill="black" fill-opacity="0.101961"/>
<path d="M94.6274 49.771C99.382 39.6082 104.512 29.6236 110.011 19.8487C105.26 30.0128 100.124 39.9945 94.6274 49.771Z" fill="black" fill-opacity="0.101961"/>
<path d="M90.7622 46.3052C95.945 36.4608 101.494 26.8122 107.403 17.3903C102.223 27.2364 96.6685 36.882 90.7622 46.3052Z" fill="black" fill-opacity="0.101961"/>
<path d="M84.6992 58.1438C89.7803 48.0739 95.231 38.1932 101.045 28.533C95.9673 38.6042 90.5112 48.482 84.6992 58.1438Z" fill="black" fill-opacity="0.101961"/>
<path d="M97.6216 52.529C103.129 42.8551 108.996 33.3892 115.215 24.1619C109.711 33.8373 103.838 43.3001 97.6216 52.529Z" fill="black" fill-opacity="0.101961"/>
<path d="M61.5442 30.3212L6.58105 18.08C6.58105 18.08 19.1817 35.0442 32.754 38.067C50.0108 41.9104 61.5442 30.3212 61.5442 30.3212Z" fill="#9D9E9E"/>
<path d="M61.1653 30.2368L6.20215 17.9955C6.20215 17.9955 18.8028 34.9597 32.3751 37.9826C49.6319 41.826 61.1653 30.2368 61.1653 30.2368Z" fill="black" fill-opacity="0.101961"/>
<path d="M56.8929 20.9177C56.8929 20.9177 65.6537 0.406006 77.3633 0.406006C94.3218 0.406006 98.2801 23.1515 98.2801 23.1515C98.2801 23.1515 109.506 29.5978 109.179 50.3238C108.906 67.5657 93.2167 79.2639 77.3633 78.9955C65.1883 78.7891 47.6912 71.9901 45.0061 54.834C42.3207 37.677 56.8929 20.9177 56.8929 20.9177Z" fill="#9D9E9E"/>
<path d="M85.8138 69.3432C82.663 68.1604 83.369 71.4695 83.9072 72.8533C84.5197 74.4273 85.0176 75.1632 86.0953 75.3249" stroke="#727271" stroke-width="0.5292" stroke-miterlimit="22.9256"/>
<path d="M86.5219 69.3543C89.3944 68.1207 88.7507 71.5711 88.2601 73.0138C87.7018 74.6556 87.2475 75.4224 86.2651 75.5909" stroke="#727271" stroke-width="0.5292" stroke-miterlimit="22.9256"/>
<path d="M89.3048 69.3376C91.6984 68.1813 91.1622 71.416 90.7531 72.7685C90.2881 74.3079 89.9097 75.0268 89.0908 75.1847" stroke="#727271" stroke-width="0.5292" stroke-miterlimit="22.9256"/>
<path d="M66.4324 69.3432C63.2817 68.1604 63.9876 71.4695 64.526 72.8533C65.1381 74.4273 65.6364 75.1632 66.7139 75.3249" stroke="#727271" stroke-width="0.5292" stroke-miterlimit="22.9256"/>
<path d="M68.8805 69.4224C65.7301 68.2392 66.4359 71.5482 66.974 72.9322C67.5863 74.5064 68.0843 75.2419 69.1619 75.4041" stroke="#727271" stroke-width="0.5292" stroke-miterlimit="22.9256"/>
<path d="M69.9238 69.3376C72.3176 68.1813 71.7812 71.416 71.3723 72.7685C70.9071 74.3079 70.5286 75.0268 69.71 75.1847" stroke="#727271" stroke-width="0.5292" stroke-miterlimit="22.9256"/>
<path d="M98.5798 22.7893C98.5798 22.7893 98.789 24.5819 98.5798 37.4113C98.4059 48.0945 84.9597 52.3665 74.8538 52.2005C64.6229 52.0324 55.8077 44.8272 55.984 34.0023C56.0994 26.911 54.7945 25.0597 56.5872 20.9614C58.8079 15.8842 59.6154 15.4781 59.6154 15.4781C60.8268 12.635 62.9806 9.78275 65.8739 6.54233C68.1661 3.97522 70.6183 1.02648 74.9589 0.246839C86.2647 -1.78417 92.9269 9.38562 92.9269 9.38562C92.9269 9.38562 93.9364 10.198 94.744 12.635C96.561 16.0873 96.0073 14.9725 96.9647 17.509C97.9229 20.0475 98.5798 22.7893 98.5798 22.7893Z" fill="white" fill-opacity="0.301961"/>
<path d="M96.5612 17.306C97.3687 20.149 99.7914 24.4139 93.1289 27.2569C87.2743 29.0849 90.852 25.2262 79.1425 25.2262C66.6255 24.617 70.6126 28.0693 63.1934 26.0386C59.3866 24.9965 59.8174 14.8689 59.8174 14.8689L62.24 10.8574C62.24 10.8574 65.7933 7.0174 70.6125 6.94861L86.5199 7.21017C93.0857 7.31827 95.7536 14.4627 96.5612 17.306Z" fill="white" fill-opacity="0.501961"/>
<path d="M84.576 21.1422L79.1009 17.5089L73.7476 21.1422L79.1009 28.6786L84.576 21.1422Z" fill="#727271"/>
<path d="M83.0625 13.041C84.4028 15.0737 87.8869 17.9195 91.1034 13.041" stroke="#898989" stroke-width="1.0583" stroke-miterlimit="22.9256"/>
<path d="M67.4404 13.041C68.7805 15.0737 72.2648 17.9195 75.481 13.041" stroke="#898989" stroke-width="1.0583" stroke-miterlimit="22.9256"/>
<path d="M18.8428 31.24C19.3176 31.0938 19.8006 30.9487 20.2902 30.8151C29.1712 32.4903 38.0971 34.3326 46.505 36.234C37.5716 34.7965 28.1383 33.0943 18.8428 31.24Z" fill="black" fill-opacity="0.101961"/>
<path d="M16.022 26.6978C16.3832 26.5745 16.7445 26.4511 17.1162 26.3203C27.723 28.7542 38.556 31.4627 48.6257 34.2278C38.0951 32.0529 26.8702 29.4502 16.022 26.6978Z" fill="black" fill-opacity="0.101961"/>
<path d="M50.7021 31.5842C50.4717 31.6864 50.2251 31.7845 49.9704 31.8805C37.9121 29.0443 25.3868 25.7778 13.8672 22.4557C25.7694 25.0914 38.5682 28.2566 50.7021 31.5842Z" fill="black" fill-opacity="0.101961"/>
<path d="M98.6132 23.3662L110.515 52.8544L98.4927 71.7162C98.4927 71.7162 115.775 69.3028 117.906 55.4852C120.616 37.9171 98.6132 23.3662 98.6132 23.3662Z" fill="#898989"/>
<path d="M98.6401 24.2549L110.514 52.8544L100.863 71.2182C100.863 71.2182 118.366 66.135 118.139 52.1544C117.849 34.3782 98.6401 24.2549 98.6401 24.2549Z" fill="black" fill-opacity="0.101961"/>
<path d="M105.374 67.668C105.566 67.2221 106.416 67.1054 106.6 66.6428C120.795 52.6883 110.783 39.487 102.563 31.371C111.403 39.5224 117.82 56.5916 105.374 67.668Z" fill="black" fill-opacity="0.101961"/>
<path d="M103.17 69.9646C103.34 69.6362 103.509 69.3074 103.687 68.9704C123.651 54.2222 116.496 37.7418 100.355 30.2609C117.422 37.1715 125.831 53.5039 103.17 69.9646Z" fill="black" fill-opacity="0.101961"/>
<path d="M97.4731 23.2596L110.8 52.3174L101.149 70.6812C101.149 70.6812 118.641 66.5322 118.413 52.5517C118.124 34.7753 97.4731 23.2596 97.4731 23.2596Z" fill="#EBECEC" fill-opacity="0.101961"/>
<path d="M11.5808 65.4846H31.4851C32.1589 65.4846 32.7064 65.9079 32.7064 66.4313V72.9536C32.7064 73.4771 32.1589 73.9004 31.4851 73.9004H11.5808C10.9067 73.9004 10.3604 73.4771 10.3604 72.9536V66.4313C10.3604 65.9079 10.9067 65.4846 11.5808 65.4846Z" fill="#898989"/>
<path d="M14.939 66.9415H28.1275C28.4403 66.9415 28.6935 67.1372 28.6935 67.38V70.9441C28.6935 71.1866 28.4403 71.3821 28.1275 71.3821H14.939C14.627 71.3821 14.374 71.1866 14.374 70.9441V67.38C14.374 67.1372 14.627 66.9415 14.939 66.9415Z" fill="#B2B3B3"/>
<path d="M16.7566 66.9415H21.293C21.4001 66.9415 21.4875 67.1372 21.4875 67.38V70.9441C21.4875 71.1866 21.4001 71.3821 21.293 71.3821H16.7566C16.6496 71.3821 16.562 71.1866 16.562 70.9441V67.38C16.562 67.1372 16.6496 66.9415 16.7566 66.9415Z" fill="#C5C6C6"/>
<path d="M15.9076 73.9004H12.5273L14.9022 71.3822C14.9144 71.3822 14.9264 71.3822 14.9386 71.3822H16.7567H18.4323L15.9076 73.9004Z" fill="#9D9E9E"/>
<path d="M16.7568 71.3822H14.9387C14.9265 71.3822 14.9145 71.3822 14.9023 71.3822L16.5622 69.6218V70.9441C16.5622 71.1867 16.6497 71.3822 16.7568 71.3822Z" fill="#C5C6C6"/>
<path d="M22.8881 66.9416H19.0908L20.4647 65.4846H24.3496L22.8881 66.9416Z" fill="#9D9E9E"/>
<path d="M21.4878 68.337V67.38C21.4878 67.1372 21.4003 66.9415 21.2932 66.9415H19.0908H22.8881L21.4878 68.337Z" fill="#C5C6C6"/>
<path d="M18.4323 71.3821H16.7566C16.6496 71.3821 16.562 71.1866 16.562 70.9441V69.6218L19.0906 66.9415H21.293C21.4001 66.9415 21.4875 67.1372 21.4875 67.38V68.337L18.4323 71.3821Z" fill="#C5C6C6"/>
<path d="M20.8731 73.9004H19.1982L21.7294 71.3822H23.3772L20.8731 73.9004ZM27.7965 66.9416H26.1934L27.6577 65.4846H29.245L27.7965 66.9416Z" fill="#9D9E9E"/>
<path d="M23.3763 71.3821H21.7285L26.1925 66.9415H27.7955L23.3763 71.3821Z" fill="#C5C6C6"/>
<path d="M18.2905 27.1428V29.3453H24.2828V26.7943L18.2905 27.1428Z" fill="#898989"/>
<path d="M7.72696 24.4402C7.51666 24.4402 7.29322 24.4056 7.06138 24.3361C6.75702 24.2435 6.58379 23.9204 6.6751 23.6142C6.76616 23.307 7.08755 23.1338 7.39279 23.2256C7.55938 23.2762 7.86186 23.337 8.01829 23.1815C8.17473 23.0261 8.26692 22.5963 8.05562 21.8528C7.69815 20.5942 5.66959 18.4206 2.48959 15.8884C0.568237 14.3584 -0.426883 11.8917 0.174823 10.1517C0.542434 9.08808 1.47481 8.47839 2.73245 8.47839C3.69513 8.47839 4.4286 8.73505 4.9137 9.24242C5.67071 10.0357 5.62299 11.2147 5.58855 12.0744C5.57665 12.3862 5.5635 12.7094 5.59982 12.8741C5.60258 12.8882 5.60621 12.8947 5.60721 12.8965C5.73196 13.0192 6.4767 12.948 7.13302 12.6914C7.42999 12.5744 7.76416 12.7232 7.87952 13.0211C7.99425 13.3198 7.84807 13.6561 7.5511 13.7712C7.28382 13.8759 5.90995 14.3744 5.07665 13.9267C4.76102 13.7571 4.55348 13.4798 4.47519 13.1249C4.40543 12.8132 4.42033 12.449 4.43712 12.0275C4.46693 11.3038 4.49937 10.4823 4.08228 10.0451C3.82351 9.77448 3.36923 9.63765 2.73245 9.63765C1.96278 9.63765 1.46854 9.93828 1.26313 10.532C0.884997 11.6257 1.51989 13.6372 3.2054 14.9793C5.62024 16.9027 8.61511 19.6016 9.16421 21.5343C9.4697 22.6103 9.35047 23.4886 8.82817 24.0067C8.53871 24.2941 8.15983 24.4402 7.72696 24.4402Z" fill="#9D9E9E"/>
<path d="M35.4893 24.4402C35.0564 24.4402 34.6775 24.2941 34.389 24.0067C33.8667 23.4886 33.7477 22.6103 34.0529 21.5343C34.602 19.6016 37.596 16.9027 40.0117 14.9793C41.6967 13.6372 42.3316 11.6257 41.9536 10.532C41.7478 9.93828 41.2536 9.63765 40.4847 9.63765C39.847 9.63765 39.3927 9.77448 39.1348 10.0451C38.7168 10.4823 38.7502 11.3038 38.7791 12.0275C38.7959 12.449 38.8108 12.8132 38.7419 13.1249C38.6638 13.4798 38.4552 13.7571 38.1406 13.9267C37.3066 14.3744 35.9324 13.8759 35.6661 13.7712C35.3693 13.6561 35.222 13.3198 35.3375 13.0211C35.453 12.7232 35.7863 12.5753 36.0831 12.6905C36.7414 12.9461 37.4862 13.0183 37.6109 12.8947C37.6109 12.8947 37.6137 12.8873 37.6164 12.8741C37.6536 12.7094 37.6407 12.3862 37.6277 12.0744C37.5931 11.2147 37.5458 10.0357 38.3034 9.24242C38.7876 8.73505 39.5211 8.47839 40.4847 8.47839C41.7423 8.47839 42.6743 9.08808 43.0421 10.1517C43.6443 11.8917 42.6481 14.3584 40.7268 15.8884C37.5467 18.4206 35.5182 20.5942 35.1606 21.8528C34.9502 22.5963 35.0415 23.0261 35.198 23.1815C35.3544 23.337 35.6579 23.2762 35.8243 23.2256C36.1288 23.1338 36.4501 23.307 36.5422 23.6142C36.6333 23.9204 36.4602 24.2435 36.1559 24.3361C35.923 24.4056 35.6996 24.4402 35.4893 24.4402Z" fill="#9D9E9E"/>
<path d="M6.88086 9.05811H36.3839V16.941H7.1117L6.88086 9.05811Z" fill="#C5C6C6"/>
<path d="M7.11182 16.9409C7.11182 16.9409 9.30146 27.8386 21.4026 27.8386C33.5028 27.8386 36.384 16.9409 36.384 16.9409H7.11182Z" fill="#B2B3B3"/>
<path d="M16.9462 23.8193C13.8416 23.8193 11.3905 23.101 9.45965 22.0343C7.6137 19.4328 7.11182 16.9409 7.11182 16.9409H30.0212C27.9935 20.0463 24.066 23.8193 16.9462 23.8193Z" fill="#C5C6C6"/>
<path d="M18.2902 29.3452C18.2902 29.3452 16.446 29.6927 16.3315 32.2434H26.7031C26.7031 32.2434 26.9339 29.8087 24.2825 29.3452H18.2902Z" fill="#C5C6C6"/>
<path d="M15.1787 32.2434H27.8554C27.8554 32.2434 27.8554 47.0815 23.2452 54.6171H20.0187C20.0187 54.6171 15.4088 47.1975 15.1787 32.2434Z" fill="#C5C6C6"/>
<path d="M16.2046 43.0334C16.2046 43.0324 16.2038 43.0324 16.2038 43.0324L16.2046 43.0334ZM16.1758 42.876C16.1758 42.875 16.1748 42.8742 16.1748 42.8721C16.1748 42.8742 16.1758 42.8742 16.1758 42.876ZM16.1684 42.8366C16.1684 42.8356 16.1684 42.8347 16.1676 42.8328C16.1684 42.8347 16.1684 42.8356 16.1684 42.8366ZM16.1469 42.7187C16.1469 42.7159 16.146 42.7131 16.146 42.7101C16.146 42.7121 16.1469 42.7159 16.1469 42.7187ZM16.1405 42.6813C16.1405 42.6785 16.1395 42.6746 16.1386 42.6718C16.1395 42.6755 16.1405 42.6775 16.1405 42.6813ZM16.1329 42.6399C16.1329 42.6372 16.1329 42.6363 16.132 42.6344C16.1329 42.6363 16.1329 42.6382 16.1329 42.6399ZM16.1256 42.5968C16.1256 42.5941 16.1246 42.5913 16.1246 42.5885C16.1246 42.5913 16.1256 42.5932 16.1256 42.5968ZM16.119 42.5604C16.119 42.5566 16.118 42.5519 16.1171 42.5472C16.118 42.5519 16.119 42.5558 16.119 42.5604ZM16.1125 42.522C16.1116 42.5182 16.1116 42.5136 16.1107 42.5098C16.1116 42.5144 16.1116 42.5172 16.1125 42.522ZM16.1061 42.4836C16.1052 42.4798 16.1052 42.4761 16.1041 42.4725C16.1041 42.4752 16.1052 42.4798 16.1061 42.4836ZM16.0976 42.4368C16.0967 42.433 16.0967 42.4275 16.0958 42.4236C16.0967 42.4275 16.0976 42.433 16.0976 42.4368ZM16.0912 42.4003C16.0912 42.3956 16.0893 42.3889 16.0893 42.3843C16.0903 42.3898 16.0903 42.3946 16.0912 42.4003ZM16.0845 42.3619C16.0845 42.3571 16.0836 42.3524 16.0826 42.3479C16.0836 42.3524 16.0845 42.3571 16.0845 42.3619ZM16.0781 42.3243C16.0781 42.3196 16.0771 42.3141 16.0763 42.3093C16.0771 42.3151 16.0771 42.3188 16.0781 42.3243ZM16.0696 42.2747C16.0687 42.2691 16.0687 42.2646 16.0677 42.2588C16.0687 42.2646 16.0687 42.2701 16.0696 42.2747ZM16.0641 42.2391C16.0632 42.2325 16.0622 42.226 16.0614 42.2205C16.0622 42.2269 16.0632 42.2325 16.0641 42.2391ZM16.0575 42.2019C16.0567 42.1952 16.0558 42.1896 16.0547 42.183C16.0558 42.1896 16.0567 42.1952 16.0575 42.2019ZM16.052 42.1661C16.0492 42.1502 16.0465 42.1344 16.0437 42.1194C16.0465 42.1344 16.0492 42.1502 16.052 42.1661ZM16.0426 42.1137C16.0417 42.1062 16.0407 42.0987 16.0391 42.0912C16.0407 42.0987 16.0417 42.1062 16.0426 42.1137ZM16.0371 42.0772C16.0352 42.0697 16.0343 42.0612 16.0324 42.0537C16.0343 42.0612 16.0352 42.0697 16.0371 42.0772ZM16.0307 42.0417C16.0297 42.0331 16.0288 42.0267 16.0269 42.0182C16.0288 42.0267 16.0297 42.0331 16.0307 42.0417ZM16.0249 42.005C16.0203 41.9788 16.0158 41.9516 16.012 41.9254C16.0158 41.9516 16.0203 41.9788 16.0249 42.005ZM16.01 41.9132C16.0081 41.9058 16.0072 41.8983 16.0064 41.8899C16.0072 41.8973 16.0081 41.9058 16.01 41.9132ZM16.0036 41.8758C16.0026 41.8683 16.0007 41.8608 15.9999 41.8534C16.0007 41.8608 16.0026 41.8683 16.0036 41.8758ZM15.9981 41.8394C15.9932 41.8121 15.9887 41.7861 15.985 41.7589C15.9887 41.7861 15.9932 41.813 15.9981 41.8394ZM15.9832 41.7484C15.9813 41.7401 15.9803 41.7315 15.9794 41.7233C15.9803 41.7315 15.9822 41.7401 15.9832 41.7484ZM15.9766 41.711C15.9756 41.7037 15.9747 41.6951 15.9728 41.6868C15.9747 41.6951 15.9756 41.7027 15.9766 41.711ZM15.9719 41.6773C15.9673 41.6492 15.9627 41.6201 15.9579 41.5922C15.9627 41.6201 15.9673 41.6492 15.9719 41.6773ZM15.956 41.5818C15.9551 41.5733 15.9533 41.565 15.9524 41.5565C15.9543 41.566 15.9551 41.5724 15.956 41.5818ZM15.9505 41.5454C15.9496 41.5369 15.9476 41.5283 15.9467 41.5191C15.9476 41.5274 15.9496 41.5369 15.9505 41.5454ZM15.946 41.5115C15.9412 41.4815 15.9366 41.4517 15.9318 41.4217C15.9366 41.4517 15.9412 41.4815 15.946 41.5115ZM15.93 41.415C15.929 41.4058 15.9272 41.3964 15.9263 41.3869C15.9272 41.3964 15.929 41.4058 15.93 41.415ZM15.9253 41.3795C15.9235 41.37 15.9217 41.3598 15.9207 41.3504C15.9217 41.3609 15.9235 41.37 15.9253 41.3795ZM15.9198 41.3476C15.9151 41.3149 15.9104 41.2821 15.9049 41.2493C15.9104 41.2831 15.9151 41.314 15.9198 41.3476ZM15.9049 41.2485C15.903 41.2371 15.9022 41.2279 15.9003 41.2175C15.9022 41.2279 15.903 41.238 15.9049 41.2485ZM15.8994 41.211C15.8928 41.168 15.8864 41.1239 15.8797 41.0809C15.8864 41.1239 15.8928 41.168 15.8994 41.211ZM15.8787 41.078C15.8779 41.0678 15.876 41.0573 15.8742 41.047C15.876 41.0573 15.8779 41.0678 15.8787 41.078ZM15.8742 41.0423C15.8677 40.9984 15.8611 40.9535 15.8547 40.9085C15.8611 40.9535 15.8677 40.9974 15.8742 41.0423ZM15.8547 40.9085C15.8528 40.8982 15.8509 40.8869 15.8501 40.8766C15.8509 40.8869 15.8528 40.8973 15.8547 40.9085ZM15.8489 40.87C15.8425 40.826 15.8359 40.7812 15.8295 40.7372C15.8359 40.7812 15.8425 40.826 15.8489 40.87ZM15.8295 40.7362C15.8276 40.725 15.8258 40.7136 15.8249 40.7025C15.8258 40.7136 15.8276 40.725 15.8295 40.7362ZM15.8239 40.7015C15.8164 40.6443 15.8081 40.5874 15.7997 40.5293C15.8081 40.5874 15.8164 40.6435 15.8239 40.7015ZM15.7997 40.5274C15.7932 40.4824 15.7877 40.4356 15.781 40.3897C15.7877 40.4366 15.7932 40.4814 15.7997 40.5274ZM15.781 40.3897C15.7793 40.3775 15.7774 40.3673 15.7764 40.3559C15.7774 40.3673 15.7793 40.3775 15.781 40.3897ZM15.7755 40.3532C15.7699 40.3073 15.7634 40.2614 15.757 40.2155C15.7634 40.2614 15.7699 40.3073 15.7755 40.3532ZM15.757 40.2136C15.756 40.2035 15.754 40.1921 15.7522 40.1808C15.754 40.1921 15.756 40.2035 15.757 40.2136ZM15.7522 40.1771C15.7457 40.1322 15.74 40.0853 15.7336 40.0403C15.74 40.0853 15.7457 40.1322 15.7522 40.1771ZM15.7336 40.0375C15.7317 40.0263 15.7308 40.0151 15.7289 40.0039C15.7308 40.0151 15.7317 40.0253 15.7336 40.0375ZM15.7289 40.002C15.7217 39.944 15.714 39.8851 15.7065 39.826C15.714 39.8851 15.7217 39.944 15.7289 40.002ZM15.7056 39.825C15.7001 39.7783 15.6946 39.7314 15.688 39.6836C15.6946 39.7314 15.7001 39.7783 15.7056 39.825ZM15.688 39.6827C15.687 39.6714 15.6852 39.6593 15.6833 39.6481C15.6852 39.6593 15.6861 39.6705 15.688 39.6827ZM15.6833 39.6462C15.6778 39.5994 15.6721 39.5526 15.6657 39.5057C15.6721 39.5526 15.6778 39.5994 15.6833 39.6462ZM15.6657 39.503C15.6648 39.4916 15.6629 39.4804 15.6619 39.4693C15.6629 39.4804 15.6648 39.4916 15.6657 39.503ZM15.661 39.4644C15.6554 39.4178 15.6499 39.3717 15.6444 39.3258C15.6499 39.3717 15.6554 39.4185 15.661 39.4644ZM15.6444 39.3223C15.6423 39.3109 15.6414 39.2997 15.6395 39.2884C15.6414 39.2987 15.6423 39.3109 15.6444 39.3223ZM15.6395 39.2847C15.634 39.2379 15.6285 39.192 15.6229 39.1451C15.6285 39.192 15.634 39.2379 15.6395 39.2847ZM15.6229 39.1396C15.621 39.1291 15.62 39.1181 15.6182 39.1068C15.62 39.1181 15.621 39.1291 15.6229 39.1396ZM15.6182 39.1019C15.6125 39.0562 15.6069 39.0094 15.6024 38.9634C15.6069 39.0094 15.6125 39.0562 15.6182 39.1019ZM15.6014 38.9559C15.6006 38.9457 15.5987 38.9354 15.5975 38.9252C15.5987 38.9354 15.6006 38.9457 15.6014 38.9559ZM15.5967 38.9176C15.593 38.883 15.5893 38.8484 15.5856 38.8138C15.5893 38.8484 15.593 38.884 15.5967 38.9176ZM15.5847 38.8118C15.5838 38.8016 15.5829 38.7902 15.5819 38.78C15.5829 38.7902 15.5838 38.8016 15.5847 38.8118ZM15.5809 38.7724C15.579 38.7622 15.5781 38.7519 15.5771 38.7406C15.5781 38.7519 15.579 38.7622 15.5809 38.7724ZM15.5763 38.7341C15.5725 38.6994 15.5689 38.6638 15.5652 38.6283C15.5689 38.6638 15.5725 38.6994 15.5763 38.7341ZM15.5652 38.6273C15.5641 38.6179 15.5622 38.6068 15.5614 38.5973C15.5622 38.6068 15.5641 38.6179 15.5652 38.6273ZM15.5605 38.5861C15.5595 38.5768 15.5586 38.5664 15.5567 38.5561C15.5586 38.5664 15.5595 38.5768 15.5605 38.5861ZM15.5567 38.5487C15.5531 38.514 15.5485 38.4785 15.5446 38.443C15.5493 38.4785 15.5531 38.5131 15.5567 38.5487ZM15.5446 38.4418C15.5437 38.4316 15.5427 38.4203 15.5418 38.41C15.5427 38.4203 15.5437 38.4316 15.5446 38.4418ZM15.5409 38.4016C15.5399 38.3913 15.5391 38.3811 15.5372 38.3708C15.5391 38.382 15.5399 38.3904 15.5409 38.4016ZM15.5362 38.3605C15.5327 38.3258 15.5297 38.292 15.526 38.2564C15.5297 38.292 15.5327 38.3258 15.5362 38.3605ZM15.526 38.2556C15.5242 38.2453 15.5233 38.234 15.5223 38.2238C15.5233 38.234 15.5242 38.2453 15.526 38.2556ZM15.5214 38.2134C15.5205 38.204 15.5194 38.1938 15.5185 38.1843C15.5194 38.1938 15.5205 38.204 15.5214 38.2134ZM15.5178 38.1731C15.5139 38.1393 15.5101 38.1057 15.5074 38.0719C15.5101 38.1057 15.5139 38.1393 15.5178 38.1731ZM15.5065 38.0664C15.5056 38.0561 15.5046 38.0468 15.5037 38.0364C15.5046 38.0468 15.5056 38.0569 15.5065 38.0664ZM15.5026 38.0261C15.5017 38.0157 15.5007 38.0055 15.4999 37.9961C15.5007 38.0064 15.5017 38.0157 15.5026 38.0261ZM15.498 37.985C15.4952 37.9512 15.4916 37.9176 15.4888 37.8846C15.4916 37.9185 15.4952 37.9512 15.498 37.985ZM15.488 37.8782C15.487 37.8678 15.4858 37.8567 15.485 37.8463C15.4858 37.8567 15.487 37.8678 15.488 37.8782ZM15.4841 37.8368C15.4831 37.8266 15.4822 37.8163 15.4813 37.8051C15.4822 37.8154 15.4831 37.8266 15.4841 37.8368ZM15.4803 37.7976C15.4776 37.7639 15.4739 37.7302 15.4712 37.6963C15.4739 37.7311 15.4776 37.7639 15.4803 37.7976ZM15.4703 37.6872C15.4692 37.6777 15.4682 37.6675 15.4673 37.6572C15.4682 37.6666 15.4692 37.6777 15.4703 37.6872ZM15.4664 37.6458C15.4654 37.6366 15.4645 37.6262 15.4637 37.617C15.4645 37.6262 15.4654 37.6366 15.4664 37.6458ZM15.4627 37.6039C15.459 37.5711 15.4563 37.5382 15.4533 37.5055C15.4563 37.5382 15.459 37.572 15.4627 37.6039ZM15.4524 37.496C15.4515 37.4867 15.4505 37.4783 15.4496 37.4688C15.4505 37.4774 15.4515 37.4876 15.4524 37.496ZM15.4488 37.4529C15.4478 37.4437 15.4469 37.4343 15.446 37.426C15.4469 37.4343 15.4478 37.4437 15.4488 37.4529ZM15.445 37.411C15.4441 37.4015 15.4432 37.393 15.4422 37.3838C15.4432 37.393 15.4441 37.4015 15.445 37.411ZM15.4414 37.3752C15.4395 37.3567 15.4386 37.3378 15.4366 37.3191C15.4386 37.3388 15.4395 37.3567 15.4414 37.3752ZM15.4347 37.3022C15.4347 37.2948 15.4338 37.2853 15.4328 37.278C15.4338 37.2853 15.4347 37.2948 15.4347 37.3022ZM15.4311 37.2591C15.4311 37.2517 15.4301 37.2423 15.4292 37.2348C15.4301 37.2431 15.4301 37.2508 15.4311 37.2591ZM15.4273 37.215C15.4265 37.2076 15.4265 37.1993 15.4256 37.1909C15.4265 37.1993 15.4265 37.2076 15.4273 37.215ZM15.4246 37.1776C15.4227 37.1609 15.4218 37.1449 15.4198 37.1271C15.4218 37.144 15.4227 37.1609 15.4246 37.1776ZM15.4179 37.1084C15.4179 37.1008 15.4171 37.0935 15.4162 37.0849C15.4171 37.0935 15.4179 37.1008 15.4179 37.1084ZM15.4152 37.0652C15.4143 37.0577 15.4134 37.0485 15.4124 37.0409C15.4134 37.0485 15.4143 37.0577 15.4152 37.0652ZM15.4116 37.0213C15.4105 37.0138 15.4097 37.0053 15.4088 36.998C15.4097 37.0063 15.4105 37.0138 15.4116 37.0213ZM15.4068 36.9661C15.4058 36.9558 15.4049 36.9453 15.4042 36.9352C15.4049 36.9453 15.4058 36.9558 15.4068 36.9661ZM15.4022 36.9147C15.4013 36.9061 15.4013 36.8987 15.4003 36.8901C15.4013 36.8987 15.4013 36.9061 15.4022 36.9147ZM15.3985 36.8706C15.3985 36.8631 15.3975 36.8546 15.3966 36.8473C15.3975 36.8546 15.3985 36.8631 15.3985 36.8706ZM15.3948 36.8246C15.3948 36.8182 15.3939 36.8096 15.393 36.8032C15.3939 36.8106 15.3948 36.8182 15.3948 36.8246ZM15.39 36.7628C15.3891 36.7563 15.3891 36.7487 15.3881 36.7413C15.3891 36.7487 15.3891 36.7554 15.39 36.7628ZM15.3864 36.7179C15.3864 36.7104 15.3854 36.7038 15.3845 36.6963C15.3854 36.7038 15.3864 36.7113 15.3864 36.7179ZM15.3826 36.6739C15.3826 36.6664 15.3817 36.6589 15.3817 36.6513C15.3817 36.6589 15.3826 36.6664 15.3826 36.6739ZM15.3799 36.6272C15.379 36.6205 15.3781 36.6139 15.3781 36.6073C15.3781 36.6139 15.379 36.6205 15.3799 36.6272ZM15.3751 36.5708C15.3742 36.5625 15.3732 36.5539 15.3732 36.5456C15.3742 36.555 15.3742 36.5616 15.3751 36.5708ZM15.3715 36.5212C15.3705 36.5148 15.3705 36.5071 15.3696 36.5007C15.3705 36.5071 15.3705 36.5148 15.3715 36.5212ZM15.3677 36.4762C15.3677 36.4688 15.3668 36.4622 15.366 36.4557C15.3668 36.4622 15.3677 36.4698 15.3677 36.4762ZM15.3641 36.4276C15.3641 36.422 15.3631 36.4165 15.3631 36.4107C15.3631 36.4165 15.3641 36.422 15.3641 36.4276ZM15.3595 36.3685C15.3595 36.363 15.3594 36.3565 15.3583 36.3507C15.3594 36.3565 15.3595 36.3621 15.3595 36.3685ZM15.3566 36.3228C15.3556 36.3161 15.3556 36.3105 15.3547 36.3031C15.3556 36.3105 15.3556 36.3161 15.3566 36.3228ZM15.3528 36.2788C15.3528 36.2711 15.3519 36.2638 15.3519 36.2571C15.3519 36.2638 15.3528 36.2711 15.3528 36.2788ZM15.3501 36.23C15.3492 36.2245 15.3492 36.2187 15.3482 36.2132C15.3492 36.2187 15.3492 36.2245 15.3501 36.23ZM15.3454 36.1692C15.3454 36.1645 15.3445 36.1597 15.3445 36.1542C15.3445 36.1587 15.3454 36.1645 15.3454 36.1692ZM15.3427 36.1232C15.3417 36.1176 15.3417 36.1121 15.3407 36.1054C15.3417 36.111 15.3417 36.1176 15.3427 36.1232ZM15.3388 36.0773C15.3388 36.0718 15.3379 36.066 15.3379 36.0604C15.3379 36.066 15.3388 36.0718 15.3388 36.0773ZM15.3351 36.0249C15.3351 36.0221 15.3351 36.0175 15.3351 36.0146C15.3351 36.0175 15.3351 36.0221 15.3351 36.0249ZM15.3315 35.9687C15.3315 35.9649 15.3315 35.9613 15.3305 35.9575C15.3315 35.9613 15.3315 35.9649 15.3315 35.9687ZM15.3288 35.9239C15.3288 35.9181 15.3278 35.9125 15.3278 35.907C15.3278 35.9135 15.3288 35.9172 15.3288 35.9239ZM15.326 35.8761C15.3249 35.8703 15.3249 35.8657 15.324 35.8601C15.3249 35.8657 15.3249 35.8703 15.326 35.8761ZM15.3221 35.8235C15.3221 35.8198 15.3211 35.8179 15.3211 35.8143C15.3211 35.8179 15.3221 35.8198 15.3221 35.8235ZM15.3184 35.7684C15.3184 35.7646 15.3175 35.761 15.3175 35.757C15.3175 35.7617 15.3184 35.7646 15.3184 35.7684ZM15.3156 35.7215C15.3147 35.7169 15.3147 35.7121 15.3147 35.7074C15.3147 35.7121 15.3147 35.7169 15.3156 35.7215ZM15.3117 35.6738C15.3117 35.6691 15.3117 35.6645 15.3108 35.6597C15.3117 35.6635 15.3117 35.6701 15.3117 35.6738ZM15.3092 35.6205C15.3092 35.6174 15.3092 35.6157 15.3081 35.6128C15.3092 35.6157 15.3092 35.6174 15.3092 35.6205ZM15.3053 35.566C15.3053 35.5633 15.3053 35.5595 15.3053 35.5556C15.3053 35.5595 15.3053 35.5633 15.3053 35.566ZM15.3026 35.5192C15.3026 35.5145 15.3026 35.51 15.3017 35.5051C15.3017 35.51 15.3026 35.5155 15.3026 35.5192ZM15.2998 35.4714C15.2998 35.4668 15.299 35.4621 15.299 35.4576C15.299 35.4621 15.2998 35.4668 15.2998 35.4714ZM15.2968 35.4181C15.2959 35.4154 15.2959 35.4135 15.2959 35.4106C15.2959 35.4135 15.2959 35.4154 15.2968 35.4181ZM15.2934 35.3638C15.2934 35.359 15.2934 35.3563 15.2923 35.3526C15.2934 35.3563 15.2934 35.359 15.2934 35.3638ZM15.2904 35.3171C15.2904 35.3113 15.2904 35.3066 15.2896 35.3011C15.2896 35.3057 15.2904 35.3113 15.2904 35.3171ZM15.2877 35.2693C15.2877 35.2644 15.2877 35.2589 15.2868 35.2544C15.2877 35.2589 15.2877 35.2635 15.2877 35.2693ZM15.2849 35.213C15.2849 35.2102 15.2849 35.2092 15.284 35.2075C15.2849 35.2092 15.2849 35.2111 15.2849 35.213ZM15.2822 35.1597C15.2813 35.1559 15.2813 35.153 15.2813 35.1493C15.2813 35.153 15.2813 35.1559 15.2822 35.1597ZM15.2792 35.1129C15.2783 35.1081 15.2783 35.1025 15.2783 35.0979C15.2783 35.1025 15.2783 35.1081 15.2792 35.1129ZM15.2764 35.0642C15.2764 35.0584 15.2755 35.0548 15.2755 35.0492C15.2755 35.0548 15.2764 35.0595 15.2764 35.0642ZM15.2737 35.0108C15.2737 35.0079 15.2728 35.0051 15.2728 35.0024C15.2728 35.0051 15.2737 35.0079 15.2737 35.0108ZM15.2709 34.9555C15.27 34.9508 15.27 34.946 15.27 34.9414C15.27 34.946 15.27 34.9508 15.2709 34.9555ZM15.2681 34.9069C15.2681 34.9022 15.2673 34.8975 15.2673 34.8927C15.2673 34.8984 15.2681 34.9022 15.2681 34.9069ZM15.2654 34.8572C15.2654 34.8525 15.2654 34.8497 15.2645 34.845C15.2654 34.8487 15.2654 34.8535 15.2654 34.8572ZM15.2625 34.799C15.2625 34.799 15.2625 34.7981 15.2625 34.7972C15.2625 34.7981 15.2625 34.7981 15.2625 34.799ZM15.2597 34.7476C15.2597 34.7448 15.2597 34.7429 15.2597 34.7402C15.2597 34.7429 15.2597 34.7457 15.2597 34.7476ZM15.2579 34.6998C15.257 34.6962 15.257 34.6913 15.257 34.6867C15.257 34.6913 15.257 34.6962 15.2579 34.6998ZM15.2551 34.6512C15.2551 34.6474 15.2551 34.6418 15.2542 34.638C15.2551 34.6427 15.2551 34.6465 15.2551 34.6512ZM15.2524 34.595C15.2524 34.5941 15.2524 34.5912 15.2524 34.5902C15.2524 34.5921 15.2524 34.593 15.2524 34.595ZM15.2496 34.5406C15.2496 34.5388 15.2496 34.5351 15.2496 34.5323C15.2496 34.5351 15.2496 34.5388 15.2496 34.5406ZM15.2477 34.4928C15.2477 34.4883 15.2466 34.4845 15.2466 34.4797C15.2466 34.4836 15.2477 34.4883 15.2477 34.4928ZM15.2448 34.4423C15.2448 34.4387 15.2448 34.4347 15.2448 34.4311C15.2448 34.4339 15.2448 34.4395 15.2448 34.4423ZM15.2402 34.3327C15.2402 34.3299 15.2402 34.3272 15.2402 34.3243C15.2402 34.3272 15.2402 34.3299 15.2402 34.3327ZM15.2383 34.2841C15.2383 34.2804 15.2375 34.2758 15.2375 34.271C15.2375 34.2758 15.2383 34.2804 15.2383 34.2841ZM15.2356 34.2335C15.2356 34.2299 15.2356 34.226 15.2356 34.2222C15.2356 34.226 15.2356 34.2299 15.2356 34.2335ZM15.2319 34.123C15.2311 34.1212 15.2311 34.1175 15.2311 34.1154C15.2311 34.1184 15.2311 34.1212 15.2319 34.123ZM15.2289 34.0734C15.2289 34.0698 15.2289 34.0667 15.2289 34.0631C15.2289 34.0667 15.2289 34.0698 15.2289 34.0734ZM15.2272 34.0218C15.2272 34.019 15.2272 34.0162 15.2272 34.0134C15.2272 34.0153 15.2272 34.0199 15.2272 34.0218ZM15.2234 33.9124C15.2225 33.9105 15.2225 33.9085 15.2225 33.9075C15.2225 33.9085 15.2234 33.9114 15.2234 33.9124ZM15.2217 33.8627C15.2207 33.8588 15.2207 33.8561 15.2207 33.8533C15.2207 33.8561 15.2207 33.8597 15.2217 33.8627ZM15.2187 33.8111C15.2187 33.8083 15.2187 33.8047 15.2187 33.8018C15.2187 33.8047 15.2187 33.8083 15.2187 33.8111ZM15.2152 33.7015C15.2152 33.6987 15.2152 33.6959 15.2152 33.6932C15.2152 33.6959 15.2152 33.6987 15.2152 33.7015ZM15.2132 33.6518C15.2132 33.6482 15.2132 33.6435 15.2132 33.639C15.2132 33.6435 15.2132 33.6482 15.2132 33.6518ZM15.2113 33.6004C15.2113 33.5968 15.2113 33.593 15.2113 33.5901C15.2113 33.593 15.2113 33.5968 15.2113 33.6004ZM15.2076 33.488C15.2076 33.4861 15.2076 33.4844 15.2076 33.4816C15.2076 33.4834 15.2076 33.4861 15.2076 33.488ZM15.2068 33.4394C15.2068 33.4347 15.2068 33.4311 15.2058 33.4272C15.2068 33.432 15.2068 33.4347 15.2068 33.4394ZM15.2049 33.386C15.2049 33.3822 15.2049 33.3803 15.2049 33.3775C15.2049 33.3794 15.2049 33.3831 15.2049 33.386ZM15.201 33.2755C15.201 33.2718 15.201 33.2698 15.201 33.266C15.201 33.2688 15.201 33.2727 15.201 33.2755ZM15.2003 33.225C15.2003 33.2211 15.2003 33.2174 15.1994 33.2138C15.2003 33.2174 15.2003 33.2211 15.2003 33.225ZM15.1984 33.1717C15.1984 33.1688 15.1984 33.166 15.1984 33.1632C15.1984 33.1669 15.1984 33.1688 15.1984 33.1717ZM15.1955 33.0602C15.1955 33.0573 15.1955 33.0545 15.1955 33.0517C15.1955 33.0545 15.1955 33.0582 15.1955 33.0602ZM15.1946 33.0104C15.1936 33.0059 15.1936 33.0021 15.1936 32.9974C15.1936 33.0021 15.1936 33.0059 15.1946 33.0104ZM15.1927 32.959C15.1927 32.9552 15.1927 32.9504 15.1927 32.9459C15.1927 32.9504 15.1927 32.9552 15.1927 32.959ZM15.19 32.8447C15.19 32.842 15.19 32.8402 15.19 32.8363C15.19 32.8391 15.19 32.842 15.19 32.8447ZM15.1891 32.7942C15.1891 32.7905 15.1891 32.7858 15.1891 32.782C15.1891 32.7848 15.1891 32.7905 15.1891 32.7942ZM15.1881 32.7419C15.1881 32.738 15.1872 32.7342 15.1872 32.7306C15.1872 32.7342 15.1881 32.738 15.1881 32.7419ZM15.1852 32.6285C15.1852 32.6246 15.1852 32.621 15.1852 32.6173C15.1852 32.621 15.1852 32.6246 15.1852 32.6285ZM15.1842 32.5787C15.1842 32.5741 15.1842 32.5685 15.1842 32.5638C15.1842 32.5696 15.1842 32.5732 15.1842 32.5787ZM15.1833 32.5254C15.1833 32.5218 15.1833 32.5161 15.1833 32.5122C15.1833 32.5161 15.1833 32.5218 15.1833 32.5254ZM15.1815 32.4122C15.1815 32.4073 15.1806 32.4017 15.1806 32.3972C15.1806 32.4017 15.1806 32.4064 15.1815 32.4122ZM15.1806 32.3607C15.1806 32.355 15.1797 32.3503 15.1797 32.3448C15.1797 32.3503 15.1806 32.355 15.1806 32.3607ZM15.1797 32.3081C15.1797 32.3034 15.1797 32.2988 15.1787 32.294C15.1797 32.2988 15.1797 32.3034 15.1797 32.3081Z" fill="#FFFFFE"/>
<path d="M18.5535 51.495C17.7956 49.5687 16.8889 46.7501 16.2046 43.0333L16.2038 43.0323C16.2019 43.0192 16.199 43.0061 16.1971 42.9929C16.1897 42.9537 16.1822 42.9152 16.1758 42.876C16.1758 42.8741 16.1748 42.8741 16.1748 42.8721C16.1731 42.861 16.1701 42.8487 16.1684 42.8365C16.1684 42.8355 16.1684 42.8346 16.1676 42.8328C16.1627 42.8076 16.1582 42.7814 16.1533 42.755C16.1515 42.7419 16.1497 42.7308 16.1469 42.7186C16.1469 42.7158 16.146 42.7121 16.146 42.71C16.1441 42.7008 16.1423 42.6905 16.1405 42.6812C16.1405 42.6774 16.1395 42.6754 16.1386 42.6717C16.1366 42.6615 16.1348 42.6503 16.1329 42.6399C16.1329 42.6381 16.1329 42.6362 16.132 42.6343C16.1301 42.6212 16.1284 42.609 16.1256 42.5968C16.1256 42.5931 16.1246 42.5912 16.1246 42.5884C16.1229 42.579 16.1207 42.5695 16.119 42.5603C16.119 42.5557 16.118 42.5518 16.1171 42.5471C16.1152 42.5388 16.1143 42.5302 16.1125 42.5219C16.1116 42.5171 16.1116 42.5144 16.1107 42.5097C16.1088 42.5013 16.1079 42.4919 16.1061 42.4835C16.1052 42.4797 16.1041 42.4752 16.1041 42.4724C16.1022 42.4602 16.0994 42.4488 16.0976 42.4367C16.0976 42.433 16.0967 42.4274 16.0958 42.4235C16.0939 42.4152 16.093 42.4087 16.0912 42.4002C16.0903 42.3946 16.0903 42.3897 16.0893 42.3842C16.0873 42.3768 16.0864 42.3692 16.0845 42.3618C16.0845 42.357 16.0836 42.3523 16.0826 42.3478C16.0809 42.3392 16.0799 42.3328 16.0781 42.3242C16.0771 42.3187 16.0771 42.315 16.0763 42.3092C16.0744 42.2982 16.0726 42.2868 16.0696 42.2746C16.0687 42.2701 16.0687 42.2645 16.0677 42.2587C16.066 42.2523 16.065 42.2456 16.0641 42.2391C16.0632 42.2324 16.0622 42.2268 16.0614 42.2204C16.0593 42.2139 16.0584 42.2082 16.0575 42.2018C16.0567 42.1951 16.0558 42.1896 16.0547 42.1829C16.0538 42.1773 16.0528 42.1717 16.052 42.166C16.0492 42.1501 16.0465 42.1344 16.0437 42.1194C16.0437 42.1175 16.0426 42.1155 16.0426 42.1136C16.0417 42.1062 16.0407 42.0986 16.0391 42.0911C16.0379 42.0864 16.0379 42.0817 16.0371 42.0772C16.0352 42.0696 16.0343 42.0612 16.0324 42.0536C16.0324 42.0499 16.0315 42.0453 16.0307 42.0416C16.0297 42.0331 16.0288 42.0267 16.0269 42.0181C16.0258 42.0134 16.0258 42.0095 16.0249 42.005C16.0203 41.9788 16.0158 41.9515 16.012 41.9253C16.0111 41.9216 16.01 41.917 16.01 41.9131C16.0081 41.9057 16.0072 41.8972 16.0064 41.8898C16.0054 41.8851 16.0045 41.8804 16.0036 41.8757C16.0026 41.8683 16.0007 41.8607 15.9999 41.8533C15.999 41.8487 15.999 41.8438 15.9981 41.8393C15.9932 41.813 15.9887 41.786 15.985 41.7588C15.9841 41.755 15.9832 41.7511 15.9832 41.7483C15.9822 41.74 15.9803 41.7314 15.9794 41.7233C15.9786 41.7195 15.9776 41.7147 15.9766 41.7109C15.9756 41.7026 15.9747 41.695 15.9728 41.6867C15.9728 41.6837 15.9719 41.68 15.9719 41.6773C15.9673 41.6492 15.9627 41.6201 15.9579 41.5921C15.9579 41.5882 15.957 41.5854 15.956 41.5818C15.9551 41.5723 15.9543 41.5659 15.9524 41.5564C15.9524 41.5527 15.9515 41.549 15.9505 41.5453C15.9496 41.5368 15.9476 41.5273 15.9467 41.519C15.946 41.5171 15.946 41.5144 15.946 41.5115C15.9412 41.4815 15.9366 41.4516 15.9318 41.4216C15.9308 41.4197 15.9308 41.417 15.93 41.4149C15.929 41.4057 15.9272 41.3963 15.9263 41.3868C15.9253 41.3842 15.9253 41.3822 15.9253 41.3794C15.9235 41.37 15.9217 41.3608 15.9207 41.3503C15.9207 41.3494 15.9198 41.3485 15.9198 41.3475C15.9151 41.3139 15.9104 41.283 15.9049 41.2493V41.2484C15.903 41.2379 15.9022 41.2278 15.9003 41.2174C15.9003 41.2156 15.8994 41.2129 15.8994 41.211C15.8928 41.1679 15.8864 41.1238 15.8797 41.0808C15.8797 41.0797 15.8797 41.0788 15.8787 41.0779C15.8779 41.0677 15.876 41.0573 15.8742 41.0469C15.8742 41.0452 15.8742 41.0441 15.8742 41.0423C15.8677 40.9973 15.8611 40.9534 15.8547 40.9085C15.8528 40.8972 15.8509 40.8868 15.8501 40.8766C15.8489 40.8738 15.8489 40.8728 15.8489 40.8699C15.8425 40.8259 15.8359 40.7811 15.8295 40.7371V40.7361C15.8276 40.7249 15.8258 40.7136 15.8249 40.7025L15.8239 40.7015C15.8164 40.6434 15.8081 40.5873 15.7997 40.5292C15.7997 40.5282 15.7997 40.5282 15.7997 40.5273C15.7932 40.4813 15.7877 40.4365 15.781 40.3896C15.7793 40.3774 15.7774 40.3672 15.7764 40.3558C15.7764 40.355 15.7755 40.3541 15.7755 40.3531C15.7699 40.3072 15.7634 40.2614 15.757 40.2154C15.757 40.2154 15.757 40.2145 15.757 40.2135C15.756 40.2034 15.754 40.1921 15.7522 40.1807C15.7522 40.179 15.7522 40.179 15.7522 40.1771C15.7457 40.1321 15.74 40.0852 15.7336 40.0402C15.7336 40.0394 15.7336 40.0383 15.7336 40.0375C15.7317 40.0252 15.7308 40.015 15.7289 40.0038C15.7289 40.0028 15.7289 40.0028 15.7289 40.0019C15.7217 39.944 15.714 39.885 15.7065 39.8259L15.7056 39.8249C15.7001 39.7782 15.6946 39.7313 15.688 39.6835V39.6827C15.6861 39.6704 15.6852 39.6592 15.6833 39.648C15.6833 39.6471 15.6833 39.6472 15.6833 39.6461C15.6778 39.5993 15.6721 39.5525 15.6657 39.5057C15.6657 39.5048 15.6657 39.5038 15.6657 39.5029C15.6648 39.4915 15.6629 39.4803 15.6619 39.4692C15.6619 39.4673 15.661 39.4662 15.661 39.4643C15.6554 39.4185 15.6499 39.3716 15.6444 39.3257C15.6444 39.3241 15.6444 39.3231 15.6444 39.3222C15.6423 39.3109 15.6414 39.2986 15.6395 39.2883C15.6395 39.2874 15.6395 39.2855 15.6395 39.2847C15.634 39.2378 15.6285 39.1919 15.6229 39.145C15.6229 39.1432 15.6229 39.1413 15.6229 39.1395C15.621 39.1291 15.62 39.118 15.6182 39.1068C15.6182 39.1049 15.6182 39.104 15.6182 39.1018C15.6125 39.0561 15.6069 39.0094 15.6024 38.9634C15.6014 38.9606 15.6014 38.9588 15.6014 38.9558C15.6006 38.9456 15.5987 38.9353 15.5975 38.9251C15.5975 38.9231 15.5967 38.9194 15.5967 38.9175C15.593 38.8839 15.5893 38.8484 15.5856 38.8137C15.5856 38.8137 15.5857 38.8127 15.5847 38.8117C15.5838 38.8015 15.5829 38.7901 15.5819 38.7799C15.5809 38.777 15.5809 38.7751 15.5809 38.7724C15.579 38.7622 15.5781 38.7518 15.5771 38.7405C15.5771 38.7387 15.5763 38.736 15.5763 38.7341C15.5725 38.6993 15.5689 38.6638 15.5652 38.6282C15.5652 38.6272 15.5652 38.6282 15.5652 38.6272C15.5641 38.6178 15.5622 38.6067 15.5614 38.5972C15.5614 38.5936 15.5605 38.5898 15.5605 38.586C15.5595 38.5767 15.5586 38.5664 15.5567 38.556C15.5567 38.5533 15.5567 38.5514 15.5567 38.5486C15.5531 38.5131 15.5493 38.4784 15.5446 38.4429C15.5446 38.4418 15.5446 38.4429 15.5446 38.4418C15.5437 38.4315 15.5427 38.4202 15.5418 38.4099C15.5409 38.4071 15.5409 38.4043 15.5409 38.4016C15.5399 38.3904 15.5391 38.3819 15.5372 38.3707C15.5372 38.3677 15.5372 38.3642 15.5362 38.3604C15.5327 38.3257 15.5297 38.292 15.526 38.2563V38.2555C15.5242 38.2452 15.5233 38.2339 15.5223 38.2237C15.5223 38.2208 15.5214 38.217 15.5214 38.2133C15.5205 38.2039 15.5194 38.1937 15.5185 38.1842C15.5178 38.1806 15.5178 38.1768 15.5178 38.173C15.5139 38.1392 15.5101 38.1056 15.5074 38.0718C15.5074 38.0701 15.5065 38.0691 15.5065 38.0663C15.5056 38.0569 15.5046 38.0468 15.5037 38.0363C15.5037 38.0327 15.5026 38.029 15.5026 38.026C15.5017 38.0156 15.5007 38.0063 15.4999 37.996C15.499 37.9923 15.499 37.9886 15.498 37.9849C15.4952 37.9511 15.4916 37.9184 15.4888 37.8845C15.4888 37.8819 15.4888 37.88 15.488 37.8781C15.487 37.8677 15.4858 37.8566 15.485 37.8462C15.485 37.8434 15.4841 37.8398 15.4841 37.8367C15.4831 37.8265 15.4822 37.8153 15.4813 37.805C15.4813 37.8031 15.4803 37.8003 15.4803 37.7976C15.4776 37.7638 15.4739 37.731 15.4712 37.6963C15.4703 37.6935 15.4703 37.6898 15.4703 37.6871C15.4692 37.6776 15.4682 37.6665 15.4673 37.6571C15.4664 37.6533 15.4664 37.6496 15.4664 37.6457C15.4654 37.6365 15.4645 37.6261 15.4637 37.6169C15.4627 37.6121 15.4627 37.6083 15.4627 37.6038C15.459 37.5719 15.4563 37.5381 15.4533 37.5054C15.4524 37.5026 15.4524 37.4997 15.4524 37.4959C15.4515 37.4875 15.4505 37.4773 15.4496 37.4687C15.4496 37.4632 15.4488 37.4576 15.4488 37.4529C15.4478 37.4437 15.4469 37.4342 15.446 37.4259C15.446 37.4201 15.445 37.4154 15.445 37.4109C15.4441 37.4014 15.4432 37.3929 15.4422 37.3837C15.4422 37.3809 15.4422 37.3781 15.4414 37.3751C15.4395 37.3566 15.4386 37.3387 15.4366 37.319C15.4356 37.3135 15.4356 37.3077 15.4347 37.3022C15.4347 37.2947 15.4338 37.2853 15.4328 37.278C15.432 37.2713 15.432 37.2657 15.4311 37.2591C15.4301 37.2507 15.4301 37.2431 15.4292 37.2348C15.4283 37.2281 15.4283 37.2216 15.4273 37.215C15.4265 37.2075 15.4265 37.1992 15.4256 37.1908C15.4256 37.187 15.4246 37.1825 15.4246 37.1775C15.4227 37.1608 15.4218 37.1439 15.4198 37.127C15.4198 37.1215 15.4189 37.1148 15.4179 37.1084C15.4179 37.1007 15.4171 37.0934 15.4162 37.0848C15.4162 37.0784 15.4152 37.0718 15.4152 37.0652C15.4143 37.0576 15.4134 37.0484 15.4124 37.0408C15.4124 37.0334 15.4116 37.0279 15.4116 37.0212C15.4105 37.0137 15.4097 37.0062 15.4088 36.9979C15.4077 36.9874 15.4077 36.9773 15.4068 36.966C15.4058 36.9557 15.4049 36.9452 15.4042 36.9351C15.403 36.9284 15.403 36.921 15.4022 36.9146C15.4013 36.906 15.4013 36.8986 15.4003 36.89C15.3994 36.8836 15.3994 36.8769 15.3985 36.8705C15.3985 36.8631 15.3975 36.8545 15.3966 36.8472C15.3966 36.8395 15.3956 36.8319 15.3948 36.8245C15.3948 36.8181 15.3939 36.8105 15.393 36.8031C15.392 36.789 15.3909 36.7759 15.39 36.7628C15.3891 36.7553 15.3891 36.7487 15.3881 36.7412C15.3873 36.7337 15.3873 36.7262 15.3864 36.7178C15.3864 36.7112 15.3854 36.7037 15.3845 36.6963C15.3845 36.6888 15.3836 36.6813 15.3826 36.6738C15.3826 36.6663 15.3817 36.6588 15.3817 36.6513C15.3807 36.643 15.3799 36.6354 15.3799 36.6271C15.379 36.6204 15.3781 36.6139 15.3781 36.6072C15.3771 36.5952 15.3762 36.583 15.3751 36.5708C15.3742 36.5616 15.3742 36.5549 15.3732 36.5456C15.3723 36.5371 15.3715 36.5287 15.3715 36.5211C15.3705 36.5147 15.3705 36.507 15.3696 36.5006C15.3687 36.492 15.3687 36.4838 15.3677 36.4761C15.3677 36.4697 15.3668 36.4622 15.366 36.4556C15.366 36.4462 15.365 36.437 15.3641 36.4275C15.3641 36.422 15.3631 36.4164 15.3631 36.4106C15.3622 36.3965 15.3613 36.3825 15.3595 36.3684C15.3595 36.362 15.3594 36.3565 15.3583 36.3507C15.3574 36.3415 15.3574 36.332 15.3566 36.3227C15.3556 36.316 15.3556 36.3105 15.3547 36.303C15.3547 36.2955 15.3537 36.2863 15.3528 36.2787C15.3528 36.271 15.3519 36.2637 15.3519 36.2571C15.3511 36.2477 15.3501 36.2383 15.3501 36.23C15.3492 36.2244 15.3492 36.2186 15.3482 36.2131C15.3473 36.1981 15.3464 36.1841 15.3454 36.1691C15.3454 36.1644 15.3445 36.1587 15.3445 36.1541C15.3437 36.1437 15.3427 36.1336 15.3427 36.1231C15.3417 36.1176 15.3417 36.1109 15.3407 36.1053C15.3407 36.0961 15.3398 36.0867 15.3388 36.0772C15.3388 36.0717 15.3379 36.0659 15.3379 36.0604C15.337 36.0481 15.3361 36.037 15.3351 36.0248C15.3351 36.0221 15.3351 36.0174 15.3351 36.0145C15.3333 35.9985 15.3324 35.9846 15.3315 35.9686C15.3315 35.9649 15.3315 35.9612 15.3305 35.9574C15.3305 35.9462 15.3296 35.9349 15.3288 35.9238C15.3288 35.9171 15.3278 35.9135 15.3278 35.9069C15.3269 35.8966 15.326 35.8863 15.326 35.876C15.3249 35.8702 15.3249 35.8656 15.324 35.86C15.324 35.848 15.323 35.8356 15.3221 35.8234C15.3221 35.8197 15.3211 35.8178 15.3211 35.8142C15.3202 35.7992 15.3194 35.7833 15.3184 35.7683C15.3184 35.7645 15.3175 35.7616 15.3175 35.757C15.3166 35.7447 15.3166 35.7337 15.3156 35.7215C15.3147 35.7168 15.3147 35.712 15.3147 35.7073C15.3139 35.6961 15.3127 35.685 15.3117 35.6737C15.3117 35.67 15.3117 35.6634 15.3108 35.6596C15.3108 35.6465 15.3101 35.6334 15.3092 35.6204C15.3092 35.6174 15.3092 35.6156 15.3081 35.6127C15.3072 35.5977 15.3062 35.5818 15.3053 35.566C15.3053 35.5632 15.3053 35.5594 15.3053 35.5555C15.3045 35.5435 15.3035 35.5313 15.3026 35.5191C15.3026 35.5155 15.3017 35.5099 15.3017 35.505C15.3007 35.4939 15.3007 35.4826 15.2998 35.4713C15.2998 35.4667 15.299 35.462 15.299 35.4575C15.298 35.4441 15.2968 35.4312 15.2968 35.4181C15.2959 35.4153 15.2959 35.4134 15.2959 35.4105C15.2951 35.3956 15.2942 35.3787 15.2934 35.3638C15.2934 35.359 15.2934 35.3562 15.2923 35.3525C15.2923 35.3403 15.2913 35.3282 15.2904 35.317C15.2904 35.3112 15.2896 35.3057 15.2896 35.301C15.2896 35.2907 15.2886 35.2793 15.2877 35.2693C15.2877 35.2635 15.2877 35.2588 15.2868 35.2543C15.2858 35.2402 15.2858 35.226 15.2849 35.2129C15.2849 35.211 15.2849 35.2092 15.284 35.2074C15.283 35.1914 15.2822 35.1755 15.2822 35.1596C15.2813 35.1559 15.2813 35.153 15.2813 35.1492C15.2802 35.137 15.2792 35.1247 15.2792 35.1128C15.2783 35.108 15.2783 35.1025 15.2783 35.0978C15.2774 35.0865 15.2774 35.0753 15.2764 35.0641C15.2764 35.0595 15.2755 35.0547 15.2755 35.0491C15.2747 35.0359 15.2737 35.0228 15.2737 35.0107C15.2737 35.0078 15.2728 35.0051 15.2728 35.0023C15.2719 34.9864 15.2719 34.9713 15.2709 34.9554C15.27 34.9507 15.27 34.9459 15.27 34.9413C15.2691 34.9302 15.2681 34.918 15.2681 34.9068C15.2681 34.9021 15.2673 34.8983 15.2673 34.8927C15.2664 34.8813 15.2664 34.8683 15.2654 34.8571C15.2654 34.8535 15.2654 34.8486 15.2645 34.8449C15.2645 34.8299 15.2634 34.814 15.2625 34.7989C15.2625 34.798 15.2625 34.798 15.2625 34.7972C15.2615 34.7803 15.2606 34.7644 15.2597 34.7475C15.2597 34.7456 15.2597 34.7429 15.2597 34.7401C15.2587 34.727 15.2579 34.7139 15.2579 34.6998C15.257 34.6961 15.257 34.6912 15.257 34.6867C15.256 34.6753 15.256 34.6632 15.2551 34.6511C15.2551 34.6465 15.2551 34.6426 15.2542 34.6379C15.2542 34.6229 15.2532 34.6089 15.2524 34.595C15.2524 34.5929 15.2524 34.592 15.2524 34.5902C15.2515 34.5733 15.2505 34.5574 15.2496 34.5405C15.2496 34.5388 15.2496 34.535 15.2496 34.5322C15.2487 34.5191 15.2487 34.506 15.2477 34.4928C15.2477 34.4882 15.2466 34.4836 15.2466 34.4797C15.2466 34.4674 15.2457 34.4545 15.2448 34.4422C15.2448 34.4395 15.2448 34.4338 15.2448 34.431C15.243 34.3983 15.2421 34.3655 15.2402 34.3326C15.2402 34.3299 15.2402 34.3271 15.2402 34.3242C15.2393 34.3112 15.2383 34.2971 15.2383 34.284C15.2383 34.2803 15.2375 34.2757 15.2375 34.2709C15.2375 34.2577 15.2366 34.2466 15.2356 34.2335C15.2356 34.2298 15.2356 34.2259 15.2356 34.2221C15.2337 34.1894 15.2328 34.1566 15.2319 34.123C15.2311 34.1211 15.2311 34.1183 15.2311 34.1153C15.2311 34.1014 15.2299 34.0874 15.2289 34.0733C15.2289 34.0697 15.2289 34.0667 15.2289 34.063C15.2281 34.0498 15.2281 34.0348 15.2272 34.0217C15.2272 34.0198 15.2272 34.0153 15.2272 34.0134C15.2253 33.9796 15.2244 33.9459 15.2234 33.9123C15.2234 33.9113 15.2225 33.9084 15.2225 33.9074C15.2225 33.8925 15.2217 33.8768 15.2217 33.8627C15.2207 33.8596 15.2207 33.856 15.2207 33.8532C15.2207 33.8391 15.2198 33.8251 15.2187 33.811C15.2187 33.8082 15.2187 33.8046 15.2187 33.8017C15.2178 33.7689 15.2162 33.7353 15.2152 33.7014C15.2152 33.6986 15.2152 33.6959 15.2152 33.6931C15.214 33.68 15.214 33.665 15.2132 33.6518C15.2132 33.6481 15.2132 33.6434 15.2132 33.6389C15.2123 33.6257 15.2123 33.6134 15.2113 33.6003C15.2113 33.5967 15.2113 33.5929 15.2113 33.59C15.2104 33.5562 15.2095 33.5216 15.2076 33.488C15.2076 33.4861 15.2076 33.4833 15.2076 33.4815C15.2076 33.4674 15.2068 33.4533 15.2068 33.4393C15.2068 33.4347 15.2068 33.4319 15.2058 33.4271C15.2058 33.4141 15.2049 33.3989 15.2049 33.3859C15.2049 33.383 15.2049 33.3794 15.2049 33.3775C15.204 33.3437 15.2019 33.3092 15.201 33.2754C15.201 33.2726 15.201 33.2687 15.201 33.266C15.201 33.2529 15.2003 33.239 15.2003 33.2249C15.2003 33.221 15.2003 33.2173 15.1994 33.2137C15.1994 33.1996 15.1994 33.1855 15.1984 33.1716C15.1984 33.1687 15.1984 33.1668 15.1984 33.1632C15.1974 33.1285 15.1964 33.0947 15.1955 33.0601C15.1955 33.0581 15.1955 33.0544 15.1955 33.0517C15.1946 33.0386 15.1946 33.0235 15.1946 33.0103C15.1936 33.0058 15.1936 33.002 15.1936 32.9973C15.1936 32.9853 15.1936 32.972 15.1927 32.9589C15.1927 32.9551 15.1927 32.9504 15.1927 32.9458C15.1917 32.9129 15.1909 32.8784 15.19 32.8447C15.19 32.8419 15.19 32.839 15.19 32.8362C15.19 32.8221 15.1891 32.8082 15.1891 32.7941C15.1891 32.7905 15.1891 32.7847 15.1891 32.7819C15.1881 32.7679 15.1881 32.7547 15.1881 32.7418C15.1881 32.7379 15.1872 32.7342 15.1872 32.7305C15.1872 32.6967 15.1862 32.6631 15.1852 32.6284C15.1852 32.6245 15.1852 32.6209 15.1852 32.6172C15.1852 32.604 15.1842 32.5909 15.1842 32.5787C15.1842 32.5731 15.1842 32.5695 15.1842 32.5637C15.1833 32.5507 15.1833 32.5385 15.1833 32.5254C15.1833 32.5217 15.1833 32.5161 15.1833 32.5122C15.1825 32.4785 15.1815 32.4458 15.1815 32.4121C15.1806 32.4063 15.1806 32.4016 15.1806 32.3971C15.1806 32.3849 15.1806 32.3727 15.1806 32.3606C15.1806 32.3549 15.1797 32.3502 15.1797 32.3447C15.1797 32.3325 15.1797 32.3203 15.1797 32.308C15.1797 32.3034 15.1797 32.2987 15.1787 32.2939C15.1787 32.2762 15.1787 32.2603 15.1787 32.2434H25.7514C25.5345 36.1148 24.8726 42.8824 22.8571 48.1743C22.1534 50.0228 20.4805 51.2946 18.5535 51.495Z" fill="#B2B3B3"/>
<path d="M20.0186 60.1814H23.1298V54.6171H20.0186V60.1814Z" fill="#9D9E9E"/>
<path d="M23.88 55.5752H19.2923C18.9992 55.5752 18.7627 55.3365 18.7627 55.0423C18.7627 54.7483 18.9992 54.5096 19.2923 54.5096H23.88C24.1722 54.5096 24.4095 54.7483 24.4095 55.0423C24.4095 55.3365 24.1722 55.5752 23.88 55.5752Z" fill="#9D9E9E"/>
<path d="M29.3536 64.7804C28.2009 59.9773 23.1303 60.1805 23.1303 60.1805H20.019C15.4092 60.1805 14.1411 64.577 14.1411 64.577L29.3536 64.7804Z" fill="#B2B3B3"/>
<path d="M23.88 60.6749H19.2923C18.9992 60.6749 18.7627 60.437 18.7627 60.1431C18.7627 59.8489 18.9992 59.6102 19.2923 59.6102H23.88C24.1722 59.6102 24.4095 59.8489 24.4095 60.1431C24.4095 60.437 24.1722 60.6749 23.88 60.6749Z" fill="#9D9E9E"/>
<path d="M29.3533 65.7365H14.1408C13.505 65.7365 12.9893 65.2177 12.9893 64.5771C12.9893 63.9366 13.505 63.418 14.1408 63.418H29.3533C29.99 63.418 30.5056 63.9366 30.5056 64.5771C30.5056 65.2177 29.99 65.7365 29.3533 65.7365Z" fill="#B2B3B3"/>
<path d="M12.9121 16.9409H19.9807V9.05792H12.9121V16.9409Z" fill="#EBECEC"/>
<path d="M29.0464 16.9409H32.8883V9.05792H29.0464V16.9409Z" fill="#EBECEC"/>
<path d="M12.063 16.3408L12.858 14.3208L13.6019 16.369L14.9944 17.1677L13.574 17.9168L12.7789 20.4845L12.0351 17.8885L10.6426 17.089L12.063 16.3408Z" fill="white"/>
<path d="M94.4893 46.2536L100.261 53.2228L101.009 49.5795L104.727 49.3845L98.8948 42.7432L94.4893 46.2536Z" fill="#B2B3B3"/>
<path d="M100.39 52.5953L100.452 52.2923L100.575 52.4383L100.39 52.5953Z" fill="#C5C6C6"/>
<path d="M100.357 52.6226L97.5308 49.2556L97.5098 48.7881L100.452 52.2923L100.39 52.5953L100.357 52.6226Z" fill="#D9DADA"/>
<path d="M103.75 49.5505L103.656 49.4406L103.892 49.4281L103.75 49.5505Z" fill="#EBECEC"/>
<path d="M103.891 49.4282L103.656 49.4406L99.1611 44.1841L99.3767 43.9979L103.965 49.3644L103.891 49.4282Z" fill="#D9DADA"/>
<path d="M91.2539 46.6428L91.8714 55.1311L94.8286 52.4467L97.7624 54.4012L97.3501 45.2207L91.2539 46.6428Z" fill="#C5C6C6"/>
<path d="M92.797 54.3773L92.6909 54.387L92.7898 54.2972L92.797 54.3773ZM92.083 46.4493L91.8037 46.5146L91.7642 46.0726L92.0467 46.0469L92.083 46.4493Z" fill="#FFDD7D"/>
<path d="M92.6914 54.387L92.5146 54.4031L91.8042 46.5145L92.0835 46.4493L92.7903 54.2971L92.6914 54.387Z" fill="#D9DADA"/>
<path d="M97.138 53.9849L96.945 53.998L96.9351 53.8499L97.138 53.9849Z" fill="#C5C6C6"/>
<path d="M96.6551 45.3828L96.375 45.4482L96.3516 45.0968L96.6348 45.0777L96.6551 45.3828Z" fill="#C5C6C6"/>
<path d="M97.2277 53.979L97.1375 53.9849L96.9346 53.8498L96.3745 45.4482L96.6546 45.3828L97.2277 53.979Z" fill="#D9DADA"/>
<path d="M85.3258 43.0618C85.1734 42.7045 85.9151 42.0393 85.8172 41.6746C85.717 41.3006 84.7446 41.0998 84.6995 40.7232C84.6535 40.3401 85.5516 39.9126 85.5607 39.5321C85.5697 39.1474 84.6936 38.6776 84.7566 38.3013C84.8202 37.9226 85.8014 37.7674 85.9173 37.4032C86.033 37.0383 85.3233 36.3394 85.4894 35.9946C85.6553 35.6505 86.6402 35.7781 86.8535 35.46C87.0658 35.1435 86.5792 34.2721 86.8364 33.987C87.0905 33.7053 87.9991 34.1073 88.2952 33.8615C88.5859 33.62 88.3646 32.6457 88.6933 32.4443C89.0144 32.2479 89.773 32.8919 90.1282 32.7387C90.4837 32.5853 90.5429 31.5886 90.9056 31.49C91.2773 31.3893 91.8264 32.2221 92.2006 32.1768C92.5815 32.1306 92.9186 31.1912 93.2967 31.2003C93.6793 31.2095 93.9714 32.1646 94.3456 32.2281C94.7218 32.2919 95.3088 31.4862 95.6709 31.6027C96.0338 31.7192 96.0478 32.7182 96.3905 32.8854C96.7327 33.0522 97.5209 32.4441 97.8374 32.6588C98.1517 32.8723 97.8861 33.8345 98.1695 34.0931C98.4498 34.3488 99.3766 33.9891 99.621 34.2866C99.8608 34.5793 99.3352 35.4262 99.5356 35.7569C99.7308 36.0798 100.721 35.9978 100.873 36.3552C101.026 36.7125 100.284 37.3775 100.382 37.7423C100.482 38.1163 101.454 38.3171 101.5 38.6937C101.545 39.0768 100.648 39.5042 100.639 39.8847C100.629 40.2694 101.505 40.7393 101.443 41.1155C101.379 41.4942 100.398 41.6494 100.282 42.0137C100.166 42.3787 100.876 43.0775 100.71 43.4222C100.544 43.7664 99.5589 43.6388 99.3456 43.9569C99.1333 44.2733 99.6199 45.1447 99.3627 45.4298C99.1086 45.7116 98.1996 45.3096 97.9039 45.5554C97.6133 45.7968 97.8345 46.7712 97.5058 46.9725C97.1847 47.169 96.4261 46.5249 96.0706 46.6783C95.7154 46.8315 95.6563 47.8283 95.2934 47.9269C94.9218 48.0276 94.3727 47.1947 93.9985 47.2401C93.6173 47.2863 93.2805 48.2256 92.9022 48.2166C92.5198 48.2074 92.2278 47.2522 91.8534 47.1888C91.4771 47.125 90.8902 47.9306 90.5278 47.8143C90.165 47.6977 90.1513 46.6987 89.8086 46.5315C89.4665 46.3647 88.6782 46.9727 88.3618 46.7581C88.0473 46.5446 88.3128 45.5823 88.0296 45.3237C87.7493 45.0681 86.8225 45.4278 86.5781 45.1302C86.338 44.8378 86.8638 43.9907 86.6637 43.6598C86.4683 43.3371 85.4782 43.4191 85.3258 43.0618Z" fill="#B2B3B3"/>
<path d="M86.8469 42.4057C85.366 38.9318 86.9648 34.9082 90.4181 33.4186C93.8717 31.9288 97.8716 33.5374 99.3524 37.0112C100.833 40.4849 99.2344 44.5085 95.7809 45.9982C92.3276 47.4878 88.3277 45.8794 86.8469 42.4057Z" fill="#C5C6C6"/>
<path d="M90.4724 33.5461C87.0945 35.0033 85.5249 38.9531 86.9734 42.351C88.4219 45.7489 92.3484 47.328 95.7264 45.8708C99.1043 44.4137 100.674 40.4639 99.2254 37.066C97.7769 33.668 93.8503 32.089 90.4724 33.5461ZM95.835 46.1258C94.1312 46.8607 92.2446 46.8843 90.5229 46.1921C88.8012 45.4999 87.4506 44.1745 86.7199 42.4604C85.9892 40.7463 85.9657 38.8484 86.654 37.1166C87.3424 35.3846 88.6599 34.0262 90.3637 33.2911C92.0678 32.5561 93.9544 32.5325 95.6762 33.2247C97.3977 33.9172 98.7482 35.2424 99.4789 36.9566C100.21 38.6707 100.233 40.5685 99.5451 42.3002C98.8567 44.0321 97.5392 45.3907 95.835 46.1258Z" fill="#B2B3B3"/>
<path d="M88.6208 41.6403C87.5601 39.1522 88.7054 36.2705 91.1786 35.2036C93.6521 34.1366 96.517 35.2886 97.5776 37.7766C98.6383 40.2646 97.493 43.1464 95.0194 44.2134C92.5462 45.2803 89.6813 44.1283 88.6208 41.6403Z" fill="#D9DADA"/>
<path d="M96.0562 36.3197C95.9338 36.0328 95.7865 35.7647 95.6196 35.5148C94.3215 34.7268 92.6784 34.5566 91.1786 35.2036C88.7054 36.2705 87.5601 39.1522 88.6208 41.6403C88.7431 41.9272 88.8903 42.1953 89.0573 42.4452C90.3554 43.2332 91.9985 43.4034 93.4983 42.7565C95.9715 41.6896 97.1168 38.8077 96.0562 36.3197Z" fill="#EBECEC"/>
<path d="M91.2351 35.3347C88.8376 36.3688 87.7235 39.1723 88.7517 41.5839C89.7798 43.9956 92.5667 45.1163 94.964 44.0821C97.3617 43.0478 98.4757 40.2444 97.4476 37.8328C96.4196 35.4211 93.6326 34.3005 91.2351 35.3347ZM95.0759 44.3445C92.5348 45.4407 89.5805 44.2528 88.4908 41.6966C87.401 39.1402 88.582 36.1685 91.1232 35.0723C93.6646 33.9761 96.6189 35.1639 97.7085 37.7202C98.7984 40.2766 97.6174 43.2482 95.0759 44.3445Z" fill="#B2B3B3"/>
<path d="M88.408 37.296L88.3752 36.1232L89.1777 36.9804L90.0384 37.0791L89.4915 37.7549L89.6405 39.1999L88.7217 38.0704L87.8613 37.9717L88.408 37.296Z" fill="white"/>
</svg>
