<svg width="124" height="79" viewBox="0 0 124 79" fill="none" xmlns="http://www.w3.org/2000/svg">
<path d="M93.4461 61.9963L123.652 19.4796L109.891 21.3407L103.354 8.90295L81.8838 55.5683L93.4461 61.9963Z" fill="#009846"/>
<path d="M81.8311 55.6653L83.0094 53.1007L95.0206 59.7783L93.4497 61.9962L81.8311 55.6653Z" fill="black" fill-opacity="0.101961"/>
<path d="M96.2007 48.6041C101.803 39.3682 107.759 30.3508 114.059 21.5822C108.46 30.8198 102.499 39.8336 96.2007 48.6041Z" fill="black" fill-opacity="0.101961"/>
<path d="M94.6274 49.7708C99.382 39.608 104.512 29.6234 110.011 19.8485C105.26 30.0126 100.124 39.9943 94.6274 49.7708Z" fill="black" fill-opacity="0.101961"/>
<path d="M90.7627 46.3053C95.9455 36.4608 101.495 26.8123 107.404 17.3904C102.224 27.2365 96.669 36.882 90.7627 46.3053Z" fill="black" fill-opacity="0.101961"/>
<path d="M84.6992 58.1437C89.7803 48.0739 95.231 38.1931 101.045 28.533C95.9673 38.6041 90.5112 48.4819 84.6992 58.1437Z" fill="black" fill-opacity="0.101961"/>
<path d="M97.6211 52.5289C103.128 42.8551 108.995 33.3892 115.214 24.1619C109.71 33.8372 103.838 43.3001 97.6211 52.5289Z" fill="black" fill-opacity="0.101961"/>
<path d="M61.5443 30.3211L6.58105 18.0798C6.58105 18.0798 19.1817 35.044 32.754 38.0669C50.0109 41.9103 61.5443 30.3211 61.5443 30.3211Z" fill="#009846"/>
<path d="M61.1649 30.2367L6.20166 17.9955C6.20166 17.9955 18.8023 34.9597 32.3746 37.9825C49.6315 41.8259 61.1649 30.2367 61.1649 30.2367Z" fill="black" fill-opacity="0.101961"/>
<path d="M56.8929 20.9178C56.8929 20.9178 65.6537 0.406128 77.3633 0.406128C94.3218 0.406128 98.2802 23.1516 98.2802 23.1516C98.2802 23.1516 109.506 29.598 109.179 50.3239C108.906 67.5658 93.2167 79.264 77.3633 78.9955C65.1883 78.7891 47.6912 71.9902 45.0061 54.8341C42.3207 37.6771 56.8929 20.9178 56.8929 20.9178Z" fill="#009846"/>
<path d="M85.8138 69.3432C82.663 68.1604 83.369 71.4695 83.9072 72.8533C84.5197 74.4273 85.0176 75.1632 86.0952 75.3249" stroke="#263138" stroke-width="0.666755" stroke-miterlimit="22.9256"/>
<path d="M86.5214 69.3544C89.3939 68.1208 88.7502 71.5711 88.2596 73.0139C87.7013 74.6557 87.247 75.4225 86.2646 75.5909" stroke="#263138" stroke-width="0.666755" stroke-miterlimit="22.9256"/>
<path d="M89.3052 69.3374C91.6989 68.181 91.1627 71.4158 90.7536 72.7683C90.2886 74.3077 89.9102 75.0266 89.0913 75.1845" stroke="#263138" stroke-width="0.666755" stroke-miterlimit="22.9256"/>
<path d="M66.4324 69.3432C63.2817 68.1604 63.9876 71.4695 64.526 72.8533C65.1381 74.4273 65.6364 75.1632 66.7139 75.3249" stroke="#263138" stroke-width="0.666755" stroke-miterlimit="22.9256"/>
<path d="M68.8815 69.4225C65.7311 68.2393 66.4369 71.5482 66.9749 72.9323C67.5873 74.5064 68.0853 75.242 69.1628 75.4041" stroke="#263138" stroke-width="0.666755" stroke-miterlimit="22.9256"/>
<path d="M69.9238 69.3374C72.3176 68.181 71.7812 71.4158 71.3723 72.7683C70.9071 74.3077 70.5286 75.0266 69.71 75.1845" stroke="#263138" stroke-width="0.666755" stroke-miterlimit="22.9256"/>
<path d="M98.5799 22.7893C98.5799 22.7893 98.7891 24.5819 98.5799 37.4113C98.4059 48.0945 84.9597 52.3665 74.8538 52.2004C64.6229 52.0324 55.8077 44.8272 55.984 34.0023C56.0994 26.911 54.7944 25.0597 56.5872 20.9614C58.8079 15.8842 59.6154 15.4781 59.6154 15.4781C60.8268 12.635 62.9806 9.78274 65.8739 6.54233C68.1661 3.97522 70.6183 1.02648 74.9589 0.246839C86.2647 -1.78417 92.9269 9.38561 92.9269 9.38561C92.9269 9.38561 93.9364 10.198 94.7441 12.635C96.5611 16.0873 96.0074 14.9725 96.9648 17.509C97.923 20.0475 98.5799 22.7893 98.5799 22.7893Z" fill="white" fill-opacity="0.301961"/>
<path d="M96.5612 17.3059C97.3687 20.1489 99.7915 24.4138 93.129 27.2568C87.2744 29.0847 90.852 25.226 79.1425 25.226C66.6256 24.6169 70.6126 28.0692 63.1934 26.0384C59.3866 24.9964 59.8174 14.8688 59.8174 14.8688L62.24 10.8573C62.24 10.8573 65.7933 7.01728 70.6126 6.94849L86.52 7.21004C93.0858 7.31815 95.7536 14.4626 96.5612 17.3059Z" fill="white" fill-opacity="0.501961"/>
<path d="M84.576 21.1422L79.1009 17.5089L73.7476 21.1422L79.1009 28.6786L84.576 21.1422Z" fill="#263138"/>
<path d="M83.063 13.0408C84.4033 15.0734 87.8874 17.9192 91.1039 13.0408" stroke="black" stroke-width="1.33338" stroke-miterlimit="22.9256"/>
<path d="M67.4404 13.0408C68.7805 15.0734 72.2649 17.9192 75.4811 13.0408" stroke="black" stroke-width="1.33338" stroke-miterlimit="22.9256"/>
<path d="M18.8428 31.24C19.3176 31.0938 19.8006 30.9487 20.2902 30.8151C29.1712 32.4903 38.0971 34.3325 46.505 36.234C37.5716 34.7964 28.1383 33.0943 18.8428 31.24Z" fill="black" fill-opacity="0.101961"/>
<path d="M16.022 26.6978C16.3832 26.5744 16.7445 26.4511 17.1162 26.3203C27.7231 28.7542 38.556 31.4627 48.6257 34.2278C38.0951 32.0529 26.8702 29.4502 16.022 26.6978Z" fill="black" fill-opacity="0.101961"/>
<path d="M50.7022 31.584C50.4717 31.6862 50.2251 31.7843 49.9705 31.8803C37.9122 29.0441 25.3868 25.7776 13.8672 22.4556C25.7694 25.0912 38.5682 28.2564 50.7022 31.584Z" fill="black" fill-opacity="0.101961"/>
<path d="M98.6137 23.3662L110.515 52.8544L98.4932 71.7161C98.4932 71.7161 115.776 69.3027 117.907 55.4852C120.617 37.9171 98.6137 23.3662 98.6137 23.3662Z" fill="#009846"/>
<path d="M98.6401 24.2549L110.514 52.8544L100.863 71.2182C100.863 71.2182 118.366 66.135 118.139 52.1544C117.849 34.3782 98.6401 24.2549 98.6401 24.2549Z" fill="black" fill-opacity="0.101961"/>
<path d="M105.374 67.6679C105.566 67.222 106.416 67.1054 106.6 66.6427C120.795 52.6882 110.783 39.4869 102.563 31.371C111.403 39.5223 117.82 56.5915 105.374 67.6679Z" fill="black" fill-opacity="0.101961"/>
<path d="M103.171 69.9647C103.34 69.6362 103.509 69.3075 103.687 68.9705C123.651 54.2222 116.496 37.7418 100.355 30.261C117.422 37.1716 125.831 53.5039 103.171 69.9647Z" fill="black" fill-opacity="0.101961"/>
<path d="M97.4731 23.2596L110.8 52.3174L101.149 70.6811C101.149 70.6811 118.641 66.5322 118.413 52.5516C118.124 34.7753 97.4731 23.2596 97.4731 23.2596Z" fill="#EBECEC" fill-opacity="0.101961"/>
<path d="M11.5813 65.4846H31.4856C32.1594 65.4846 32.7069 65.908 32.7069 66.4313V72.9536C32.7069 73.4771 32.1594 73.9004 31.4856 73.9004H11.5813C10.9072 73.9004 10.3608 73.4771 10.3608 72.9536V66.4313C10.3608 65.908 10.9072 65.4846 11.5813 65.4846Z" fill="#CD3414"/>
<path d="M14.939 66.9415H28.1275C28.4404 66.9415 28.6935 67.1372 28.6935 67.38V70.9441C28.6935 71.1866 28.4404 71.3822 28.1275 71.3822H14.939C14.627 71.3822 14.374 71.1866 14.374 70.9441V67.38C14.374 67.1372 14.627 66.9415 14.939 66.9415Z" fill="#FCAB28"/>
<path d="M16.7567 66.9415H21.293C21.4001 66.9415 21.4875 67.1372 21.4875 67.38V70.9441C21.4875 71.1866 21.4001 71.3822 21.293 71.3822H16.7567C16.6496 71.3822 16.562 71.1866 16.562 70.9441V67.38C16.562 67.1372 16.6496 66.9415 16.7567 66.9415Z" fill="#FFD733"/>
<path d="M15.9076 73.9003H12.5273L14.9022 71.3821C14.9144 71.3821 14.9264 71.3821 14.9386 71.3821H16.7567H18.4323L15.9076 73.9003Z" fill="#DE7B66"/>
<path d="M16.7568 71.3822H14.9387C14.9265 71.3822 14.9145 71.3822 14.9023 71.3822L16.5622 69.6218V70.9441C16.5622 71.1866 16.6497 71.3822 16.7568 71.3822Z" fill="#FDC873"/>
<path d="M22.8881 66.9416H19.0908L20.4647 65.4846H24.3496L22.8881 66.9416Z" fill="#DE7B66"/>
<path d="M21.4877 68.337V67.38C21.4877 67.1372 21.4003 66.9415 21.2932 66.9415H19.0908H22.8881L21.4877 68.337Z" fill="#FDC873"/>
<path d="M18.4323 71.3822H16.7567C16.6496 71.3822 16.562 71.1866 16.562 70.9441V69.6218L19.0906 66.9415H21.293C21.4001 66.9415 21.4875 67.1372 21.4875 67.38V68.337L18.4323 71.3822Z" fill="#FFE57A"/>
<path d="M20.8731 73.9004H19.1982L21.7294 71.3822H23.3772L20.8731 73.9004ZM27.7965 66.9416H26.1934L27.6577 65.4846H29.245L27.7965 66.9416Z" fill="#DE7B66"/>
<path d="M23.3763 71.3822H21.7285L26.1925 66.9415H27.7956L23.3763 71.3822Z" fill="#FDC873"/>
<path d="M18.2905 27.1428V29.3453H24.2828V26.7943L18.2905 27.1428Z" fill="#FCAB28"/>
<path d="M7.72697 24.4402C7.51667 24.4402 7.29322 24.4056 7.06138 24.3361C6.75702 24.2435 6.5838 23.9203 6.67511 23.6142C6.76617 23.307 7.08756 23.1338 7.3928 23.2256C7.55938 23.2761 7.86187 23.337 8.0183 23.1815C8.17474 23.0261 8.26693 22.5963 8.05563 21.8528C7.69816 20.5941 5.66959 18.4206 2.48959 15.8884C0.568237 14.3584 -0.426884 11.8917 0.174823 10.1517C0.542435 9.08807 1.47481 8.47839 2.73245 8.47839C3.69513 8.47839 4.4286 8.73504 4.9137 9.24242C5.67072 10.0357 5.623 11.2147 5.58855 12.0744C5.57665 12.3862 5.5635 12.7094 5.59982 12.874C5.60258 12.8881 5.60622 12.8947 5.60722 12.8965C5.73197 13.0192 6.47671 12.948 7.13303 12.6913C7.43 12.5744 7.76417 12.7232 7.87952 13.0211C7.99426 13.3198 7.84808 13.6561 7.55111 13.7712C7.28383 13.8759 5.90995 14.3744 5.07665 13.9267C4.76102 13.7571 4.55348 13.4798 4.47519 13.1249C4.40543 12.8132 4.42034 12.4489 4.43712 12.0275C4.46693 11.3038 4.49937 10.4823 4.08229 10.0451C3.82352 9.77448 3.36923 9.63765 2.73245 9.63765C1.96279 9.63765 1.46854 9.93827 1.26313 10.532C0.884999 11.6257 1.51989 13.6372 3.2054 14.9793C5.62024 16.9027 8.61512 19.6016 9.16422 21.5343C9.46971 22.6103 9.35047 23.4886 8.82817 24.0067C8.53872 24.294 8.15983 24.4402 7.72697 24.4402Z" fill="#FCAB28"/>
<path d="M35.4888 24.4402C35.0559 24.4402 34.6771 24.294 34.3885 24.0067C33.8662 23.4886 33.7472 22.6103 34.0524 21.5343C34.6015 19.6016 37.5955 16.9027 40.0112 14.9793C41.6963 13.6372 42.3312 11.6257 41.9531 10.532C41.7474 9.93827 41.2531 9.63765 40.4842 9.63765C39.8465 9.63765 39.3923 9.77448 39.1344 10.0451C38.7163 10.4823 38.7497 11.3038 38.7786 12.0275C38.7954 12.4489 38.8103 12.8132 38.7415 13.1249C38.6633 13.4798 38.4547 13.7571 38.1401 13.9267C37.3061 14.3744 35.9319 13.8759 35.6657 13.7712C35.3688 13.6561 35.2215 13.3198 35.337 13.0211C35.4525 12.7232 35.7858 12.5753 36.0826 12.6905C36.7409 12.9461 37.4857 13.0183 37.6104 12.8947C37.6104 12.8947 37.6132 12.8873 37.6159 12.874C37.6531 12.7094 37.6402 12.3862 37.6272 12.0744C37.5926 11.2147 37.5453 10.0357 38.3029 9.24242C38.7872 8.73504 39.5206 8.47839 40.4842 8.47839C41.7418 8.47839 42.6738 9.08807 43.0416 10.1517C43.6438 11.8917 42.6477 14.3584 40.7263 15.8884C37.5462 18.4206 35.5177 20.5941 35.1601 21.8528C34.9497 22.5963 35.041 23.0261 35.1975 23.1815C35.3539 23.337 35.6574 23.2761 35.8239 23.2256C36.1283 23.1338 36.4496 23.307 36.5417 23.6142C36.6329 23.9203 36.4597 24.2435 36.1554 24.3361C35.9225 24.4056 35.6991 24.4402 35.4888 24.4402Z" fill="#FCAB28"/>
<path d="M6.88086 9.05798H36.3839V16.9409H7.1117L6.88086 9.05798Z" fill="#FFD733"/>
<path d="M7.11133 16.9409C7.11133 16.9409 9.30097 27.8386 21.4021 27.8386C33.5024 27.8386 36.3835 16.9409 36.3835 16.9409H7.11133Z" fill="#FCAB28"/>
<path d="M16.9457 23.8193C13.8411 23.8193 11.39 23.101 9.45916 22.0343C7.61321 19.4328 7.11133 16.9409 7.11133 16.9409H30.0208C27.9931 20.0463 24.0656 23.8193 16.9457 23.8193Z" fill="#FEC33C"/>
<path d="M18.2902 29.3452C18.2902 29.3452 16.446 29.6927 16.3315 32.2434H26.7031C26.7031 32.2434 26.9339 29.8087 24.2825 29.3452H18.2902Z" fill="#FFD733"/>
<path d="M15.1792 32.2434H27.8559C27.8559 32.2434 27.8559 47.0815 23.2457 54.6171H20.0192C20.0192 54.6171 15.4093 47.1975 15.1792 32.2434Z" fill="#FFD733"/>
<path d="M16.2051 43.0333C16.2051 43.0323 16.2043 43.0323 16.2043 43.0323L16.2051 43.0333ZM16.1763 42.876C16.1763 42.875 16.1753 42.8741 16.1753 42.8721C16.1753 42.8741 16.1763 42.8741 16.1763 42.876ZM16.1689 42.8365C16.1689 42.8355 16.1689 42.8346 16.1681 42.8328C16.1689 42.8346 16.1689 42.8355 16.1689 42.8365ZM16.1474 42.7186C16.1474 42.7158 16.1465 42.7131 16.1465 42.71C16.1465 42.7121 16.1474 42.7158 16.1474 42.7186ZM16.141 42.6812C16.141 42.6784 16.14 42.6745 16.1391 42.6717C16.14 42.6754 16.141 42.6774 16.141 42.6812ZM16.1334 42.6399C16.1334 42.6371 16.1334 42.6362 16.1325 42.6343C16.1334 42.6362 16.1334 42.6381 16.1334 42.6399ZM16.1261 42.5968C16.1261 42.594 16.1251 42.5912 16.1251 42.5885C16.1251 42.5912 16.1261 42.5931 16.1261 42.5968ZM16.1195 42.5604C16.1195 42.5566 16.1185 42.5518 16.1176 42.5471C16.1185 42.5518 16.1195 42.5557 16.1195 42.5604ZM16.1129 42.5219C16.1121 42.5182 16.1121 42.5135 16.1112 42.5097C16.1121 42.5144 16.1121 42.5171 16.1129 42.5219ZM16.1066 42.4835C16.1057 42.4797 16.1057 42.4761 16.1046 42.4724C16.1046 42.4752 16.1057 42.4797 16.1066 42.4835ZM16.098 42.4368C16.0972 42.433 16.0972 42.4274 16.0963 42.4235C16.0972 42.4274 16.098 42.433 16.098 42.4368ZM16.0917 42.4002C16.0917 42.3956 16.0898 42.3889 16.0898 42.3842C16.0908 42.3898 16.0908 42.3946 16.0917 42.4002ZM16.085 42.3618C16.085 42.357 16.0841 42.3523 16.0831 42.3478C16.0841 42.3523 16.085 42.357 16.085 42.3618ZM16.0786 42.3242C16.0786 42.3196 16.0776 42.314 16.0767 42.3093C16.0776 42.3151 16.0776 42.3187 16.0786 42.3242ZM16.0701 42.2746C16.0692 42.2691 16.0692 42.2645 16.0682 42.2587C16.0692 42.2645 16.0692 42.2701 16.0701 42.2746ZM16.0646 42.2391C16.0637 42.2324 16.0627 42.226 16.0618 42.2204C16.0627 42.2269 16.0637 42.2324 16.0646 42.2391ZM16.058 42.2018C16.0572 42.1951 16.0563 42.1896 16.0552 42.1829C16.0563 42.1896 16.0572 42.1951 16.058 42.2018ZM16.0524 42.166C16.0497 42.1501 16.0469 42.1344 16.0442 42.1194C16.0469 42.1344 16.0497 42.1501 16.0524 42.166ZM16.0431 42.1136C16.0422 42.1062 16.0412 42.0986 16.0395 42.0912C16.0412 42.0986 16.0422 42.1062 16.0431 42.1136ZM16.0375 42.0772C16.0357 42.0696 16.0348 42.0612 16.0329 42.0536C16.0348 42.0612 16.0357 42.0696 16.0375 42.0772ZM16.0312 42.0416C16.0302 42.0331 16.0293 42.0267 16.0274 42.0181C16.0293 42.0267 16.0302 42.0331 16.0312 42.0416ZM16.0254 42.005C16.0208 41.9788 16.0163 41.9516 16.0125 41.9254C16.0163 41.9516 16.0208 41.9788 16.0254 42.005ZM16.0105 41.9131C16.0086 41.9057 16.0077 41.8983 16.0069 41.8898C16.0077 41.8973 16.0086 41.9057 16.0105 41.9131ZM16.0041 41.8757C16.0031 41.8683 16.0012 41.8607 16.0003 41.8533C16.0012 41.8607 16.0031 41.8683 16.0041 41.8757ZM15.9986 41.8393C15.9937 41.8121 15.9892 41.786 15.9854 41.7588C15.9892 41.786 15.9937 41.813 15.9986 41.8393ZM15.9837 41.7483C15.9818 41.74 15.9808 41.7315 15.9799 41.7233C15.9808 41.7315 15.9827 41.74 15.9837 41.7483ZM15.977 41.7109C15.976 41.7036 15.9752 41.695 15.9733 41.6867C15.9752 41.695 15.976 41.7026 15.977 41.7109ZM15.9724 41.6773C15.9678 41.6492 15.9631 41.6201 15.9584 41.5921C15.9631 41.6201 15.9678 41.6492 15.9724 41.6773ZM15.9565 41.5818C15.9556 41.5732 15.9538 41.5649 15.9529 41.5564C15.9548 41.5659 15.9556 41.5723 15.9565 41.5818ZM15.951 41.5454C15.9501 41.5368 15.9481 41.5282 15.9472 41.519C15.9481 41.5273 15.9501 41.5368 15.951 41.5454ZM15.9465 41.5115C15.9417 41.4815 15.9371 41.4516 15.9323 41.4216C15.9371 41.4516 15.9417 41.4815 15.9465 41.5115ZM15.9305 41.415C15.9295 41.4058 15.9277 41.3963 15.9268 41.3869C15.9277 41.3963 15.9295 41.4058 15.9305 41.415ZM15.9258 41.3794C15.9239 41.37 15.9222 41.3598 15.9212 41.3503C15.9222 41.3608 15.9239 41.37 15.9258 41.3794ZM15.9203 41.3476C15.9155 41.3148 15.9109 41.282 15.9054 41.2493C15.9109 41.283 15.9155 41.3139 15.9203 41.3476ZM15.9054 41.2484C15.9035 41.2371 15.9026 41.2279 15.9008 41.2174C15.9026 41.2279 15.9035 41.2379 15.9054 41.2484ZM15.8999 41.211C15.8933 41.1679 15.8869 41.1238 15.8802 41.0808C15.8869 41.1238 15.8933 41.1679 15.8999 41.211ZM15.8792 41.0779C15.8783 41.0677 15.8765 41.0573 15.8747 41.0469C15.8765 41.0573 15.8783 41.0677 15.8792 41.0779ZM15.8747 41.0423C15.8682 40.9983 15.8616 40.9535 15.8552 40.9085C15.8616 40.9535 15.8682 40.9973 15.8747 41.0423ZM15.8552 40.9085C15.8533 40.8981 15.8514 40.8868 15.8505 40.8766C15.8514 40.8868 15.8533 40.8973 15.8552 40.9085ZM15.8494 40.8699C15.843 40.8259 15.8364 40.7811 15.83 40.7371C15.8364 40.7811 15.843 40.8259 15.8494 40.8699ZM15.83 40.7361C15.8281 40.7249 15.8262 40.7136 15.8254 40.7025C15.8262 40.7136 15.8281 40.7249 15.83 40.7361ZM15.8244 40.7015C15.8169 40.6443 15.8086 40.5873 15.8002 40.5292C15.8086 40.5873 15.8169 40.6434 15.8244 40.7015ZM15.8002 40.5273C15.7937 40.4824 15.7882 40.4355 15.7815 40.3896C15.7882 40.4365 15.7937 40.4814 15.8002 40.5273ZM15.7815 40.3896C15.7798 40.3774 15.7779 40.3672 15.7769 40.3559C15.7779 40.3672 15.7798 40.3774 15.7815 40.3896ZM15.776 40.3531C15.7704 40.3072 15.7639 40.2614 15.7575 40.2154C15.7639 40.2614 15.7704 40.3072 15.776 40.3531ZM15.7575 40.2135C15.7565 40.2034 15.7545 40.1921 15.7527 40.1807C15.7545 40.1921 15.7565 40.2034 15.7575 40.2135ZM15.7527 40.1771C15.7462 40.1321 15.7404 40.0852 15.7341 40.0403C15.7404 40.0852 15.7462 40.1321 15.7527 40.1771ZM15.7341 40.0375C15.7322 40.0263 15.7313 40.015 15.7294 40.0038C15.7313 40.015 15.7322 40.0252 15.7341 40.0375ZM15.7294 40.0019C15.7222 39.944 15.7145 39.885 15.707 39.8259C15.7145 39.885 15.7222 39.944 15.7294 40.0019ZM15.7061 39.8249C15.7006 39.7782 15.6951 39.7313 15.6885 39.6836C15.6951 39.7313 15.7006 39.7782 15.7061 39.8249ZM15.6885 39.6827C15.6875 39.6713 15.6857 39.6593 15.6838 39.648C15.6857 39.6593 15.6866 39.6705 15.6885 39.6827ZM15.6838 39.6461C15.6783 39.5993 15.6726 39.5525 15.6662 39.5057C15.6726 39.5525 15.6783 39.5993 15.6838 39.6461ZM15.6662 39.5029C15.6653 39.4915 15.6634 39.4803 15.6624 39.4692C15.6634 39.4803 15.6653 39.4915 15.6662 39.5029ZM15.6615 39.4643C15.6559 39.4177 15.6504 39.3716 15.6449 39.3257C15.6504 39.3716 15.6559 39.4185 15.6615 39.4643ZM15.6449 39.3222C15.6427 39.3109 15.6419 39.2997 15.64 39.2883C15.6419 39.2986 15.6427 39.3109 15.6449 39.3222ZM15.64 39.2847C15.6345 39.2378 15.629 39.1919 15.6233 39.1451C15.629 39.1919 15.6345 39.2378 15.64 39.2847ZM15.6233 39.1395C15.6215 39.1291 15.6205 39.118 15.6187 39.1068C15.6205 39.118 15.6215 39.1291 15.6233 39.1395ZM15.6187 39.1019C15.6129 39.0561 15.6074 39.0094 15.6029 38.9634C15.6074 39.0094 15.6129 39.0561 15.6187 39.1019ZM15.6019 38.9558C15.601 38.9456 15.5992 38.9353 15.598 38.9251C15.5992 38.9353 15.601 38.9456 15.6019 38.9558ZM15.5972 38.9175C15.5935 38.8829 15.5898 38.8484 15.5861 38.8137C15.5898 38.8484 15.5935 38.8839 15.5972 38.9175ZM15.5851 38.8117C15.5843 38.8015 15.5834 38.7901 15.5824 38.7799C15.5834 38.7901 15.5843 38.8015 15.5851 38.8117ZM15.5814 38.7724C15.5795 38.7622 15.5786 38.7518 15.5776 38.7405C15.5786 38.7518 15.5795 38.7622 15.5814 38.7724ZM15.5767 38.7341C15.573 38.6993 15.5694 38.6638 15.5657 38.6282C15.5694 38.6638 15.573 38.6993 15.5767 38.7341ZM15.5657 38.6272C15.5646 38.6178 15.5627 38.6067 15.5618 38.5973C15.5627 38.6067 15.5646 38.6178 15.5657 38.6272ZM15.561 38.586C15.56 38.5767 15.5591 38.5664 15.5572 38.556C15.5591 38.5664 15.56 38.5767 15.561 38.586ZM15.5572 38.5486C15.5536 38.514 15.5489 38.4784 15.5451 38.4429C15.5498 38.4784 15.5536 38.5131 15.5572 38.5486ZM15.5451 38.4418C15.5442 38.4316 15.5432 38.4202 15.5423 38.4099C15.5432 38.4202 15.5442 38.4316 15.5451 38.4418ZM15.5414 38.4016C15.5404 38.3912 15.5395 38.381 15.5377 38.3707C15.5395 38.3819 15.5404 38.3904 15.5414 38.4016ZM15.5367 38.3604C15.5332 38.3257 15.5302 38.292 15.5265 38.2563C15.5302 38.292 15.5332 38.3257 15.5367 38.3604ZM15.5265 38.2556C15.5246 38.2452 15.5238 38.2339 15.5228 38.2237C15.5238 38.2339 15.5246 38.2452 15.5265 38.2556ZM15.5219 38.2134C15.521 38.2039 15.5199 38.1937 15.519 38.1842C15.5199 38.1937 15.521 38.2039 15.5219 38.2134ZM15.5183 38.173C15.5144 38.1393 15.5106 38.1056 15.5079 38.0719C15.5106 38.1056 15.5144 38.1393 15.5183 38.173ZM15.507 38.0663C15.5061 38.056 15.5051 38.0468 15.5042 38.0363C15.5051 38.0468 15.5061 38.0569 15.507 38.0663ZM15.5031 38.026C15.5022 38.0157 15.5012 38.0055 15.5003 37.996C15.5012 38.0063 15.5022 38.0157 15.5031 38.026ZM15.4985 37.9849C15.4957 37.9512 15.4921 37.9175 15.4893 37.8845C15.4921 37.9184 15.4957 37.9512 15.4985 37.9849ZM15.4884 37.8781C15.4874 37.8677 15.4863 37.8567 15.4854 37.8462C15.4863 37.8567 15.4874 37.8677 15.4884 37.8781ZM15.4846 37.8368C15.4836 37.8265 15.4827 37.8162 15.4818 37.805C15.4827 37.8153 15.4836 37.8265 15.4846 37.8368ZM15.4808 37.7976C15.478 37.7638 15.4744 37.7302 15.4717 37.6963C15.4744 37.7311 15.478 37.7638 15.4808 37.7976ZM15.4708 37.6871C15.4697 37.6776 15.4687 37.6674 15.4678 37.6571C15.4687 37.6665 15.4697 37.6776 15.4708 37.6871ZM15.4669 37.6457C15.4659 37.6365 15.465 37.6261 15.4641 37.6169C15.465 37.6261 15.4659 37.6365 15.4669 37.6457ZM15.4631 37.6038C15.4595 37.571 15.4568 37.5382 15.4537 37.5054C15.4568 37.5382 15.4595 37.5719 15.4631 37.6038ZM15.4529 37.4959C15.452 37.4866 15.451 37.4782 15.4501 37.4687C15.451 37.4773 15.452 37.4875 15.4529 37.4959ZM15.4492 37.4529C15.4482 37.4437 15.4474 37.4342 15.4465 37.4259C15.4474 37.4342 15.4482 37.4437 15.4492 37.4529ZM15.4455 37.4109C15.4446 37.4014 15.4437 37.3929 15.4427 37.3837C15.4437 37.3929 15.4446 37.4014 15.4455 37.4109ZM15.4418 37.3751C15.44 37.3566 15.4391 37.3377 15.4371 37.319C15.4391 37.3387 15.44 37.3566 15.4418 37.3751ZM15.4352 37.3022C15.4352 37.2947 15.4343 37.2853 15.4333 37.278C15.4343 37.2853 15.4352 37.2947 15.4352 37.3022ZM15.4316 37.2591C15.4316 37.2516 15.4306 37.2422 15.4297 37.2348C15.4306 37.2431 15.4306 37.2508 15.4316 37.2591ZM15.4278 37.215C15.4269 37.2075 15.4269 37.1992 15.4261 37.1908C15.4269 37.1992 15.4269 37.2075 15.4278 37.215ZM15.4251 37.1776C15.4232 37.1608 15.4223 37.1448 15.4203 37.127C15.4223 37.1439 15.4232 37.1608 15.4251 37.1776ZM15.4184 37.1084C15.4184 37.1007 15.4176 37.0934 15.4167 37.0848C15.4176 37.0934 15.4184 37.1007 15.4184 37.1084ZM15.4157 37.0652C15.4148 37.0576 15.4139 37.0484 15.4129 37.0409C15.4139 37.0484 15.4148 37.0576 15.4157 37.0652ZM15.412 37.0212C15.411 37.0138 15.4102 37.0052 15.4093 36.9979C15.4102 37.0062 15.411 37.0138 15.412 37.0212ZM15.4073 36.966C15.4063 36.9557 15.4054 36.9452 15.4047 36.9352C15.4054 36.9452 15.4063 36.9557 15.4073 36.966ZM15.4026 36.9146C15.4018 36.906 15.4018 36.8986 15.4008 36.89C15.4018 36.8986 15.4018 36.906 15.4026 36.9146ZM15.399 36.8705C15.399 36.8631 15.398 36.8545 15.3971 36.8472C15.398 36.8545 15.399 36.8631 15.399 36.8705ZM15.3953 36.8245C15.3953 36.8181 15.3944 36.8095 15.3935 36.8031C15.3944 36.8105 15.3953 36.8181 15.3953 36.8245ZM15.3905 36.7628C15.3896 36.7562 15.3896 36.7487 15.3886 36.7413C15.3896 36.7487 15.3896 36.7554 15.3905 36.7628ZM15.3869 36.7178C15.3869 36.7104 15.3859 36.7037 15.385 36.6963C15.3859 36.7037 15.3869 36.7113 15.3869 36.7178ZM15.3831 36.6738C15.3831 36.6663 15.3822 36.6588 15.3822 36.6513C15.3822 36.6588 15.3831 36.6663 15.3831 36.6738ZM15.3804 36.6271C15.3795 36.6204 15.3786 36.6139 15.3786 36.6072C15.3786 36.6139 15.3795 36.6204 15.3804 36.6271ZM15.3756 36.5708C15.3747 36.5625 15.3737 36.5539 15.3737 36.5456C15.3747 36.5549 15.3747 36.5616 15.3756 36.5708ZM15.372 36.5211C15.371 36.5147 15.371 36.507 15.3701 36.5006C15.371 36.507 15.371 36.5147 15.372 36.5211ZM15.3682 36.4762C15.3682 36.4687 15.3673 36.4622 15.3664 36.4556C15.3673 36.4622 15.3682 36.4697 15.3682 36.4762ZM15.3646 36.4275C15.3646 36.422 15.3636 36.4164 15.3636 36.4106C15.3636 36.4164 15.3646 36.422 15.3646 36.4275ZM15.3599 36.3684C15.3599 36.3629 15.3599 36.3565 15.3588 36.3507C15.3599 36.3565 15.3599 36.362 15.3599 36.3684ZM15.3571 36.3227C15.3561 36.316 15.3561 36.3105 15.3552 36.303C15.3561 36.3105 15.3561 36.316 15.3571 36.3227ZM15.3533 36.2787C15.3533 36.271 15.3524 36.2637 15.3524 36.2571C15.3524 36.2637 15.3533 36.271 15.3533 36.2787ZM15.3505 36.23C15.3497 36.2244 15.3497 36.2186 15.3487 36.2131C15.3497 36.2186 15.3497 36.2244 15.3505 36.23ZM15.3459 36.1691C15.3459 36.1644 15.345 36.1597 15.345 36.1541C15.345 36.1587 15.3459 36.1644 15.3459 36.1691ZM15.3432 36.1231C15.3421 36.1176 15.3421 36.112 15.3411 36.1054C15.3421 36.1109 15.3421 36.1176 15.3432 36.1231ZM15.3393 36.0773C15.3393 36.0717 15.3384 36.0659 15.3384 36.0604C15.3384 36.0659 15.3393 36.0717 15.3393 36.0773ZM15.3356 36.0249C15.3356 36.0221 15.3356 36.0174 15.3356 36.0145C15.3356 36.0174 15.3356 36.0221 15.3356 36.0249ZM15.332 35.9687C15.332 35.9649 15.332 35.9612 15.331 35.9574C15.332 35.9612 15.332 35.9649 15.332 35.9687ZM15.3292 35.9238C15.3292 35.918 15.3282 35.9125 15.3282 35.9069C15.3282 35.9135 15.3292 35.9171 15.3292 35.9238ZM15.3265 35.8761C15.3254 35.8703 15.3254 35.8656 15.3245 35.8601C15.3254 35.8656 15.3254 35.8703 15.3265 35.8761ZM15.3226 35.8234C15.3226 35.8197 15.3216 35.8178 15.3216 35.8142C15.3216 35.8178 15.3226 35.8197 15.3226 35.8234ZM15.3189 35.7683C15.3189 35.7645 15.318 35.7609 15.318 35.757C15.318 35.7616 15.3189 35.7645 15.3189 35.7683ZM15.3161 35.7215C15.3152 35.7168 15.3152 35.712 15.3152 35.7073C15.3152 35.712 15.3152 35.7168 15.3161 35.7215ZM15.3122 35.6737C15.3122 35.669 15.3122 35.6644 15.3113 35.6596C15.3122 35.6634 15.3122 35.6701 15.3122 35.6737ZM15.3097 35.6204C15.3097 35.6174 15.3097 35.6156 15.3086 35.6127C15.3097 35.6156 15.3097 35.6174 15.3097 35.6204ZM15.3058 35.566C15.3058 35.5632 15.3058 35.5594 15.3058 35.5555C15.3058 35.5594 15.3058 35.5632 15.3058 35.566ZM15.3031 35.5191C15.3031 35.5145 15.3031 35.5099 15.3022 35.505C15.3022 35.5099 15.3031 35.5155 15.3031 35.5191ZM15.3003 35.4714C15.3003 35.4667 15.2994 35.462 15.2994 35.4575C15.2994 35.462 15.3003 35.4667 15.3003 35.4714ZM15.2973 35.4181C15.2964 35.4153 15.2964 35.4134 15.2964 35.4105C15.2964 35.4134 15.2964 35.4153 15.2973 35.4181ZM15.2939 35.3638C15.2939 35.359 15.2939 35.3562 15.2928 35.3525C15.2939 35.3562 15.2939 35.359 15.2939 35.3638ZM15.2909 35.317C15.2909 35.3112 15.2909 35.3066 15.29 35.301C15.29 35.3057 15.2909 35.3112 15.2909 35.317ZM15.2882 35.2693C15.2882 35.2644 15.2882 35.2588 15.2873 35.2543C15.2882 35.2588 15.2882 35.2635 15.2882 35.2693ZM15.2854 35.213C15.2854 35.2102 15.2854 35.2092 15.2845 35.2074C15.2854 35.2092 15.2854 35.2111 15.2854 35.213ZM15.2827 35.1597C15.2818 35.1559 15.2818 35.153 15.2818 35.1492C15.2818 35.153 15.2818 35.1559 15.2827 35.1597ZM15.2797 35.1128C15.2788 35.108 15.2788 35.1025 15.2788 35.0978C15.2788 35.1025 15.2788 35.108 15.2797 35.1128ZM15.2769 35.0642C15.2769 35.0584 15.276 35.0547 15.276 35.0492C15.276 35.0547 15.2769 35.0595 15.2769 35.0642ZM15.2741 35.0107C15.2741 35.0078 15.2733 35.0051 15.2733 35.0023C15.2733 35.0051 15.2741 35.0078 15.2741 35.0107ZM15.2714 34.9554C15.2705 34.9508 15.2705 34.946 15.2705 34.9413C15.2705 34.946 15.2705 34.9508 15.2714 34.9554ZM15.2686 34.9068C15.2686 34.9021 15.2677 34.8975 15.2677 34.8927C15.2677 34.8983 15.2686 34.9021 15.2686 34.9068ZM15.2659 34.8571C15.2659 34.8525 15.2659 34.8496 15.265 34.8449C15.2659 34.8486 15.2659 34.8535 15.2659 34.8571ZM15.263 34.7989C15.263 34.7989 15.263 34.7981 15.263 34.7972C15.263 34.7981 15.263 34.7981 15.263 34.7989ZM15.2602 34.7475C15.2602 34.7448 15.2602 34.7429 15.2602 34.7401C15.2602 34.7429 15.2602 34.7456 15.2602 34.7475ZM15.2584 34.6998C15.2575 34.6961 15.2575 34.6912 15.2575 34.6867C15.2575 34.6912 15.2575 34.6961 15.2584 34.6998ZM15.2556 34.6511C15.2556 34.6474 15.2556 34.6417 15.2547 34.6379C15.2556 34.6426 15.2556 34.6465 15.2556 34.6511ZM15.2528 34.595C15.2528 34.5941 15.2528 34.5912 15.2528 34.5902C15.2528 34.5921 15.2528 34.5929 15.2528 34.595ZM15.2501 34.5405C15.2501 34.5388 15.2501 34.535 15.2501 34.5322C15.2501 34.535 15.2501 34.5388 15.2501 34.5405ZM15.2482 34.4928C15.2482 34.4882 15.2471 34.4845 15.2471 34.4797C15.2471 34.4836 15.2482 34.4882 15.2482 34.4928ZM15.2453 34.4422C15.2453 34.4386 15.2453 34.4347 15.2453 34.431C15.2453 34.4338 15.2453 34.4395 15.2453 34.4422ZM15.2407 34.3326C15.2407 34.3299 15.2407 34.3271 15.2407 34.3242C15.2407 34.3271 15.2407 34.3299 15.2407 34.3326ZM15.2388 34.284C15.2388 34.2804 15.2379 34.2757 15.2379 34.2709C15.2379 34.2757 15.2388 34.2804 15.2388 34.284ZM15.2361 34.2335C15.2361 34.2298 15.2361 34.2259 15.2361 34.2221C15.2361 34.2259 15.2361 34.2298 15.2361 34.2335ZM15.2324 34.123C15.2316 34.1211 15.2316 34.1174 15.2316 34.1153C15.2316 34.1183 15.2316 34.1211 15.2324 34.123ZM15.2294 34.0733C15.2294 34.0697 15.2294 34.0667 15.2294 34.063C15.2294 34.0667 15.2294 34.0697 15.2294 34.0733ZM15.2277 34.0217C15.2277 34.0189 15.2277 34.0161 15.2277 34.0134C15.2277 34.0153 15.2277 34.0198 15.2277 34.0217ZM15.2239 33.9123C15.223 33.9104 15.223 33.9084 15.223 33.9074C15.223 33.9084 15.2239 33.9113 15.2239 33.9123ZM15.2222 33.8627C15.2212 33.8588 15.2212 33.856 15.2212 33.8532C15.2212 33.856 15.2212 33.8597 15.2222 33.8627ZM15.2192 33.811C15.2192 33.8083 15.2192 33.8046 15.2192 33.8017C15.2192 33.8046 15.2192 33.8083 15.2192 33.811ZM15.2156 33.7014C15.2156 33.6986 15.2156 33.6959 15.2156 33.6931C15.2156 33.6959 15.2156 33.6986 15.2156 33.7014ZM15.2136 33.6518C15.2136 33.6481 15.2136 33.6435 15.2136 33.6389C15.2136 33.6435 15.2136 33.6481 15.2136 33.6518ZM15.2118 33.6004C15.2118 33.5967 15.2118 33.5929 15.2118 33.59C15.2118 33.5929 15.2118 33.5967 15.2118 33.6004ZM15.2081 33.488C15.2081 33.4861 15.2081 33.4843 15.2081 33.4816C15.2081 33.4833 15.2081 33.4861 15.2081 33.488ZM15.2073 33.4393C15.2073 33.4347 15.2073 33.431 15.2062 33.4271C15.2073 33.4319 15.2073 33.4347 15.2073 33.4393ZM15.2054 33.3859C15.2054 33.3821 15.2054 33.3803 15.2054 33.3775C15.2054 33.3794 15.2054 33.383 15.2054 33.3859ZM15.2015 33.2754C15.2015 33.2718 15.2015 33.2698 15.2015 33.266C15.2015 33.2688 15.2015 33.2727 15.2015 33.2754ZM15.2007 33.2249C15.2007 33.221 15.2007 33.2173 15.1999 33.2137C15.2007 33.2173 15.2007 33.221 15.2007 33.2249ZM15.1989 33.1716C15.1989 33.1687 15.1989 33.1659 15.1989 33.1632C15.1989 33.1668 15.1989 33.1687 15.1989 33.1716ZM15.196 33.0601C15.196 33.0572 15.196 33.0544 15.196 33.0517C15.196 33.0544 15.196 33.0581 15.196 33.0601ZM15.1951 33.0103C15.1941 33.0058 15.1941 33.002 15.1941 32.9974C15.1941 33.002 15.1941 33.0058 15.1951 33.0103ZM15.1932 32.9589C15.1932 32.9552 15.1932 32.9504 15.1932 32.9458C15.1932 32.9504 15.1932 32.9552 15.1932 32.9589ZM15.1905 32.8447C15.1905 32.8419 15.1905 32.8401 15.1905 32.8362C15.1905 32.839 15.1905 32.8419 15.1905 32.8447ZM15.1896 32.7941C15.1896 32.7905 15.1896 32.7857 15.1896 32.7819C15.1896 32.7847 15.1896 32.7905 15.1896 32.7941ZM15.1886 32.7418C15.1886 32.7379 15.1877 32.7342 15.1877 32.7305C15.1877 32.7342 15.1886 32.7379 15.1886 32.7418ZM15.1857 32.6285C15.1857 32.6245 15.1857 32.6209 15.1857 32.6172C15.1857 32.6209 15.1857 32.6245 15.1857 32.6285ZM15.1847 32.5787C15.1847 32.574 15.1847 32.5685 15.1847 32.5637C15.1847 32.5695 15.1847 32.5731 15.1847 32.5787ZM15.1838 32.5254C15.1838 32.5217 15.1838 32.5161 15.1838 32.5122C15.1838 32.5161 15.1838 32.5217 15.1838 32.5254ZM15.182 32.4121C15.182 32.4072 15.1811 32.4017 15.1811 32.3971C15.1811 32.4017 15.1811 32.4063 15.182 32.4121ZM15.1811 32.3606C15.1811 32.3549 15.1802 32.3503 15.1802 32.3447C15.1802 32.3503 15.1811 32.3549 15.1811 32.3606ZM15.1802 32.3081C15.1802 32.3034 15.1802 32.2987 15.1792 32.2939C15.1802 32.2987 15.1802 32.3034 15.1802 32.3081Z" fill="#FFFFFE"/>
<path d="M18.554 51.495C17.7961 49.5687 16.8894 46.7501 16.2051 43.0333L16.2043 43.0323C16.2024 43.0192 16.1995 43.0061 16.1976 42.9929C16.1902 42.9537 16.1827 42.9151 16.1763 42.876C16.1763 42.8741 16.1753 42.8741 16.1753 42.8721C16.1736 42.861 16.1706 42.8487 16.1689 42.8365C16.1689 42.8355 16.1689 42.8346 16.1681 42.8327C16.1632 42.8075 16.1587 42.7813 16.1538 42.755C16.152 42.7419 16.1501 42.7308 16.1474 42.7186C16.1474 42.7158 16.1465 42.712 16.1465 42.71C16.1446 42.7008 16.1428 42.6905 16.141 42.6812C16.141 42.6774 16.14 42.6754 16.1391 42.6717C16.1371 42.6615 16.1352 42.6503 16.1334 42.6398C16.1334 42.6381 16.1334 42.6362 16.1325 42.6343C16.1306 42.6212 16.1289 42.609 16.1261 42.5968C16.1261 42.5931 16.1251 42.5912 16.1251 42.5884C16.1233 42.579 16.1212 42.5695 16.1195 42.5603C16.1195 42.5557 16.1185 42.5518 16.1176 42.5471C16.1157 42.5388 16.1148 42.5302 16.1129 42.5219C16.1121 42.5171 16.1121 42.5144 16.1112 42.5097C16.1093 42.5013 16.1084 42.4919 16.1066 42.4835C16.1057 42.4797 16.1046 42.4752 16.1046 42.4724C16.1027 42.4602 16.0999 42.4488 16.098 42.4367C16.098 42.433 16.0972 42.4274 16.0963 42.4235C16.0944 42.4152 16.0935 42.4086 16.0917 42.4002C16.0908 42.3945 16.0908 42.3898 16.0898 42.3842C16.0878 42.3768 16.0869 42.3692 16.085 42.3618C16.085 42.357 16.0841 42.3523 16.0831 42.3478C16.0814 42.3392 16.0804 42.3328 16.0786 42.3242C16.0776 42.3187 16.0776 42.315 16.0767 42.3092C16.0749 42.2982 16.0731 42.2868 16.0701 42.2746C16.0692 42.2701 16.0692 42.2645 16.0682 42.2587C16.0665 42.2523 16.0655 42.2456 16.0646 42.2391C16.0637 42.2324 16.0627 42.2268 16.0618 42.2204C16.0598 42.2139 16.0588 42.2082 16.058 42.2018C16.0572 42.1951 16.0563 42.1895 16.0552 42.1829C16.0543 42.1773 16.0533 42.1717 16.0524 42.166C16.0497 42.1501 16.0469 42.1344 16.0442 42.1194C16.0442 42.1175 16.0431 42.1155 16.0431 42.1136C16.0422 42.1061 16.0412 42.0986 16.0395 42.0911C16.0384 42.0864 16.0384 42.0817 16.0375 42.0772C16.0357 42.0696 16.0348 42.0612 16.0329 42.0536C16.0329 42.0499 16.032 42.0453 16.0312 42.0416C16.0302 42.0331 16.0293 42.0266 16.0274 42.0181C16.0263 42.0134 16.0263 42.0095 16.0254 42.005C16.0208 41.9788 16.0163 41.9516 16.0125 41.9253C16.0116 41.9216 16.0105 41.917 16.0105 41.9131C16.0086 41.9057 16.0077 41.8972 16.0069 41.8898C16.0059 41.8851 16.005 41.8804 16.0041 41.8757C16.0031 41.8683 16.0012 41.8607 16.0003 41.8533C15.9995 41.8487 15.9995 41.8438 15.9986 41.8393C15.9937 41.813 15.9892 41.786 15.9854 41.7588C15.9846 41.755 15.9837 41.7511 15.9837 41.7483C15.9827 41.74 15.9808 41.7314 15.9799 41.7233C15.979 41.7195 15.978 41.7147 15.977 41.7109C15.976 41.7026 15.9752 41.695 15.9733 41.6867C15.9733 41.6837 15.9724 41.68 15.9724 41.6773C15.9678 41.6492 15.9631 41.6201 15.9584 41.5921C15.9584 41.5882 15.9575 41.5854 15.9565 41.5818C15.9556 41.5723 15.9548 41.5659 15.9529 41.5564C15.9529 41.5527 15.952 41.549 15.951 41.5453C15.9501 41.5368 15.9481 41.5273 15.9472 41.519C15.9465 41.5171 15.9465 41.5143 15.9465 41.5114C15.9417 41.4815 15.9371 41.4516 15.9323 41.4216C15.9313 41.4197 15.9313 41.417 15.9305 41.4149C15.9295 41.4057 15.9277 41.3963 15.9268 41.3868C15.9258 41.3842 15.9258 41.3822 15.9258 41.3794C15.9239 41.37 15.9222 41.3608 15.9212 41.3503C15.9212 41.3494 15.9203 41.3485 15.9203 41.3475C15.9155 41.3139 15.9109 41.283 15.9054 41.2493V41.2484C15.9035 41.2379 15.9026 41.2278 15.9008 41.2174C15.9008 41.2156 15.8999 41.2129 15.8999 41.211C15.8933 41.1679 15.8869 41.1238 15.8802 41.0808C15.8802 41.0797 15.8802 41.0788 15.8792 41.0779C15.8783 41.0677 15.8765 41.0572 15.8747 41.0469C15.8747 41.0451 15.8747 41.0441 15.8747 41.0422C15.8682 40.9973 15.8616 40.9534 15.8552 40.9085C15.8533 40.8972 15.8514 40.8868 15.8505 40.8766C15.8494 40.8738 15.8494 40.8728 15.8494 40.8699C15.843 40.8259 15.8364 40.7811 15.83 40.7371V40.7361C15.8281 40.7249 15.8262 40.7135 15.8254 40.7024L15.8244 40.7014C15.8169 40.6434 15.8086 40.5873 15.8002 40.5292C15.8002 40.5282 15.8002 40.5282 15.8002 40.5273C15.7937 40.4813 15.7882 40.4365 15.7815 40.3896C15.7798 40.3774 15.7779 40.3672 15.7769 40.3558C15.7769 40.355 15.776 40.3541 15.776 40.3531C15.7704 40.3072 15.7639 40.2613 15.7575 40.2154C15.7575 40.2154 15.7575 40.2145 15.7575 40.2135C15.7565 40.2034 15.7545 40.192 15.7527 40.1807C15.7527 40.1789 15.7527 40.1789 15.7527 40.1771C15.7462 40.1321 15.7404 40.0852 15.7341 40.0402C15.7341 40.0394 15.7341 40.0383 15.7341 40.0375C15.7322 40.0252 15.7313 40.015 15.7294 40.0038C15.7294 40.0028 15.7294 40.0028 15.7294 40.0019C15.7222 39.944 15.7145 39.885 15.707 39.8259L15.7061 39.8249C15.7006 39.7782 15.6951 39.7313 15.6885 39.6835V39.6827C15.6866 39.6704 15.6857 39.6592 15.6838 39.648C15.6838 39.6471 15.6838 39.6471 15.6838 39.6461C15.6783 39.5993 15.6726 39.5525 15.6662 39.5056C15.6662 39.5048 15.6662 39.5038 15.6662 39.5029C15.6653 39.4915 15.6634 39.4803 15.6624 39.4692C15.6624 39.4673 15.6615 39.4662 15.6615 39.4643C15.6559 39.4185 15.6504 39.3716 15.6449 39.3257C15.6449 39.3241 15.6449 39.3231 15.6449 39.3222C15.6427 39.3109 15.6419 39.2986 15.64 39.2883C15.64 39.2874 15.64 39.2855 15.64 39.2846C15.6345 39.2378 15.629 39.1919 15.6233 39.145C15.6233 39.1432 15.6233 39.1413 15.6233 39.1395C15.6215 39.1291 15.6205 39.118 15.6187 39.1068C15.6187 39.1049 15.6187 39.104 15.6187 39.1018C15.6129 39.0561 15.6074 39.0094 15.6029 38.9634C15.6019 38.9606 15.6019 38.9588 15.6019 38.9558C15.601 38.9456 15.5992 38.9353 15.598 38.9251C15.598 38.923 15.5972 38.9194 15.5972 38.9175C15.5935 38.8839 15.5898 38.8483 15.5861 38.8137C15.5861 38.8137 15.5861 38.8127 15.5851 38.8117C15.5843 38.8015 15.5834 38.7901 15.5824 38.7799C15.5814 38.777 15.5814 38.7751 15.5814 38.7724C15.5795 38.7622 15.5786 38.7518 15.5776 38.7405C15.5776 38.7387 15.5767 38.736 15.5767 38.7341C15.573 38.6993 15.5694 38.6638 15.5657 38.6282C15.5657 38.6272 15.5657 38.6282 15.5657 38.6272C15.5646 38.6178 15.5627 38.6067 15.5618 38.5972C15.5618 38.5936 15.561 38.5898 15.561 38.586C15.56 38.5767 15.5591 38.5664 15.5572 38.556C15.5572 38.5533 15.5572 38.5514 15.5572 38.5486C15.5536 38.5131 15.5498 38.4784 15.5451 38.4429C15.5451 38.4418 15.5451 38.4429 15.5451 38.4418C15.5442 38.4316 15.5432 38.4202 15.5423 38.4099C15.5414 38.4071 15.5414 38.4043 15.5414 38.4016C15.5404 38.3903 15.5395 38.3819 15.5377 38.3707C15.5377 38.3677 15.5377 38.3641 15.5367 38.3604C15.5332 38.3257 15.5302 38.292 15.5265 38.2563V38.2555C15.5246 38.2452 15.5238 38.2339 15.5228 38.2237C15.5228 38.2208 15.5219 38.217 15.5219 38.2133C15.521 38.2039 15.5199 38.1937 15.519 38.1842C15.5183 38.1806 15.5183 38.1768 15.5183 38.173C15.5144 38.1392 15.5106 38.1056 15.5079 38.0718C15.5079 38.0701 15.507 38.0691 15.507 38.0663C15.5061 38.0569 15.5051 38.0468 15.5042 38.0363C15.5042 38.0327 15.5031 38.029 15.5031 38.026C15.5022 38.0157 15.5012 38.0063 15.5003 37.996C15.4995 37.9923 15.4995 37.9886 15.4985 37.9849C15.4957 37.9511 15.4921 37.9184 15.4893 37.8845C15.4893 37.8818 15.4893 37.88 15.4884 37.8781C15.4874 37.8677 15.4863 37.8566 15.4854 37.8462C15.4854 37.8434 15.4846 37.8398 15.4846 37.8367C15.4836 37.8265 15.4827 37.8153 15.4818 37.805C15.4818 37.8031 15.4808 37.8003 15.4808 37.7976C15.478 37.7638 15.4744 37.731 15.4717 37.6963C15.4708 37.6935 15.4708 37.6898 15.4708 37.6871C15.4697 37.6776 15.4687 37.6665 15.4678 37.6571C15.4669 37.6533 15.4669 37.6496 15.4669 37.6457C15.4659 37.6365 15.465 37.6261 15.4641 37.6169C15.4631 37.6121 15.4631 37.6083 15.4631 37.6038C15.4595 37.5719 15.4568 37.5381 15.4537 37.5054C15.4529 37.5026 15.4529 37.4997 15.4529 37.4959C15.452 37.4875 15.451 37.4773 15.4501 37.4687C15.4501 37.4632 15.4492 37.4576 15.4492 37.4528C15.4482 37.4436 15.4474 37.4342 15.4465 37.4259C15.4465 37.4201 15.4455 37.4154 15.4455 37.4109C15.4446 37.4014 15.4437 37.3929 15.4427 37.3837C15.4427 37.3809 15.4427 37.3781 15.4418 37.3751C15.44 37.3566 15.4391 37.3387 15.4371 37.319C15.4361 37.3135 15.4361 37.3077 15.4352 37.3022C15.4352 37.2947 15.4343 37.2853 15.4333 37.278C15.4325 37.2713 15.4325 37.2657 15.4316 37.2591C15.4306 37.2507 15.4306 37.2431 15.4297 37.2347C15.4288 37.2281 15.4288 37.2216 15.4278 37.215C15.4269 37.2075 15.4269 37.1992 15.4261 37.1908C15.4261 37.187 15.4251 37.1825 15.4251 37.1775C15.4232 37.1608 15.4223 37.1439 15.4203 37.127C15.4203 37.1215 15.4194 37.1148 15.4184 37.1084C15.4184 37.1007 15.4176 37.0934 15.4167 37.0848C15.4167 37.0784 15.4157 37.0718 15.4157 37.0652C15.4148 37.0576 15.4139 37.0484 15.4129 37.0408C15.4129 37.0334 15.412 37.0279 15.412 37.0212C15.411 37.0138 15.4102 37.0062 15.4093 36.9979C15.4082 36.9874 15.4082 36.9773 15.4073 36.966C15.4063 36.9557 15.4054 36.9452 15.4047 36.9351C15.4035 36.9285 15.4035 36.921 15.4026 36.9146C15.4018 36.906 15.4018 36.8986 15.4008 36.89C15.3999 36.8836 15.3999 36.8769 15.399 36.8705C15.399 36.8631 15.398 36.8545 15.3971 36.8472C15.3971 36.8395 15.3961 36.8319 15.3953 36.8245C15.3953 36.8181 15.3944 36.8105 15.3935 36.8031C15.3925 36.789 15.3914 36.7759 15.3905 36.7628C15.3896 36.7553 15.3896 36.7487 15.3886 36.7412C15.3877 36.7337 15.3877 36.7262 15.3869 36.7178C15.3869 36.7112 15.3859 36.7037 15.385 36.6963C15.385 36.6888 15.3841 36.6813 15.3831 36.6738C15.3831 36.6663 15.3822 36.6588 15.3822 36.6513C15.3812 36.643 15.3804 36.6354 15.3804 36.6271C15.3795 36.6204 15.3786 36.6138 15.3786 36.6072C15.3776 36.5952 15.3767 36.583 15.3756 36.5708C15.3747 36.5616 15.3747 36.5549 15.3737 36.5456C15.3728 36.5371 15.372 36.5287 15.372 36.5211C15.371 36.5147 15.371 36.507 15.3701 36.5006C15.3692 36.492 15.3692 36.4838 15.3682 36.4761C15.3682 36.4697 15.3673 36.4622 15.3664 36.4556C15.3664 36.4462 15.3654 36.437 15.3646 36.4275C15.3646 36.422 15.3636 36.4164 15.3636 36.4106C15.3627 36.3965 15.3618 36.3825 15.3599 36.3684C15.3599 36.362 15.3599 36.3564 15.3588 36.3507C15.3579 36.3415 15.3579 36.332 15.3571 36.3227C15.3561 36.316 15.3561 36.3105 15.3552 36.303C15.3552 36.2955 15.3542 36.2863 15.3533 36.2787C15.3533 36.271 15.3524 36.2637 15.3524 36.257C15.3515 36.2477 15.3505 36.2383 15.3505 36.2299C15.3497 36.2244 15.3497 36.2186 15.3487 36.2131C15.3478 36.1981 15.3469 36.1841 15.3459 36.1691C15.3459 36.1644 15.345 36.1586 15.345 36.1541C15.3442 36.1436 15.3432 36.1336 15.3432 36.1231C15.3421 36.1176 15.3421 36.1109 15.3411 36.1053C15.3411 36.0961 15.3403 36.0867 15.3393 36.0772C15.3393 36.0717 15.3384 36.0659 15.3384 36.0604C15.3375 36.0481 15.3366 36.0371 15.3356 36.0248C15.3356 36.0221 15.3356 36.0174 15.3356 36.0145C15.3338 35.9985 15.3329 35.9846 15.332 35.9686C15.332 35.9649 15.332 35.9612 15.331 35.9574C15.331 35.9462 15.3301 35.9349 15.3292 35.9238C15.3292 35.9171 15.3282 35.9135 15.3282 35.9069C15.3274 35.8966 15.3265 35.8862 15.3265 35.876C15.3254 35.8702 15.3254 35.8656 15.3245 35.86C15.3245 35.8479 15.3235 35.8356 15.3226 35.8234C15.3226 35.8197 15.3216 35.8178 15.3216 35.8142C15.3207 35.7992 15.3199 35.7833 15.3189 35.7683C15.3189 35.7645 15.318 35.7616 15.318 35.757C15.3171 35.7447 15.3171 35.7337 15.3161 35.7214C15.3152 35.7168 15.3152 35.712 15.3152 35.7073C15.3143 35.6961 15.3132 35.685 15.3122 35.6737C15.3122 35.67 15.3122 35.6634 15.3113 35.6596C15.3113 35.6465 15.3106 35.6334 15.3097 35.6204C15.3097 35.6174 15.3097 35.6156 15.3086 35.6127C15.3077 35.5977 15.3067 35.5818 15.3058 35.566C15.3058 35.5632 15.3058 35.5594 15.3058 35.5555C15.3049 35.5435 15.3039 35.5313 15.3031 35.5191C15.3031 35.5154 15.3022 35.5099 15.3022 35.505C15.3012 35.4939 15.3012 35.4826 15.3003 35.4713C15.3003 35.4667 15.2994 35.462 15.2994 35.4575C15.2984 35.4441 15.2973 35.4312 15.2973 35.4181C15.2964 35.4153 15.2964 35.4134 15.2964 35.4105C15.2956 35.3956 15.2947 35.3787 15.2939 35.3637C15.2939 35.359 15.2939 35.3562 15.2928 35.3525C15.2928 35.3403 15.2918 35.3282 15.2909 35.317C15.2909 35.3112 15.29 35.3057 15.29 35.301C15.29 35.2907 15.289 35.2793 15.2882 35.2693C15.2882 35.2635 15.2882 35.2588 15.2873 35.2543C15.2863 35.2401 15.2863 35.226 15.2854 35.2129C15.2854 35.211 15.2854 35.2092 15.2845 35.2074C15.2835 35.1914 15.2827 35.1755 15.2827 35.1596C15.2818 35.1559 15.2818 35.153 15.2818 35.1492C15.2807 35.137 15.2797 35.1247 15.2797 35.1128C15.2788 35.108 15.2788 35.1024 15.2788 35.0978C15.2779 35.0864 15.2779 35.0754 15.2769 35.0641C15.2769 35.0595 15.276 35.0547 15.276 35.0491C15.2751 35.0359 15.2741 35.0228 15.2741 35.0107C15.2741 35.0078 15.2733 35.005 15.2733 35.0023C15.2724 34.9864 15.2724 34.9713 15.2714 34.9554C15.2705 34.9507 15.2705 34.946 15.2705 34.9413C15.2696 34.9302 15.2686 34.918 15.2686 34.9068C15.2686 34.9021 15.2677 34.8983 15.2677 34.8927C15.2669 34.8813 15.2669 34.8683 15.2659 34.8571C15.2659 34.8535 15.2659 34.8486 15.265 34.8449C15.265 34.8299 15.2639 34.814 15.263 34.7989C15.263 34.798 15.263 34.798 15.263 34.7972C15.262 34.7803 15.2611 34.7644 15.2602 34.7475C15.2602 34.7456 15.2602 34.7429 15.2602 34.7401C15.2592 34.727 15.2584 34.7139 15.2584 34.6998C15.2575 34.6961 15.2575 34.6912 15.2575 34.6867C15.2565 34.6753 15.2565 34.6632 15.2556 34.6511C15.2556 34.6465 15.2556 34.6426 15.2547 34.6379C15.2547 34.6229 15.2537 34.6089 15.2528 34.5949C15.2528 34.5929 15.2528 34.592 15.2528 34.5902C15.252 34.5733 15.251 34.5574 15.2501 34.5405C15.2501 34.5387 15.2501 34.535 15.2501 34.5322C15.2492 34.5191 15.2492 34.506 15.2482 34.4928C15.2482 34.4882 15.2471 34.4836 15.2471 34.4797C15.2471 34.4674 15.2462 34.4545 15.2453 34.4422C15.2453 34.4395 15.2453 34.4338 15.2453 34.431C15.2435 34.3983 15.2426 34.3655 15.2407 34.3326C15.2407 34.3299 15.2407 34.3271 15.2407 34.3242C15.2398 34.3112 15.2388 34.2971 15.2388 34.284C15.2388 34.2803 15.2379 34.2757 15.2379 34.2709C15.2379 34.2577 15.2371 34.2466 15.2361 34.2335C15.2361 34.2298 15.2361 34.2259 15.2361 34.2221C15.2342 34.1894 15.2333 34.1566 15.2324 34.123C15.2316 34.1211 15.2316 34.1183 15.2316 34.1153C15.2316 34.1014 15.2304 34.0874 15.2294 34.0733C15.2294 34.0697 15.2294 34.0667 15.2294 34.063C15.2285 34.0498 15.2285 34.0348 15.2277 34.0217C15.2277 34.0198 15.2277 34.0152 15.2277 34.0134C15.2258 33.9796 15.2249 33.946 15.2239 33.9123C15.2239 33.9113 15.223 33.9084 15.223 33.9074C15.223 33.8925 15.2222 33.8768 15.2222 33.8627C15.2212 33.8596 15.2212 33.856 15.2212 33.8532C15.2212 33.8391 15.2203 33.8251 15.2192 33.811C15.2192 33.8082 15.2192 33.8046 15.2192 33.8017C15.2183 33.7689 15.2166 33.7353 15.2156 33.7014C15.2156 33.6986 15.2156 33.6959 15.2156 33.6931C15.2145 33.68 15.2145 33.665 15.2136 33.6518C15.2136 33.6481 15.2136 33.6434 15.2136 33.6389C15.2128 33.6257 15.2128 33.6135 15.2118 33.6003C15.2118 33.5967 15.2118 33.5929 15.2118 33.59C15.2109 33.5563 15.21 33.5216 15.2081 33.488C15.2081 33.4861 15.2081 33.4833 15.2081 33.4815C15.2081 33.4674 15.2073 33.4533 15.2073 33.4393C15.2073 33.4347 15.2073 33.4319 15.2062 33.4271C15.2062 33.4141 15.2054 33.3989 15.2054 33.3859C15.2054 33.383 15.2054 33.3794 15.2054 33.3775C15.2045 33.3437 15.2024 33.3092 15.2015 33.2754C15.2015 33.2726 15.2015 33.2687 15.2015 33.266C15.2015 33.2529 15.2007 33.239 15.2007 33.2249C15.2007 33.221 15.2007 33.2173 15.1999 33.2137C15.1999 33.1996 15.1999 33.1855 15.1989 33.1716C15.1989 33.1687 15.1989 33.1668 15.1989 33.1632C15.1979 33.1285 15.1969 33.0947 15.196 33.0601C15.196 33.0581 15.196 33.0544 15.196 33.0517C15.1951 33.0385 15.1951 33.0236 15.1951 33.0103C15.1941 33.0058 15.1941 33.002 15.1941 32.9973C15.1941 32.9853 15.1941 32.972 15.1932 32.9589C15.1932 32.9551 15.1932 32.9504 15.1932 32.9458C15.1922 32.9129 15.1913 32.8784 15.1905 32.8446C15.1905 32.8419 15.1905 32.839 15.1905 32.8362C15.1905 32.8221 15.1896 32.8082 15.1896 32.7941C15.1896 32.7905 15.1896 32.7847 15.1896 32.7819C15.1886 32.7679 15.1886 32.7547 15.1886 32.7418C15.1886 32.7379 15.1877 32.7341 15.1877 32.7305C15.1877 32.6967 15.1867 32.6631 15.1857 32.6284C15.1857 32.6245 15.1857 32.6209 15.1857 32.6172C15.1857 32.604 15.1847 32.5909 15.1847 32.5787C15.1847 32.5731 15.1847 32.5695 15.1847 32.5637C15.1838 32.5507 15.1838 32.5385 15.1838 32.5254C15.1838 32.5217 15.1838 32.5161 15.1838 32.5121C15.183 32.4785 15.182 32.4457 15.182 32.4121C15.1811 32.4063 15.1811 32.4017 15.1811 32.3971C15.1811 32.3849 15.1811 32.3727 15.1811 32.3606C15.1811 32.3549 15.1802 32.3502 15.1802 32.3447C15.1802 32.3325 15.1802 32.3203 15.1802 32.308C15.1802 32.3034 15.1802 32.2987 15.1792 32.2939C15.1792 32.2762 15.1792 32.2603 15.1792 32.2434H25.7519C25.535 36.1148 24.8731 42.8824 22.8576 48.1743C22.1539 50.0228 20.481 51.2946 18.554 51.495Z" fill="#FFEA94"/>
<path d="M20.0186 60.1814H23.1298V54.6171H20.0186V60.1814Z" fill="#FCAB28"/>
<path d="M23.88 55.5752H19.2923C18.9992 55.5752 18.7627 55.3364 18.7627 55.0422C18.7627 54.7483 18.9992 54.5095 19.2923 54.5095H23.88C24.1722 54.5095 24.4095 54.7483 24.4095 55.0422C24.4095 55.3364 24.1722 55.5752 23.88 55.5752Z" fill="#FCAB28"/>
<path d="M29.3531 64.7803C28.2004 59.9772 23.1298 60.1804 23.1298 60.1804H20.0185C15.4087 60.1804 14.1406 64.577 14.1406 64.577L29.3531 64.7803Z" fill="#FFCE45"/>
<path d="M23.88 60.675H19.2923C18.9992 60.675 18.7627 60.4371 18.7627 60.1432C18.7627 59.849 18.9992 59.6102 19.2923 59.6102H23.88C24.1722 59.6102 24.4095 59.849 24.4095 60.1432C24.4095 60.4371 24.1722 60.675 23.88 60.675Z" fill="#FCAB28"/>
<path d="M29.3533 65.7365H14.1408C13.505 65.7365 12.9893 65.2177 12.9893 64.5771C12.9893 63.9366 13.505 63.418 14.1408 63.418H29.3533C29.99 63.418 30.5056 63.9366 30.5056 64.5771C30.5056 65.2177 29.99 65.7365 29.3533 65.7365Z" fill="#FFCE45"/>
<path d="M12.9121 16.9409H19.9807V9.05786H12.9121V16.9409Z" fill="#FFEA94"/>
<path d="M29.0464 16.9409H32.8883V9.05786H29.0464V16.9409Z" fill="#FFE266"/>
<path d="M12.063 16.3408L12.858 14.3208L13.6019 16.3689L14.9944 17.1677L13.574 17.9168L12.7789 20.4845L12.0351 17.8885L10.6426 17.089L12.063 16.3408Z" fill="white"/>
<path d="M94.4893 46.2533L100.261 53.2225L101.009 49.5793L104.727 49.3843L98.8948 42.7429L94.4893 46.2533Z" fill="#CD3414"/>
<path d="M100.39 52.5952L100.452 52.2922L100.575 52.4383L100.39 52.5952Z" fill="#FFDD7D"/>
<path d="M100.358 52.6226L97.5313 49.2557L97.5103 48.7881L100.452 52.2923L100.39 52.5953L100.358 52.6226Z" fill="#F09F36"/>
<path d="M103.75 49.5503L103.656 49.4405L103.892 49.428L103.75 49.5503Z" fill="#FFDD7D"/>
<path d="M103.892 49.4281L103.656 49.4406L99.1616 44.184L99.3772 43.9978L103.966 49.3644L103.892 49.4281Z" fill="#F09F36"/>
<path d="M91.2539 46.6428L91.8714 55.1311L94.8286 52.4466L97.7625 54.4012L97.3501 45.2207L91.2539 46.6428Z" fill="#FE5629"/>
<path d="M92.797 54.3772L92.6909 54.3869L92.7898 54.297L92.797 54.3772ZM92.083 46.4492L91.8037 46.5144L91.7642 46.0725L92.0467 46.0468L92.083 46.4492Z" fill="#FFDD7D"/>
<path d="M92.6918 54.3868L92.5151 54.4029L91.8047 46.5144L92.084 46.4491L92.7908 54.2969L92.6918 54.3868Z" fill="#FFAA3D"/>
<path d="M97.1375 53.9848L96.9445 53.9979L96.9346 53.8497L97.1375 53.9848Z" fill="#FFDD7D"/>
<path d="M96.6551 45.3827L96.375 45.4481L96.3516 45.0967L96.6348 45.0775L96.6551 45.3827Z" fill="#F09F36"/>
<path d="M97.2277 53.9788L97.1375 53.9847L96.9346 53.8497L96.3745 45.4481L96.6546 45.3827L97.2277 53.9788Z" fill="#FFAA3D"/>
<path d="M85.3259 43.0616C85.1734 42.7043 85.9152 42.0392 85.8172 41.6744C85.717 41.3005 84.7446 41.0997 84.6995 40.7231C84.6535 40.3399 85.5516 39.9124 85.5607 39.5319C85.5697 39.1473 84.6936 38.6774 84.7566 38.3011C84.8202 37.9225 85.8014 37.7673 85.9173 37.403C86.033 37.0381 85.3233 36.3393 85.4894 35.9944C85.6553 35.6503 86.6402 35.778 86.8535 35.4598C87.0658 35.1433 86.5792 34.272 86.8364 33.9869C87.0905 33.7051 87.9991 34.1072 88.2952 33.8614C88.5859 33.6198 88.3646 32.6455 88.6933 32.4442C89.0144 32.2478 89.773 32.8917 90.1282 32.7385C90.4837 32.5852 90.5429 31.5884 90.9057 31.4899C91.2773 31.3891 91.8264 32.2219 92.2006 32.1767C92.5815 32.1305 92.9186 31.1911 93.2967 31.2001C93.6793 31.2093 93.9714 32.1645 94.3456 32.228C94.7218 32.2917 95.3089 31.486 95.671 31.6026C96.0338 31.7191 96.0478 32.7181 96.3905 32.8853C96.7327 33.0521 97.5209 32.4439 97.8374 32.6586C98.1517 32.8722 97.8862 33.8344 98.1695 34.0929C98.4498 34.3487 99.3766 33.989 99.621 34.2865C99.8609 34.5791 99.3352 35.4261 99.5356 35.7568C99.7309 36.0797 100.721 35.9977 100.873 36.355C101.026 36.7123 100.284 37.3773 100.382 37.7422C100.482 38.1161 101.454 38.317 101.5 38.6936C101.545 39.0767 100.648 39.5041 100.639 39.8846C100.629 40.2692 101.505 40.7392 101.443 41.1154C101.379 41.494 100.398 41.6492 100.282 42.0136C100.166 42.3786 100.876 43.0774 100.71 43.4221C100.544 43.7663 99.5589 43.6387 99.3456 43.9568C99.1333 44.2732 99.6199 45.1445 99.3627 45.4297C99.1086 45.7115 98.1997 45.3095 97.9039 45.5553C97.6134 45.7967 97.8346 46.7711 97.5058 46.9723C97.1847 47.1689 96.4261 46.5248 96.0706 46.6781C95.7154 46.8313 95.6563 47.8282 95.2935 47.9267C94.9218 48.0275 94.3727 47.1946 93.9985 47.2399C93.6174 47.2862 93.2805 48.2254 92.9022 48.2165C92.5198 48.2073 92.2278 47.252 91.8534 47.1887C91.4771 47.1249 90.8903 47.9305 90.5278 47.8142C90.165 47.6975 90.1513 46.6985 89.8086 46.5313C89.4665 46.3645 88.6782 46.9726 88.3618 46.758C88.0473 46.5444 88.3128 45.5821 88.0296 45.3236C87.7493 45.0679 86.8225 45.4276 86.5781 45.13C86.338 44.8376 86.8638 43.9906 86.6637 43.6597C86.4683 43.3369 85.4782 43.4189 85.3259 43.0616Z" fill="#FCAB28"/>
<path d="M86.8469 42.4056C85.366 38.9317 86.9648 34.9081 90.4181 33.4185C93.8717 31.9288 97.8716 33.5373 99.3524 37.0111C100.833 40.4848 99.2344 44.5084 95.7809 45.9982C92.3276 47.4878 88.3277 45.8794 86.8469 42.4056Z" fill="#FFCE45"/>
<path d="M90.4724 33.546C87.0945 35.0031 85.5249 38.953 86.9734 42.3509C88.4219 45.7488 92.3484 47.3279 95.7264 45.8706C99.1043 44.4135 100.674 40.4638 99.2254 37.0659C97.7769 33.6678 93.8503 32.0889 90.4724 33.546ZM95.835 46.1257C94.1312 46.8606 92.2446 46.8841 90.5229 46.1919C88.8012 45.4997 87.4506 44.1744 86.7199 42.4603C85.9892 40.7461 85.9657 38.8483 86.654 37.1165C87.3424 35.3845 88.6599 34.026 90.3637 33.291C92.0679 32.556 93.9544 32.5324 95.6762 33.2246C97.3977 33.9171 98.7482 35.2423 99.479 36.9565C100.21 38.6705 100.233 40.5684 99.5451 42.3001C98.8567 44.032 97.5392 45.3906 95.835 46.1257Z" fill="#FCAB28"/>
<path d="M88.6208 41.6403C87.5601 39.1522 88.7054 36.2705 91.1786 35.2036C93.6521 34.1366 96.517 35.2886 97.5777 37.7766C98.6383 40.2646 97.493 43.1464 95.0194 44.2134C92.5462 45.2803 89.6813 44.1283 88.6208 41.6403Z" fill="#FFD733"/>
<path d="M96.0562 36.3196C95.9338 36.0327 95.7866 35.7646 95.6196 35.5146C94.3215 34.7267 92.6784 34.5565 91.1786 35.2034C88.7054 36.2703 87.5601 39.152 88.6208 41.6402C88.7431 41.927 88.8903 42.1952 89.0573 42.4451C90.3554 43.2331 91.9985 43.4033 93.4983 42.7563C95.9715 41.6894 97.1168 38.8076 96.0562 36.3196Z" fill="#FFE266"/>
<path d="M91.2351 35.3345C88.8376 36.3687 87.7235 39.1722 88.7517 41.5838C89.7798 43.9954 92.5667 45.1161 94.9641 44.082C97.3617 43.0477 98.4757 40.2442 97.4477 37.8327C96.4196 35.421 93.6326 34.3004 91.2351 35.3345ZM95.0759 44.3444C92.5348 45.4406 89.5805 44.2527 88.4908 41.6964C87.401 39.14 88.582 36.1684 91.1232 35.0722C93.6646 33.976 96.6189 35.1638 97.7085 37.7201C98.7984 40.2765 97.6174 43.248 95.0759 44.3444Z" fill="#FCAB28"/>
<path d="M88.408 37.296L88.3752 36.1232L89.1777 36.9804L90.0384 37.0791L89.4915 37.7549L89.6405 39.1999L88.7217 38.0704L87.8613 37.9717L88.408 37.296Z" fill="white"/>
</svg>
