<svg width="147" height="79" viewBox="0 0 147 79" fill="none" xmlns="http://www.w3.org/2000/svg">
<path d="M17.4028 48.7794C22.1375 55.0905 22.4228 64.6406 28.6188 70.0932C35.9668 76.5588 47.7364 77.4875 56.9503 77.9344C76.2712 78.8713 97.5545 80.6771 115.763 73.5464C118.961 72.2944 122.418 71.0816 124.704 68.4048C127.373 65.283 128.544 60.6419 130.085 56.956C131.557 53.4367 133.385 49.2981 134.051 45.5585C134.893 40.833 129.864 39.1898 125.822 38.7307L17.4028 48.7794Z" fill="#898989"/>
<path d="M23.1378 34.9587C16.7213 39.3798 8.1411 40.7433 2.2387 46.5125C4.5371 46.284 7.0154 46.2143 9.392 46.492C5.7602 48.8744 2.3346 51.4586 0 55.1281C9.1428 53.0378 19.6043 52.4284 28.9877 53.5422C25.5006 56.6888 22.0645 61.6308 20.4099 66.0846C22.2115 65.4094 24.0297 64.7195 25.8828 64.1141C28.7806 63.167 38.1511 60.6691 38.1511 60.6691C38.1511 60.6691 39.6964 65.8274 39.925 67.8246C41.8731 65.8685 44.2263 64.1224 46.3701 62.3247C50.785 65.6296 54.4893 69.3236 57.9139 73.6189C58.1854 71.3293 58.1053 68.9592 58.3377 66.6653C61.1796 67.7545 62.137 70.9483 64.3174 72.8119C66.6631 70.8247 68.4937 68.0429 71.1252 66.3709C72.4801 68.5433 72.723 71.3539 74.1561 73.4728C76.9031 72.1468 79.5308 69.7807 82.1598 68.1026C84.0091 66.9207 91.7761 64.5362 89.5274 64.1902C88.8459 64.0852 94.3088 66.2742 96.0717 67.1101C98.5405 68.2817 101.289 69.2146 103.698 70.2585C104.085 68.5742 103.529 66.655 103.328 65.1046C106.023 64.3611 116.535 65.7037 118.588 66.1444C120.993 66.6591 123.417 68.0429 125.797 68.294C126.161 64.6824 122.198 62.7365 120.139 60.6217C125.795 58.8448 131.857 59.5532 137.658 59.5222C135.656 56.7651 130.788 55.8241 127.77 54.4011C123.582 52.4284 119.521 50.9151 115.121 49.7907C120.717 49.4757 126.476 49.6919 132.113 50.2111C136.428 50.6101 140.78 51.7531 145.11 51.6891C143.289 48.7694 140.647 47.0194 137.991 45.1228C140.773 45.067 143.899 46.4366 146.428 47.3797C141.378 41.1322 133.208 34.858 125.037 33.7212C118.211 32.772 110.275 32.3888 103.441 33.118C93.6068 34.166 84.9006 37.9342 75.5439 40.5967C65.9835 43.317 56.4374 40.9633 47.2496 38.3194C44.4459 37.5124 41.6411 37.3229 38.7811 36.8944C37.2472 36.6638 33.2022 36.7688 32.2282 35.6407L23.1378 34.9587Z" fill="#B2B3B3"/>
<path d="M56.6764 15.5112C56.6764 15.5112 54.0692 5.78613 63.4299 1.29573C72.7907 -3.19467 80.4545 5.42763 80.4545 5.42763C80.4545 5.42763 98.1176 18.8571 97.8767 33.5768C97.6763 45.8221 86.1412 54.1301 74.4859 53.9393C65.5348 53.7928 52.6708 48.9644 50.6967 36.7797C48.7225 24.5949 56.6764 15.5112 56.6764 15.5112Z" fill="#B2B3B3"/>
<path d="M82.0456 6.73315C82.0456 6.73315 81.8954 15.9113 81.746 25.0357C81.6217 32.6337 75.0632 37.791 67.8396 37.6728C60.5269 37.5531 54.226 32.4289 54.352 24.7299C54.4346 19.6866 56.5369 15.7634 56.6716 15.522C56.6777 15.5163 56.6778 15.5102 56.6778 15.5102C56.6778 15.5102 56.6721 15.4924 56.6606 15.4625C56.4883 14.7406 54.445 5.60974 63.4289 1.29444C72.7899 -3.19326 80.4565 5.42954 80.4565 5.42954C80.4565 5.42954 81.0553 5.88495 82.0398 6.72105C82.0457 6.72705 82.0456 6.73315 82.0456 6.73315Z" fill="white" fill-opacity="0.301961"/>
<path d="M76.3178 17.8327C74.5044 22.1618 69.5282 24.1997 65.1989 22.3863C63.1277 21.5186 61.3925 19.5702 60.4497 17.7156C59.4839 15.8159 56.4858 10.633 56.4858 10.633C56.4858 10.633 57.0964 5.48434 61.2756 2.32004L71.7641 6.71363C76.0934 8.52713 78.129 13.5088 76.3178 17.8327Z" fill="white" fill-opacity="0.501961"/>
<path d="M69.5109 10.8358C68.9951 12.0673 67.5784 12.6475 66.3469 12.1316C65.1154 11.6158 64.5353 10.1991 65.0511 8.96763C65.567 7.73613 66.9836 7.15593 68.2152 7.67183C69.4467 8.18773 70.0269 9.60433 69.5109 10.8358Z" fill="#898989"/>
<path d="M60.2215 10.5693L61.3003 7.06734L56.4419 3.08273L60.2215 10.5693Z" fill="#898989"/>
<path d="M60.5062 10.3812L53.8667 6.87134L56.4823 10.474L60.5062 10.3812Z" fill="#898989"/>
<path d="M56.6283 15.8294L54.1608 47.3915C54.1608 47.3915 48.2556 37.8944 48.8649 30.1006C49.6395 20.191 56.6283 15.8294 56.6283 15.8294Z" fill="#B2B3B3"/>
<path d="M56.6283 15.8294L54.1608 47.3915C54.1608 47.3915 48.2556 37.8944 48.8649 30.1006C49.6395 20.191 56.6283 15.8294 56.6283 15.8294Z" fill="black" fill-opacity="0.101961"/>
<path d="M50.5373 39.7511C50.445 39.4955 50.3527 39.2355 50.2656 38.9709C50.6431 33.9036 51.0982 28.8001 51.6062 23.9818C51.3447 29.063 50.9806 34.4405 50.5373 39.7511Z" fill="black" fill-opacity="0.101961"/>
<path d="M51.807 42.8674C51.7234 42.6781 51.6398 42.4887 51.5518 42.2945C51.9729 36.1905 52.5087 29.9362 53.1242 24.1002C52.8208 30.1386 52.3626 36.6005 51.807 42.8674Z" fill="black" fill-opacity="0.101961"/>
<path d="M53.0954 45.4978C53.0297 45.3802 52.9646 45.2533 52.8999 45.1217C53.3356 38.1709 53.94 30.9195 54.6465 24.2192C54.2941 31.0642 53.7583 38.4569 53.0954 45.4978Z" fill="black" fill-opacity="0.101961"/>
<path d="M85.5845 11.8796L92.3558 48.0434C92.3558 48.0434 98.8257 36.1258 97.1536 27.1959C95.0276 15.8413 85.5845 11.8796 85.5845 11.8796Z" fill="#A7A8A8"/>
<path d="M85.5845 11.8796L92.3558 48.0434C92.3558 48.0434 98.8257 36.1258 97.1536 27.1959C95.0276 15.8413 85.5845 11.8796 85.5845 11.8796Z" fill="#A7A8A8" fill-opacity="0.101961"/>
<path d="M96.1182 38.6313C96.2071 38.321 96.2953 38.0055 96.3766 37.6856C95.3134 31.8764 94.1465 26.0375 92.9448 20.5372C93.8611 26.3805 94.9429 32.5509 96.1182 38.6313Z" fill="black" fill-opacity="0.101961"/>
<path d="M94.8504 42.4377C94.9357 42.2055 95.0211 41.9733 95.1113 41.7347C93.8736 34.7319 92.4718 27.5731 91.0161 20.9111C92.0957 27.856 93.422 35.2674 94.8504 42.4377Z" fill="black" fill-opacity="0.101961"/>
<path d="M93.5025 45.6845C93.5731 45.5381 93.6418 45.3809 93.7095 45.2186C92.3561 37.2376 90.7524 28.9347 89.0811 21.2862C90.3157 29.1574 91.8479 37.6346 93.5025 45.6845Z" fill="black" fill-opacity="0.101961"/>
<path d="M115.326 58.8569C119.991 56.191 126.228 55.3688 130.519 51.8901C128.848 52.0279 127.047 52.07 125.319 51.9025C127.959 50.466 130.449 48.9078 132.146 46.6951C125.5 47.9555 117.895 48.3229 111.074 47.6513C113.609 45.7539 116.107 42.774 117.309 40.0884C116 40.4956 114.678 40.9117 113.331 41.2767C111.224 41.8478 104.412 43.354 104.412 43.354C104.412 43.354 103.289 40.2435 103.123 39.0392C101.707 40.2187 99.9961 41.2717 98.4378 42.3557C95.2284 40.3629 92.5355 38.1354 90.046 35.5454C89.8486 36.9259 89.9069 38.3552 89.738 39.7384C87.672 39.0816 86.9761 37.1557 85.391 36.032C83.6858 37.2302 82.355 38.9077 80.4421 39.9159C79.4572 38.606 79.2806 36.9111 78.2388 35.6335C76.2419 36.433 74.3317 37.8598 72.4205 38.8717C71.0762 39.5844 65.43 41.0222 67.0647 41.2308C67.5601 41.2941 63.5889 39.9741 62.3073 39.4701C60.5126 38.7636 58.5144 38.2012 56.7631 37.5717C56.4817 38.5873 56.8859 39.7445 57.0327 40.6794C55.0732 41.1277 47.4315 40.3182 45.9391 40.0525C44.1909 39.7421 42.4289 38.9076 40.6988 38.7562C40.4337 40.934 43.3149 42.1073 44.8119 43.3825C40.7001 44.4539 36.2931 44.0268 32.0766 44.0455C33.5316 45.708 37.0703 46.2754 39.2646 47.1334C42.3092 48.3229 45.2612 49.2354 48.4598 49.9134C44.3914 50.1033 40.2047 49.9731 36.1076 49.66C32.9703 49.4194 29.807 48.7301 26.6594 48.7687C27.9826 50.5292 29.9032 51.5845 31.8341 52.7282C29.8119 52.7618 27.5396 51.9359 25.7012 51.3673C29.3717 55.1344 35.3114 58.9176 41.2507 59.603C46.2131 60.1754 51.9821 60.4065 56.9501 59.9668C64.0992 59.3348 70.4281 57.0628 77.2299 55.4573C84.1799 53.817 91.1194 55.2362 97.7984 56.8304C99.8366 57.317 101.875 57.4314 103.955 57.6898C105.07 57.8288 108.01 57.7655 108.718 58.4457L115.326 58.8569Z" fill="#B2B3B3"/>
<path d="M105.276 32.5836C102.648 32.5362 100.486 33.8636 100.455 35.5427C100.425 37.2219 102.538 38.6267 105.166 38.6743C107.793 38.7218 109.956 37.3944 109.986 35.7153C110.016 34.0361 107.903 32.6314 105.276 32.5836Z" fill="#A7A8A8"/>
<path d="M105.276 32.5836C102.648 32.5362 100.486 33.8636 100.455 35.5427C100.425 37.2219 102.538 38.6267 105.165 38.6743C107.793 38.7218 109.955 37.3944 109.986 35.7153C110.016 34.0361 107.903 32.6314 105.276 32.5836ZM105.154 39.2713C102.012 39.2145 99.4846 37.5342 99.5209 35.5258C99.5573 33.5175 102.144 31.9298 105.286 31.9867C108.429 32.0435 110.956 33.7239 110.92 35.7323C110.883 37.7407 108.297 39.3282 105.154 39.2713Z" fill="#CACACA"/>
<path d="M106.099 36.6846C106.197 36.6172 106.248 36.5286 106.25 36.4185C106.251 36.3312 106.204 36.2598 106.108 36.2044C106.012 36.1491 105.871 36.1014 105.687 36.0613L105.673 36.8186C105.859 36.7965 106.001 36.7519 106.099 36.6846ZM104.668 35.2875C104.772 35.3501 104.921 35.4042 105.115 35.4501L105.13 34.6336C104.939 34.6556 104.79 34.7022 104.68 34.7736C104.571 34.845 104.515 34.9357 104.513 35.0457C104.511 35.1445 104.563 35.225 104.668 35.2875ZM106.719 36.9877C106.467 37.1398 106.131 37.2317 105.711 37.2636L105.703 37.7332L105.028 37.721L105.036 37.2598C104.74 37.2404 104.466 37.1988 104.214 37.1349C103.961 37.0711 103.741 36.9867 103.553 36.8818L103.851 36.4894C104.232 36.6882 104.645 36.8014 105.09 36.8292L105.106 35.9492C104.811 35.896 104.563 35.8386 104.361 35.7771C104.159 35.7156 103.99 35.6265 103.856 35.5098C103.721 35.3931 103.655 35.2431 103.659 35.0598C103.661 34.9075 103.723 34.7697 103.845 34.6463C103.966 34.523 104.135 34.4216 104.35 34.3423C104.566 34.263 104.813 34.2146 105.091 34.197L105.1 33.7274L105.775 33.7396L105.767 34.205C106.022 34.2294 106.262 34.2732 106.486 34.3365C106.71 34.3999 106.898 34.478 107.051 34.571L106.753 34.9634C106.434 34.7884 106.087 34.6806 105.712 34.6399L105.696 35.5579C105.99 35.6113 106.235 35.6672 106.428 35.7257C106.621 35.7842 106.783 35.8696 106.913 35.9819C107.044 36.0943 107.107 36.2394 107.104 36.4171C107.1 36.6455 106.972 36.8357 106.719 36.9877Z" fill="#898989"/>
<path d="M99.8685 35.5321C99.9042 33.5609 102.396 31.9952 105.46 31.9917C105.402 31.9894 105.344 31.9878 105.286 31.9867C102.144 31.9298 99.5573 33.5175 99.5209 35.5258C99.4846 37.5342 102.012 39.2145 105.154 39.2713C105.213 39.2724 105.271 39.2727 105.328 39.2726C102.267 39.1583 99.8328 37.5033 99.8685 35.5321Z" fill="#CACACA"/>
<path d="M105.276 32.5836C105.225 32.5828 105.174 32.5825 105.123 32.5828C107.68 32.6805 109.711 34.0631 109.681 35.7097C109.651 37.3564 107.571 38.6645 105.013 38.6698C105.064 38.6717 105.114 38.6734 105.165 38.6743C107.793 38.7218 109.955 37.3944 109.986 35.7153C110.016 34.0361 107.903 32.6314 105.276 32.5836Z" fill="#898989"/>
<path d="M106.595 36.8874C106.343 37.0394 106.007 37.1315 105.587 37.1633L105.578 37.6329L104.903 37.6207L104.911 37.1595C104.616 37.1401 104.342 37.0985 104.089 37.0346C103.836 36.9708 103.616 36.8865 103.428 36.7816L103.727 36.3891C104.107 36.5878 104.52 36.7012 104.965 36.729L104.981 35.849C104.687 35.7958 104.438 35.7382 104.236 35.6768C104.034 35.6154 103.866 35.5261 103.731 35.4095C103.596 35.2928 103.531 35.1428 103.534 34.9595C103.537 34.8072 103.599 34.6693 103.72 34.546C103.842 34.4227 104.01 34.3213 104.226 34.242C104.441 34.1627 104.688 34.1143 104.967 34.0967L104.975 33.6271L105.651 33.6393L105.642 34.1048C105.898 34.1292 106.138 34.1729 106.361 34.2362C106.586 34.2995 106.774 34.3777 106.927 34.4707L106.628 34.8632C106.309 34.6882 105.962 34.5803 105.588 34.5396L105.571 35.4576C105.866 35.511 106.11 35.5668 106.303 35.6253C106.496 35.6838 106.658 35.7692 106.789 35.8816C106.919 35.994 106.983 36.1391 106.979 36.3167C106.975 36.5452 106.847 36.7355 106.595 36.8874ZM105.975 36.5843C106.073 36.5169 106.123 36.4282 106.125 36.3182C106.127 36.2308 106.079 36.1595 105.983 36.1041C105.887 36.0488 105.747 36.0011 105.562 35.961L105.548 36.7183C105.734 36.6962 105.876 36.6516 105.975 36.5843ZM104.543 35.1873C104.648 35.2499 104.797 35.3041 104.99 35.3499L105.005 34.5333C104.815 34.5553 104.665 34.6019 104.556 34.6732C104.446 34.7447 104.391 34.8354 104.389 34.9453C104.387 35.0441 104.438 35.1248 104.543 35.1873Z" fill="#E5E5E5"/>
<path d="M110.891 36.9132L110.899 36.9133L110.92 35.7321C110.884 37.7406 108.297 39.3282 105.155 39.2713C102.012 39.2145 99.4847 37.5342 99.521 35.5258C99.521 35.5259 99.4975 36.8263 99.4964 36.8866C99.4629 38.7379 101.992 40.2905 105.135 40.3474C108.278 40.4042 110.862 38.9442 110.896 37.0929C110.897 37.0326 110.895 36.9727 110.891 36.9132Z" fill="#898989" stroke="#CACACA" stroke-width="0.0762" stroke-miterlimit="22.9256"/>
<path d="M55.2996 9.71173C57.8758 9.37513 58.8304 7.40123 57.4275 5.31173C56.0246 3.22233 52.7873 1.79633 50.211 2.13313C47.6348 2.46983 46.6801 4.44364 48.0831 6.53314C49.4859 8.62254 52.7233 10.0486 55.2996 9.71173Z" fill="#A7A8A8"/>
<path d="M47.4362 4.53842C47.4797 5.06532 47.8811 5.64151 48.2683 6.21791C49.6711 8.30741 52.9085 9.73333 55.4847 9.39653C56.6188 9.24833 57.4382 8.78273 57.881 8.12983C57.9007 8.15383 57.634 9.46621 56.5208 9.97211C55.2786 10.5365 52.8941 10.6331 50.7383 9.54442C47.7646 8.04202 47.5411 6.48232 47.4362 6.15832C47.2344 5.53602 47.4158 4.54902 47.4362 4.53842Z" fill="#898989"/>
<path d="M50.6281 2.75424C52.782 2.47274 55.4886 3.66494 56.6616 5.41184C57.8345 7.15874 57.0364 8.80905 54.8825 9.09065C52.7286 9.37225 50.0219 8.17993 48.8491 6.43303C47.6761 4.68603 48.4741 3.03584 50.6281 2.75424Z" fill="#A7A8A8"/>
<path d="M50.6281 2.75423C52.782 2.47273 55.4886 3.66493 56.6616 5.41183C57.8345 7.15873 57.0364 8.80904 54.8825 9.09064C52.7286 9.37224 50.0219 8.17992 48.8491 6.43302C47.6761 4.68602 48.4741 3.03583 50.6281 2.75423ZM55.2996 9.71173C57.8758 9.37513 58.8304 7.40123 57.4275 5.31173C56.0246 3.22233 52.7873 1.79633 50.211 2.13313C47.6348 2.46983 46.6801 4.44364 48.0831 6.53314C49.4859 8.62254 52.7233 10.0486 55.2996 9.71173Z" fill="#CACACA"/>
<path d="M57.1425 5.34904C55.7655 3.29814 52.6215 1.88673 50.0698 2.15363C50.1163 2.14633 50.1632 2.13933 50.2109 2.13313C52.7872 1.79633 56.0245 3.22233 57.4274 5.31173C58.8303 7.40123 57.8757 9.37513 55.2995 9.71173C55.2518 9.71803 55.2038 9.72343 55.1557 9.72853C57.6252 9.33893 58.5195 7.39974 57.1425 5.34904Z" fill="#E5E5E5"/>
<path d="M54.1404 6.05071C54.0931 5.91701 54.0168 5.80561 53.9114 5.71681C53.8276 5.64621 53.7506 5.6284 53.6802 5.663C53.6099 5.6978 53.539 5.77481 53.4675 5.89401L54.1935 6.5054C54.2053 6.336 54.1876 6.18441 54.1404 6.05071ZM52.5421 6.11411C52.6209 6.07801 52.6995 5.999 52.7781 5.8771L51.9954 5.218C51.9826 5.3911 52.001 5.55061 52.05 5.69651C52.0993 5.84271 52.1764 5.96 52.2819 6.0487C52.3765 6.1285 52.4633 6.15021 52.5421 6.11411ZM54.5423 5.7837C54.6436 6.1104 54.6723 6.45811 54.6281 6.82671L55.0784 7.20581L54.9464 7.74821L54.5044 7.37591C54.4331 7.60211 54.3443 7.79321 54.2379 7.94921C54.1316 8.10531 54.0111 8.21851 53.8767 8.28901L53.5525 7.73401C53.8114 7.58041 53.9938 7.3326 54.0998 6.9904L53.2565 6.28011C53.1528 6.47901 53.0533 6.6366 52.9583 6.753C52.8633 6.8694 52.7475 6.93641 52.6114 6.95411C52.4751 6.97181 52.3192 6.9066 52.1435 6.7586C51.9975 6.6357 51.876 6.4758 51.779 6.2787C51.682 6.0817 51.6144 5.8637 51.5765 5.6245C51.5386 5.3854 51.536 5.14511 51.5687 4.90351L51.1187 4.5244L51.2506 3.982L51.6965 4.35771C51.7655 4.16811 51.8505 4.0067 51.9512 3.8737C52.052 3.7407 52.1606 3.64871 52.2773 3.59741L52.6015 4.15241C52.3764 4.27461 52.211 4.47271 52.1052 4.74671L52.985 5.4877C53.0888 5.28901 53.1861 5.1337 53.2767 5.0221C53.3673 4.9105 53.4783 4.84591 53.6096 4.82841C53.7409 4.81081 53.8916 4.8737 54.0619 5.0171C54.2809 5.2016 54.441 5.4571 54.5423 5.7837Z" fill="#898989"/>
<path d="M54.0442 5.91564C53.9969 5.78194 53.9206 5.67054 53.8152 5.58174C53.7314 5.51114 53.6543 5.49332 53.584 5.52802C53.5137 5.56272 53.4428 5.63974 53.3714 5.75894L54.0973 6.37033C54.1091 6.20093 54.0915 6.04934 54.0442 5.91564ZM52.4458 5.97904C52.5247 5.94294 52.6033 5.86393 52.6818 5.74203L51.8992 5.08293C51.8865 5.25603 51.9047 5.41554 51.9538 5.56144C52.003 5.70764 52.0803 5.82493 52.1858 5.91373C52.2804 5.99343 52.3671 6.01514 52.4458 5.97904ZM54.4462 5.64863C54.5475 5.97533 54.5761 6.32304 54.532 6.69164L54.9822 7.07074L54.8502 7.61314L54.4082 7.24084C54.3369 7.46704 54.2481 7.65814 54.1417 7.81414C54.0354 7.97024 53.915 8.08354 53.7806 8.15394L53.4564 7.59894C53.7152 7.44534 53.8977 7.19753 54.0037 6.85533L53.1603 6.14504C53.0566 6.34394 52.9571 6.50153 52.8621 6.61793C52.767 6.73433 52.6513 6.80134 52.5151 6.81904C52.3789 6.83674 52.223 6.77153 52.0473 6.62353C51.9013 6.50063 51.7798 6.34073 51.6827 6.14363C51.5858 5.94663 51.5183 5.72863 51.4804 5.48943C51.4425 5.25033 51.4399 5.01004 51.4725 4.76844L51.0225 4.38943L51.1544 3.84693L51.6004 4.22263C51.6694 4.03303 51.7542 3.87163 51.855 3.73863C51.9558 3.60563 52.0645 3.51364 52.1811 3.46234L52.5054 4.01734C52.2802 4.13954 52.1148 4.33774 52.009 4.61164L52.8889 5.35263C52.9927 5.15393 53.0898 4.99863 53.1805 4.88703C53.2711 4.77543 53.3821 4.71084 53.5134 4.69334C53.6447 4.67574 53.7955 4.73863 53.9658 4.88203C54.1848 5.06653 54.3449 5.32203 54.4462 5.64863Z" fill="#E5E5E5"/>
<path d="M50.6281 2.75425C50.6698 2.74885 50.7119 2.74415 50.754 2.73975C48.6937 3.06745 47.9483 4.68734 49.0985 6.40044C50.2486 8.11344 52.8736 9.29285 55.006 9.07255C54.9653 9.07895 54.9243 9.08515 54.8825 9.09065C52.7286 9.37225 50.0219 8.17994 48.8491 6.43304C47.6761 4.68604 48.4741 3.03585 50.6281 2.75425Z" fill="#898989"/>
<path d="M96.2793 40.4436C98.6925 41.4065 100.489 40.1491 100.283 37.6407C100.078 35.1324 97.9473 32.3085 95.5341 31.3457C93.1209 30.383 91.3246 31.6403 91.5302 34.1486C91.7355 36.6569 93.8661 39.481 96.2793 40.4436Z" fill="#A7A8A8"/>
<path d="M91.9383 32.0919C91.7193 32.573 91.7886 33.2719 91.8454 33.9639C92.0508 36.4722 94.1813 39.2962 96.5945 40.2588C97.6568 40.6827 98.5993 40.6759 99.3043 40.3219C99.3098 40.3526 98.4368 41.3681 97.2183 41.2667C95.8585 41.1535 93.7298 40.0747 92.379 38.0726C90.5159 35.3105 91.0817 33.84 91.1481 33.506C91.2755 32.8643 91.9153 32.0912 91.9383 32.0919Z" fill="#898989"/>
<path d="M95.5953 32.0914C97.6129 32.8964 99.3941 35.2574 99.5659 37.3545C99.7377 39.4516 98.236 40.503 96.2183 39.698C94.2007 38.8932 92.4195 36.5321 92.2478 34.435C92.0759 32.3378 93.5776 31.2865 95.5953 32.0914Z" fill="#A7A8A8"/>
<path d="M95.5952 32.0913C97.6128 32.8963 99.394 35.2573 99.5658 37.3544C99.7376 39.4515 98.2359 40.5029 96.2182 39.6979C94.2006 38.8931 92.4194 36.5321 92.2477 34.435C92.0758 32.3378 93.5775 31.2864 95.5952 32.0913ZM96.2793 40.4436C98.6925 41.4065 100.489 40.1491 100.283 37.6407C100.078 35.1324 97.9473 32.3085 95.5341 31.3457C93.1209 30.383 91.3246 31.6403 91.5302 34.1486C91.7355 36.6569 93.8661 39.481 96.2793 40.4436Z" fill="#CACACA"/>
<path d="M100.016 37.5343C99.8148 35.0723 97.7587 32.3066 95.4009 31.2948C95.4452 31.3111 95.4895 31.3279 95.5342 31.3457C97.9474 32.3085 100.078 35.1324 100.283 37.6407C100.489 40.1491 98.6926 41.4066 96.2794 40.4437C96.2347 40.426 96.1902 40.4073 96.1458 40.3883C98.4915 41.2528 100.218 39.9962 100.016 37.5343Z" fill="#E5E5E5"/>
<path d="M97.0531 36.6824C97.077 36.5426 97.0647 36.4082 97.016 36.2792C96.9773 36.1768 96.9187 36.1235 96.8404 36.1195C96.7621 36.1155 96.6627 36.1483 96.5422 36.2175L96.8776 37.1053C96.9706 36.9631 97.0291 36.8222 97.0531 36.6824ZM95.6269 35.958C95.7133 35.9649 95.8205 35.9344 95.9485 35.8663L95.5868 34.9093C95.4913 35.0541 95.4294 35.2022 95.401 35.3536C95.3727 35.5052 95.3829 35.6453 95.4317 35.7742C95.4754 35.89 95.5405 35.9511 95.6269 35.958ZM97.5342 36.6454C97.4633 36.98 97.3187 37.2975 97.1004 37.5978L97.3084 38.1483L96.9286 38.5575L96.7244 38.0169C96.5518 38.1795 96.3811 38.3031 96.2121 38.3873C96.0431 38.4717 95.8828 38.5119 95.7311 38.5078L95.7188 37.8652C96.0197 37.8574 96.2998 37.7299 96.5593 37.4829L96.1695 36.4515C95.982 36.5745 95.8183 36.6635 95.6786 36.7188C95.5388 36.7741 95.405 36.7762 95.2776 36.7252C95.15 36.6742 95.0457 36.5411 94.9645 36.3263C94.897 36.1477 94.869 35.9488 94.8804 35.7295C94.8918 35.5102 94.9393 35.2871 95.0229 35.0598C95.1064 34.8326 95.2214 34.6215 95.3677 34.4266L95.1597 33.8761L95.5395 33.4669L95.7456 34.0124C95.8983 33.8806 96.0511 33.7811 96.2039 33.7141C96.3568 33.6472 96.4965 33.6198 96.6234 33.6319L96.6357 34.2746C96.3796 34.2714 96.1385 34.3637 95.9126 34.5512L96.3192 35.6274C96.5067 35.5046 96.6673 35.4164 96.8008 35.3632C96.9344 35.31 97.0628 35.3078 97.186 35.3565C97.3092 35.4052 97.4101 35.5337 97.4888 35.7419C97.59 36.0098 97.6051 36.3109 97.5342 36.6454Z" fill="#898989"/>
<path d="M97.0351 36.5174C97.059 36.3776 97.0467 36.2431 96.998 36.1142C96.9593 36.0117 96.9007 35.9585 96.8224 35.9544C96.7441 35.9505 96.6446 35.9832 96.5241 36.0524L96.8595 36.9402C96.9525 36.7981 97.0111 36.6572 97.0351 36.5174ZM95.6088 35.7929C95.6952 35.7999 95.8024 35.7693 95.9304 35.7012L95.5687 34.7442C95.4732 34.889 95.4113 35.0372 95.383 35.1885C95.3547 35.3401 95.3649 35.4802 95.4136 35.6091C95.4573 35.7249 95.5224 35.786 95.6088 35.7929ZM97.5162 36.4803C97.4452 36.8149 97.3007 37.1324 97.0823 37.4327L97.2904 37.9833L96.9106 38.3924L96.7063 37.8518C96.5337 38.0144 96.363 38.138 96.1941 38.2223C96.0251 38.3067 95.8647 38.3467 95.7131 38.3427L95.7008 37.7001C96.0017 37.6923 96.2818 37.5648 96.5413 37.3178L96.1515 36.2863C95.964 36.4094 95.8003 36.4985 95.6605 36.5537C95.5207 36.609 95.387 36.6111 95.2595 36.5602C95.132 36.5091 95.0276 36.3761 94.9464 36.1612C94.879 35.9826 94.8509 35.7838 94.8623 35.5644C94.8738 35.3451 94.9212 35.1219 95.0048 34.8946C95.0884 34.6674 95.2033 34.4564 95.3497 34.2615L95.1417 33.711L95.5214 33.3018L95.7276 33.8474C95.8802 33.7155 96.0331 33.616 96.1859 33.5491C96.3387 33.4822 96.4785 33.4547 96.6054 33.4668L96.6177 34.1095C96.3616 34.1063 96.1204 34.1986 95.8945 34.3862L96.3011 35.4624C96.4887 35.3395 96.6492 35.2512 96.7828 35.198C96.9164 35.1448 97.0447 35.1426 97.1679 35.1913C97.2911 35.24 97.3921 35.3685 97.4707 35.5768C97.572 35.8446 97.5871 36.1458 97.5162 36.4803Z" fill="#E5E5E5"/>
<path d="M95.5953 32.0914C95.6344 32.107 95.6734 32.1234 95.7123 32.1402C93.7539 31.4212 92.313 32.4717 92.4814 34.5282C92.6498 36.5846 94.366 38.8946 96.335 39.7425C96.2963 39.7283 96.2574 39.7137 96.2183 39.698C94.2007 38.8932 92.4195 36.5321 92.2478 34.435C92.0759 32.3378 93.5776 31.2865 95.5953 32.0914Z" fill="#A7A8A8"/>
</svg>
