<svg width="147" height="79" viewBox="0 0 147 79" fill="none" xmlns="http://www.w3.org/2000/svg">
<path d="M17.4028 48.7794C22.1375 55.0905 22.4228 64.6406 28.6188 70.0932C35.9668 76.5588 47.7364 77.4875 56.9503 77.9344C76.2712 78.8713 97.5545 80.6771 115.763 73.5464C118.961 72.2944 122.418 71.0816 124.704 68.4048C127.373 65.283 128.544 60.6419 130.085 56.956C131.557 53.4367 133.385 49.2981 134.051 45.5585C134.893 40.833 129.864 39.1898 125.822 38.7307L17.4028 48.7794Z" fill="#936B3B"/>
<path d="M23.1378 34.9588C16.7213 39.3799 8.1411 40.7434 2.2387 46.5126C4.5371 46.2841 7.0154 46.2144 9.392 46.4921C5.7602 48.8745 2.3346 51.4587 0 55.1282C9.1428 53.0379 19.6043 52.4285 28.9877 53.5423C25.5006 56.6889 22.0645 61.6309 20.4099 66.0847C22.2115 65.4095 24.0297 64.7196 25.8828 64.1142C28.7806 63.1671 38.1511 60.6692 38.1511 60.6692C38.1511 60.6692 39.6964 65.8275 39.925 67.8247C41.8731 65.8686 44.2263 64.1225 46.3701 62.3248C50.785 65.6297 54.4893 69.3237 57.9139 73.619C58.1854 71.3294 58.1053 68.9593 58.3377 66.6654C61.1796 67.7546 62.137 70.9484 64.3174 72.812C66.6631 70.8248 68.4937 68.043 71.1252 66.371C72.4801 68.5434 72.723 71.354 74.1561 73.4729C76.9031 72.1469 79.5308 69.7808 82.1598 68.1027C84.0091 66.9208 91.7761 64.5363 89.5274 64.1903C88.8459 64.0853 94.3088 66.2743 96.0717 67.1102C98.5405 68.2818 101.289 69.2147 103.698 70.2586C104.085 68.5743 103.529 66.6551 103.328 65.1047C106.023 64.3612 116.535 65.7038 118.588 66.1445C120.993 66.6592 123.417 68.043 125.797 68.2941C126.161 64.6825 122.198 62.7366 120.139 60.6218C125.795 58.8449 131.857 59.5533 137.658 59.5223C135.656 56.7652 130.788 55.8242 127.77 54.4012C123.581 52.4285 119.521 50.9152 115.121 49.7908C120.717 49.4758 126.476 49.692 132.113 50.2112C136.428 50.6102 140.78 51.7532 145.109 51.6892C143.289 48.7695 140.647 47.0195 137.991 45.1229C140.773 45.0671 143.899 46.4367 146.428 47.3798C141.378 41.1323 133.208 34.8581 125.037 33.7213C118.211 32.7721 110.275 32.3889 103.441 33.1181C93.6068 34.1661 84.9006 37.9343 75.5439 40.5968C65.9835 43.3171 56.4374 40.9634 47.2496 38.3195C44.4459 37.5125 41.6411 37.323 38.7811 36.8945C37.2472 36.6639 33.2022 36.7689 32.2282 35.6408L23.1378 34.9588Z" fill="#BA9449"/>
<path d="M56.6764 15.5112C56.6764 15.5112 54.0692 5.78613 63.4299 1.29573C72.7907 -3.19467 80.4545 5.42763 80.4545 5.42763C80.4545 5.42763 98.1176 18.8571 97.8767 33.5768C97.6763 45.8221 86.1412 54.1301 74.4859 53.9393C65.5348 53.7928 52.6708 48.9644 50.6967 36.7797C48.7225 24.5949 56.6764 15.5112 56.6764 15.5112Z" fill="#009846"/>
<path d="M82.0455 6.73314C82.0455 6.73314 81.8953 15.9112 81.7459 25.0356C81.6216 32.6336 75.0632 37.791 67.8396 37.6728C60.5269 37.5531 54.226 32.4288 54.352 24.7298C54.4346 19.6865 56.5369 15.7634 56.6716 15.522C56.6777 15.5163 56.6778 15.5102 56.6778 15.5102C56.6778 15.5102 56.6721 15.4923 56.6606 15.4624C56.4883 14.7405 54.4449 5.60974 63.4289 1.29444C72.7899 -3.19326 80.4565 5.42954 80.4565 5.42954C80.4565 5.42954 81.0552 5.88494 82.0397 6.72104C82.0456 6.72704 82.0455 6.73314 82.0455 6.73314Z" fill="white" fill-opacity="0.301961"/>
<path d="M76.3178 17.8328C74.5044 22.1619 69.5282 24.1998 65.1989 22.3864C63.1277 21.5187 61.3925 19.5703 60.4497 17.7157C59.4839 15.816 56.4858 10.6331 56.4858 10.6331C56.4858 10.6331 57.0964 5.48437 61.2756 2.32007L71.7641 6.71367C76.0934 8.52717 78.129 13.5089 76.3178 17.8328Z" fill="white" fill-opacity="0.501961"/>
<path d="M69.5109 10.8358C68.9951 12.0673 67.5784 12.6475 66.3469 12.1316C65.1154 11.6158 64.5353 10.1991 65.0511 8.96757C65.567 7.73607 66.9836 7.15587 68.2152 7.67177C69.4467 8.18767 70.0269 9.60427 69.5109 10.8358Z" fill="#263138"/>
<path d="M60.2215 10.5694L61.3003 7.06736L56.4419 3.08276L60.2215 10.5694Z" fill="#263138"/>
<path d="M60.5062 10.3812L53.8667 6.87134L56.4823 10.4739L60.5062 10.3812Z" fill="#36464F"/>
<path d="M56.6283 15.8295L54.1608 47.3916C54.1608 47.3916 48.2556 37.8945 48.8649 30.1007C49.6395 20.1911 56.6283 15.8295 56.6283 15.8295Z" fill="#009846"/>
<path d="M56.6283 15.8295L54.1608 47.3916C54.1608 47.3916 48.2556 37.8945 48.8649 30.1007C49.6395 20.1911 56.6283 15.8295 56.6283 15.8295Z" fill="black" fill-opacity="0.101961"/>
<path d="M50.5373 39.7512C50.445 39.4956 50.3527 39.2356 50.2656 38.971C50.6431 33.9037 51.0982 28.8001 51.6062 23.9818C51.3447 29.063 50.9806 34.4406 50.5373 39.7512Z" fill="black" fill-opacity="0.101961"/>
<path d="M51.807 42.8675C51.7234 42.6782 51.6398 42.4888 51.5518 42.2946C51.9729 36.1906 52.5087 29.9363 53.1242 24.1003C52.8208 30.1387 52.3626 36.6006 51.807 42.8675Z" fill="black" fill-opacity="0.101961"/>
<path d="M53.0954 45.498C53.0297 45.3804 52.9646 45.2535 52.8999 45.1219C53.3356 38.1711 53.94 30.9197 54.6465 24.2194C54.2941 31.0644 53.7583 38.4571 53.0954 45.498Z" fill="black" fill-opacity="0.101961"/>
<path d="M85.5845 11.8796L92.3558 48.0433C92.3558 48.0433 98.8257 36.1258 97.1536 27.1959C95.0276 15.8413 85.5845 11.8796 85.5845 11.8796Z" fill="#009846"/>
<path d="M85.5845 11.8796L92.3558 48.0433C92.3558 48.0433 98.8257 36.1258 97.1536 27.1959C95.0276 15.8413 85.5845 11.8796 85.5845 11.8796Z" fill="black" fill-opacity="0.101961"/>
<path d="M96.1182 38.6313C96.2071 38.321 96.2953 38.0055 96.3766 37.6856C95.3134 31.8764 94.1465 26.0375 92.9448 20.5372C93.8611 26.3805 94.9429 32.5509 96.1182 38.6313Z" fill="black" fill-opacity="0.101961"/>
<path d="M94.8504 42.4377C94.9357 42.2055 95.0211 41.9733 95.1113 41.7347C93.8736 34.7319 92.4718 27.5731 91.0161 20.9111C92.0957 27.856 93.422 35.2674 94.8504 42.4377Z" fill="black" fill-opacity="0.101961"/>
<path d="M93.5025 45.6846C93.5731 45.5382 93.6418 45.381 93.7095 45.2187C92.3561 37.2377 90.7524 28.9348 89.0811 21.2863C90.3157 29.1575 91.8479 37.6347 93.5025 45.6846Z" fill="black" fill-opacity="0.101961"/>
<path d="M115.326 58.8569C119.991 56.191 126.228 55.3688 130.519 51.8901C128.848 52.0279 127.047 52.0699 125.319 51.9024C127.959 50.4659 130.449 48.9077 132.146 46.695C125.5 47.9554 117.895 48.3229 111.074 47.6513C113.609 45.7539 116.107 42.774 117.309 40.0884C116 40.4956 114.678 40.9116 113.331 41.2766C111.224 41.8477 104.412 43.3539 104.412 43.3539C104.412 43.3539 103.289 40.2435 103.123 39.0392C101.707 40.2187 99.9961 41.2716 98.4378 42.3556C95.2284 40.3628 92.5355 38.1354 90.046 35.5454C89.8486 36.9259 89.9069 38.3551 89.738 39.7383C87.672 39.0815 86.9761 37.1557 85.391 36.032C83.6858 37.2302 82.355 38.9076 80.4421 39.9158C79.4572 38.6059 79.2806 36.9111 78.2388 35.6335C76.2419 36.433 74.3317 37.8597 72.4205 38.8716C71.0762 39.5843 65.43 41.0221 67.0647 41.2307C67.5601 41.294 63.5889 39.9741 62.3073 39.4701C60.5126 38.7636 58.5144 38.2011 56.7631 37.5716C56.4817 38.5872 56.8859 39.7445 57.0327 40.6794C55.0732 41.1277 47.4315 40.3181 45.9391 40.0524C44.1909 39.742 42.4289 38.9076 40.6988 38.7562C40.4337 40.934 43.3149 42.1073 44.8119 43.3825C40.7001 44.4539 36.2931 44.0268 32.0766 44.0455C33.5316 45.708 37.0703 46.2754 39.2646 47.1334C42.3092 48.3229 45.2612 49.2354 48.4598 49.9134C44.3914 50.1033 40.2047 49.973 36.1076 49.6599C32.9703 49.4193 29.807 48.7301 26.6594 48.7687C27.9826 50.5292 29.9032 51.5844 31.8341 52.7281C29.8119 52.7617 27.5396 51.9358 25.7012 51.3672C29.3717 55.1343 35.3114 58.9176 41.2507 59.603C46.2131 60.1754 51.9821 60.4065 56.9501 59.9668C64.0992 59.3348 70.4281 57.0627 77.2299 55.4572C84.1799 53.8169 91.1194 55.2362 97.7984 56.8304C99.8366 57.317 101.875 57.4313 103.955 57.6897C105.07 57.8287 108.01 57.7654 108.718 58.4456L115.326 58.8569Z" fill="#BA9449"/>
<path d="M105.276 32.5836C102.648 32.5362 100.486 33.8636 100.455 35.5427C100.425 37.2219 102.538 38.6267 105.165 38.6743C107.793 38.7218 109.956 37.3944 109.986 35.7153C110.016 34.0361 107.903 32.6314 105.276 32.5836Z" fill="#E9B522"/>
<path d="M105.276 32.5836C102.648 32.5362 100.486 33.8636 100.455 35.5427C100.425 37.2219 102.538 38.6267 105.165 38.6743C107.793 38.7218 109.955 37.3944 109.986 35.7153C110.016 34.0361 107.903 32.6314 105.276 32.5836ZM105.154 39.2713C102.012 39.2145 99.4846 37.5342 99.5209 35.5258C99.5573 33.5175 102.144 31.9298 105.286 31.9867C108.429 32.0435 110.956 33.7238 110.92 35.7322C110.883 37.7406 108.297 39.3282 105.154 39.2713Z" fill="#F7DE61"/>
<path d="M106.099 36.6846C106.197 36.6172 106.248 36.5286 106.25 36.4185C106.251 36.3312 106.204 36.2598 106.108 36.2044C106.012 36.1491 105.871 36.1014 105.687 36.0613L105.673 36.8186C105.859 36.7965 106.001 36.7519 106.099 36.6846ZM104.668 35.2875C104.772 35.3501 104.921 35.4042 105.115 35.4501L105.13 34.6336C104.939 34.6556 104.79 34.7022 104.68 34.7736C104.571 34.845 104.515 34.9356 104.513 35.0456C104.511 35.1444 104.563 35.225 104.668 35.2875ZM106.719 36.9877C106.467 37.1398 106.131 37.2317 105.711 37.2636L105.703 37.7332L105.028 37.721L105.036 37.2598C104.74 37.2404 104.466 37.1988 104.214 37.1349C103.961 37.0711 103.741 36.9867 103.553 36.8818L103.851 36.4894C104.232 36.6882 104.645 36.8014 105.09 36.8292L105.106 35.9492C104.811 35.896 104.563 35.8386 104.361 35.7771C104.159 35.7156 103.99 35.6265 103.856 35.5098C103.721 35.3931 103.655 35.2431 103.659 35.0598C103.661 34.9075 103.723 34.7697 103.845 34.6463C103.966 34.523 104.135 34.4216 104.35 34.3423C104.566 34.263 104.813 34.2146 105.091 34.197L105.1 33.7274L105.775 33.7396L105.767 34.205C106.022 34.2294 106.262 34.2732 106.486 34.3365C106.71 34.3999 106.898 34.478 107.051 34.571L106.753 34.9634C106.434 34.7884 106.087 34.6806 105.712 34.6399L105.696 35.5579C105.99 35.6113 106.235 35.6671 106.428 35.7256C106.621 35.7841 106.783 35.8696 106.913 35.9819C107.044 36.0943 107.107 36.2394 107.104 36.4171C107.1 36.6455 106.972 36.8357 106.719 36.9877Z" fill="#CE9811"/>
<path d="M99.8685 35.5321C99.9042 33.5609 102.396 31.9952 105.46 31.9917C105.402 31.9894 105.344 31.9878 105.286 31.9867C102.144 31.9298 99.5573 33.5175 99.5209 35.5258C99.4846 37.5342 102.012 39.2145 105.154 39.2713C105.213 39.2724 105.271 39.2727 105.328 39.2726C102.267 39.1583 99.8328 37.5033 99.8685 35.5321Z" fill="#FFF2BD"/>
<path d="M105.276 32.5836C105.225 32.5828 105.174 32.5825 105.123 32.5828C107.68 32.6805 109.711 34.0631 109.681 35.7097C109.651 37.3564 107.571 38.6645 105.013 38.6698C105.064 38.6717 105.114 38.6734 105.165 38.6743C107.793 38.7218 109.955 37.3944 109.986 35.7153C110.016 34.0361 107.903 32.6314 105.276 32.5836Z" fill="#CE9811"/>
<path d="M106.595 36.8874C106.343 37.0394 106.007 37.1315 105.587 37.1633L105.578 37.6329L104.903 37.6207L104.911 37.1595C104.616 37.1401 104.342 37.0985 104.089 37.0346C103.836 36.9708 103.616 36.8864 103.428 36.7815L103.727 36.3891C104.107 36.5878 104.52 36.7011 104.965 36.7289L104.981 35.8489C104.687 35.7957 104.438 35.7382 104.236 35.6768C104.034 35.6154 103.866 35.5261 103.731 35.4095C103.596 35.2928 103.531 35.1428 103.534 34.9595C103.537 34.8072 103.599 34.6693 103.72 34.546C103.842 34.4227 104.01 34.3213 104.226 34.242C104.441 34.1627 104.688 34.1143 104.967 34.0967L104.975 33.6271L105.651 33.6393L105.642 34.1047C105.898 34.1291 106.138 34.1729 106.361 34.2362C106.586 34.2995 106.774 34.3777 106.927 34.4707L106.628 34.8631C106.309 34.6881 105.962 34.5803 105.588 34.5396L105.571 35.4576C105.866 35.511 106.11 35.5668 106.303 35.6253C106.496 35.6838 106.658 35.7692 106.789 35.8816C106.919 35.994 106.983 36.1391 106.979 36.3167C106.975 36.5452 106.847 36.7355 106.595 36.8874ZM105.975 36.5843C106.073 36.5169 106.123 36.4282 106.125 36.3182C106.127 36.2308 106.079 36.1595 105.983 36.1041C105.887 36.0488 105.747 36.0011 105.562 35.961L105.548 36.7183C105.734 36.6962 105.876 36.6516 105.975 36.5843ZM104.543 35.1872C104.648 35.2498 104.797 35.304 104.99 35.3498L105.005 34.5333C104.815 34.5553 104.665 34.6019 104.556 34.6732C104.446 34.7447 104.391 34.8354 104.389 34.9453C104.387 35.0441 104.438 35.1247 104.543 35.1872Z" fill="#F7DE61"/>
<path d="M110.891 36.9131L110.899 36.9132L110.92 35.7321C110.884 37.7406 108.297 39.3282 105.155 39.2713C102.012 39.2145 99.4847 37.5342 99.521 35.5258C99.521 35.5259 99.4975 36.8263 99.4964 36.8866C99.4629 38.7379 101.992 40.2904 105.135 40.3473C108.278 40.4041 110.862 38.9442 110.896 37.0929C110.897 37.0326 110.895 36.9726 110.891 36.9131Z" fill="#B27E09"/>
<path d="M55.2996 9.71173C57.8758 9.37513 58.8304 7.40123 57.4275 5.31173C56.0246 3.22233 52.7873 1.79633 50.211 2.13313C47.6348 2.46983 46.6801 4.44363 48.0831 6.53313C49.4859 8.62253 52.7233 10.0486 55.2996 9.71173Z" fill="#F7DE61"/>
<path d="M47.4362 4.53845C47.4797 5.06535 47.8811 5.64155 48.2683 6.21795C49.6711 8.30745 52.9085 9.73335 55.4847 9.39655C56.6188 9.24835 57.4382 8.78275 57.881 8.12985C57.9007 8.15385 57.634 9.46625 56.5208 9.97215C55.2786 10.5366 52.8941 10.6332 50.7383 9.54445C47.7646 8.04205 47.5411 6.48235 47.4362 6.15835C47.2344 5.53605 47.4158 4.54905 47.4362 4.53845Z" fill="#B27E09"/>
<path d="M50.6281 2.75418C52.782 2.47268 55.4886 3.66488 56.6616 5.41178C57.8345 7.15868 57.0364 8.80898 54.8825 9.09058C52.7286 9.37218 50.0219 8.17988 48.8491 6.43298C47.6761 4.68598 48.4741 3.03578 50.6281 2.75418Z" fill="#E9B522"/>
<path d="M50.6281 2.75423C52.782 2.47273 55.4886 3.66493 56.6616 5.41183C57.8345 7.15873 57.0364 8.80903 54.8825 9.09063C52.7286 9.37223 50.0219 8.17993 48.8491 6.43303C47.6761 4.68603 48.4741 3.03583 50.6281 2.75423ZM55.2996 9.71173C57.8758 9.37513 58.8304 7.40123 57.4275 5.31173C56.0246 3.22233 52.7873 1.79633 50.211 2.13313C47.6348 2.46983 46.6801 4.44363 48.0831 6.53313C49.4859 8.62253 52.7233 10.0486 55.2996 9.71173Z" fill="#F7DE61"/>
<path d="M57.1425 5.34903C55.7655 3.29813 52.6215 1.88673 50.0698 2.15363C50.1163 2.14633 50.1632 2.13933 50.2109 2.13313C52.7872 1.79633 56.0245 3.22233 57.4274 5.31173C58.8303 7.40123 57.8757 9.37513 55.2995 9.71173C55.2518 9.71803 55.2038 9.72343 55.1557 9.72853C57.6252 9.33893 58.5195 7.39973 57.1425 5.34903Z" fill="#FFF2BD"/>
<path d="M54.1405 6.05071C54.0932 5.91701 54.0168 5.80561 53.9114 5.71681C53.8276 5.64621 53.7506 5.62841 53.6802 5.66301C53.6099 5.69781 53.5391 5.77481 53.4676 5.89401L54.1935 6.50541C54.2053 6.33601 54.1877 6.18441 54.1405 6.05071ZM52.5421 6.11411C52.6209 6.07801 52.6995 5.99901 52.7781 5.87711L51.9955 5.21801C51.9827 5.39111 52.001 5.55061 52.05 5.69651C52.0993 5.84271 52.1765 5.96001 52.282 6.04871C52.3766 6.12851 52.4633 6.15021 52.5421 6.11411ZM54.5424 5.78371C54.6437 6.11041 54.6724 6.45811 54.6282 6.82671L55.0784 7.20581L54.9464 7.74821L54.5044 7.37591C54.4331 7.60211 54.3443 7.79321 54.2379 7.94921C54.1316 8.10531 54.0112 8.21851 53.8768 8.28901L53.5526 7.73401C53.8115 7.58041 53.9939 7.33261 54.0999 6.99041L53.2565 6.28011C53.1528 6.47901 53.0533 6.63661 52.9583 6.75301C52.8633 6.86941 52.7475 6.93641 52.6114 6.95411C52.4751 6.97181 52.3192 6.90661 52.1435 6.75861C51.9975 6.63571 51.876 6.47581 51.779 6.27871C51.682 6.08171 51.6145 5.86371 51.5766 5.62451C51.5387 5.38541 51.5361 5.14511 51.5688 4.90351L51.1187 4.52441L51.2506 3.98201L51.6966 4.35771C51.7656 4.16811 51.8505 4.00671 51.9512 3.87371C52.052 3.74071 52.1607 3.64871 52.2774 3.59741L52.6016 4.15241C52.3765 4.27461 52.211 4.47271 52.1052 4.74671L52.9851 5.48771C53.0889 5.28901 53.1861 5.13371 53.2767 5.02211C53.3673 4.91051 53.4783 4.84591 53.6096 4.82841C53.7409 4.81081 53.8917 4.87371 54.062 5.01711C54.281 5.20161 54.4411 5.45711 54.5424 5.78371Z" fill="#CE9811"/>
<path d="M54.0442 5.91558C53.9969 5.78188 53.9206 5.67048 53.8152 5.58168C53.7314 5.51108 53.6543 5.49328 53.584 5.52798C53.5137 5.56268 53.4428 5.63968 53.3714 5.75888L54.0973 6.37028C54.1091 6.20088 54.0915 6.04928 54.0442 5.91558ZM52.4458 5.97898C52.5247 5.94288 52.6033 5.86388 52.6818 5.74198L51.8992 5.08288C51.8865 5.25598 51.9047 5.41548 51.9538 5.56138C52.003 5.70758 52.0803 5.82488 52.1858 5.91368C52.2804 5.99338 52.3671 6.01508 52.4458 5.97898ZM54.4462 5.64858C54.5475 5.97528 54.5761 6.32298 54.532 6.69158L54.9822 7.07068L54.8502 7.61308L54.4082 7.24078C54.3369 7.46698 54.2481 7.65808 54.1417 7.81408C54.0354 7.97018 53.915 8.08348 53.7806 8.15388L53.4564 7.59888C53.7152 7.44528 53.8977 7.19748 54.0037 6.85528L53.1603 6.14498C53.0566 6.34388 52.9571 6.50148 52.8621 6.61788C52.767 6.73428 52.6513 6.80128 52.5151 6.81898C52.3789 6.83668 52.223 6.77148 52.0473 6.62348C51.9013 6.50058 51.7798 6.34068 51.6827 6.14358C51.5858 5.94658 51.5183 5.72858 51.4804 5.48938C51.4425 5.25028 51.4399 5.00998 51.4725 4.76838L51.0225 4.38938L51.1544 3.84688L51.6004 4.22258C51.6694 4.03298 51.7542 3.87158 51.855 3.73858C51.9558 3.60558 52.0645 3.51358 52.1811 3.46228L52.5054 4.01728C52.2802 4.13948 52.1148 4.33768 52.009 4.61158L52.8889 5.35258C52.9927 5.15388 53.0898 4.99858 53.1805 4.88698C53.2711 4.77538 53.3821 4.71078 53.5134 4.69328C53.6447 4.67568 53.7955 4.73858 53.9658 4.88198C54.1848 5.06648 54.3449 5.32198 54.4462 5.64858Z" fill="#F7DE61"/>
<path d="M50.6281 2.75425C50.6698 2.74885 50.7119 2.74415 50.754 2.73975C48.6937 3.06745 47.9483 4.68735 49.0985 6.40045C50.2486 8.11345 52.8736 9.29284 55.006 9.07254C54.9653 9.07894 54.9243 9.08514 54.8825 9.09064C52.7286 9.37224 50.0219 8.17995 48.8491 6.43305C47.6761 4.68605 48.4741 3.03585 50.6281 2.75425Z" fill="#CE9811"/>
<path d="M96.2793 40.4436C98.6925 41.4065 100.489 40.149 100.283 37.6406C100.078 35.1323 97.9473 32.3084 95.5341 31.3456C93.1209 30.3829 91.3246 31.6403 91.5302 34.1486C91.7355 36.6569 93.8661 39.481 96.2793 40.4436Z" fill="#F7DE61"/>
<path d="M91.9383 32.0918C91.7193 32.5729 91.7886 33.2718 91.8454 33.9638C92.0508 36.4721 94.1813 39.2961 96.5945 40.2587C97.6568 40.6826 98.5993 40.6758 99.3043 40.3218C99.3098 40.3525 98.4368 41.368 97.2183 41.2666C95.8585 41.1534 93.7298 40.0746 92.379 38.0725C90.5159 35.3104 91.0817 33.8399 91.1481 33.5059C91.2755 32.8642 91.9153 32.0911 91.9383 32.0918Z" fill="#B27E09"/>
<path d="M95.5953 32.0914C97.6129 32.8964 99.3941 35.2574 99.5659 37.3545C99.7377 39.4516 98.236 40.503 96.2183 39.698C94.2007 38.8932 92.4195 36.5321 92.2478 34.435C92.0759 32.3378 93.5776 31.2865 95.5953 32.0914Z" fill="#E9B522"/>
<path d="M95.5952 32.0913C97.6128 32.8963 99.394 35.2573 99.5658 37.3544C99.7376 39.4515 98.2359 40.5029 96.2182 39.6979C94.2006 38.8931 92.4194 36.532 92.2477 34.4349C92.0758 32.3377 93.5775 31.2864 95.5952 32.0913ZM96.2793 40.4436C98.6925 41.4065 100.489 40.149 100.283 37.6406C100.078 35.1323 97.9473 32.3084 95.5341 31.3456C93.1209 30.3829 91.3246 31.6403 91.5302 34.1486C91.7355 36.6569 93.8661 39.481 96.2793 40.4436Z" fill="#F7DE61"/>
<path d="M100.016 37.5342C99.8148 35.0722 97.7587 32.3065 95.4009 31.2947C95.4452 31.311 95.4895 31.3278 95.5342 31.3456C97.9474 32.3084 100.078 35.1323 100.283 37.6406C100.489 40.149 98.6926 41.4065 96.2794 40.4436C96.2347 40.4259 96.1902 40.4072 96.1458 40.3882C98.4915 41.2527 100.218 39.9961 100.016 37.5342Z" fill="#FFF2BD"/>
<path d="M97.0531 36.6823C97.077 36.5425 97.0647 36.4081 97.016 36.2791C96.9773 36.1767 96.9187 36.1235 96.8404 36.1195C96.7621 36.1155 96.6627 36.1482 96.5422 36.2174L96.8776 37.1052C96.9706 36.963 97.0291 36.8221 97.0531 36.6823ZM95.6269 35.958C95.7133 35.9649 95.8205 35.9344 95.9485 35.8663L95.5868 34.9092C95.4913 35.054 95.4294 35.2021 95.401 35.3535C95.3727 35.5051 95.3829 35.6452 95.4317 35.7741C95.4754 35.8899 95.5405 35.9511 95.6269 35.958ZM97.5342 36.6454C97.4633 36.98 97.3187 37.2974 97.1004 37.5977L97.3084 38.1482L96.9286 38.5574L96.7244 38.0168C96.5518 38.1794 96.3811 38.303 96.2121 38.3872C96.0431 38.4716 95.8828 38.5118 95.7311 38.5077L95.7188 37.8651C96.0197 37.8573 96.2998 37.7299 96.5593 37.4829L96.1695 36.4514C95.982 36.5744 95.8183 36.6635 95.6786 36.7188C95.5388 36.7741 95.405 36.7761 95.2776 36.7251C95.15 36.6741 95.0457 36.5411 94.9645 36.3263C94.897 36.1477 94.869 35.9488 94.8804 35.7295C94.8918 35.5102 94.9393 35.287 95.0229 35.0597C95.1064 34.8325 95.2214 34.6214 95.3677 34.4265L95.1597 33.876L95.5395 33.4669L95.7456 34.0123C95.8983 33.8805 96.0511 33.781 96.2039 33.714C96.3568 33.6471 96.4965 33.6198 96.6234 33.6319L96.6357 34.2746C96.3796 34.2714 96.1385 34.3637 95.9126 34.5512L96.3192 35.6273C96.5067 35.5045 96.6673 35.4163 96.8008 35.3631C96.9344 35.3099 97.0628 35.3077 97.186 35.3564C97.3092 35.4051 97.4101 35.5336 97.4888 35.7418C97.59 36.0097 97.6051 36.3109 97.5342 36.6454Z" fill="#CE9811"/>
<path d="M97.0351 36.5173C97.059 36.3775 97.0467 36.243 96.998 36.1141C96.9593 36.0116 96.9007 35.9585 96.8224 35.9544C96.7441 35.9505 96.6446 35.9831 96.5241 36.0523L96.8595 36.9401C96.9525 36.798 97.0111 36.6571 97.0351 36.5173ZM95.6088 35.7929C95.6952 35.7999 95.8024 35.7693 95.9304 35.7012L95.5687 34.7441C95.4732 34.8889 95.4113 35.0371 95.383 35.1884C95.3547 35.34 95.3649 35.4801 95.4136 35.609C95.4573 35.7248 95.5224 35.786 95.6088 35.7929ZM97.5162 36.4803C97.4452 36.8149 97.3007 37.1324 97.0823 37.4327L97.2904 37.9832L96.9106 38.3923L96.7063 37.8517C96.5337 38.0143 96.363 38.1379 96.1941 38.2222C96.0251 38.3066 95.8647 38.3467 95.7131 38.3427L95.7008 37.7C96.0017 37.6922 96.2818 37.5648 96.5413 37.3178L96.1515 36.2863C95.964 36.4094 95.8003 36.4985 95.6605 36.5537C95.5207 36.609 95.387 36.611 95.2595 36.5601C95.132 36.509 95.0276 36.3761 94.9464 36.1612C94.879 35.9826 94.8509 35.7838 94.8623 35.5644C94.8738 35.3451 94.9212 35.1219 95.0048 34.8946C95.0884 34.6674 95.2033 34.4563 95.3497 34.2614L95.1417 33.7109L95.5214 33.3018L95.7276 33.8473C95.8802 33.7154 96.0331 33.6159 96.1859 33.549C96.3387 33.4821 96.4785 33.4547 96.6054 33.4668L96.6177 34.1095C96.3616 34.1063 96.1204 34.1986 95.8945 34.3862L96.3011 35.4623C96.4887 35.3394 96.6492 35.2512 96.7828 35.198C96.9164 35.1448 97.0447 35.1426 97.1679 35.1913C97.2911 35.24 97.3921 35.3685 97.4707 35.5768C97.572 35.8446 97.5871 36.1458 97.5162 36.4803Z" fill="#F7DE61"/>
<path d="M95.5953 32.0914C95.6344 32.107 95.6734 32.1234 95.7123 32.1402C93.7539 31.4212 92.313 32.4717 92.4814 34.5282C92.6498 36.5846 94.366 38.8946 96.335 39.7425C96.2963 39.7283 96.2574 39.7137 96.2183 39.698C94.2007 38.8932 92.4195 36.5321 92.2478 34.435C92.0759 32.3378 93.5776 31.2865 95.5953 32.0914Z" fill="#CE9811"/>
</svg>
