<svg width="20" height="20" viewBox="0 0 20 20" fill="none" xmlns="http://www.w3.org/2000/svg">
<path d="M9.99983 1.63943C5.38976 1.63943 1.63916 5.38995 1.63916 10C1.63916 14.6101 5.38976 18.3607 9.99983 18.3607C14.61 18.3607 18.3605 14.6101 18.3605 10C18.3605 5.38995 14.61 1.63943 9.99983 1.63943Z" fill="#E9B522"/>
<path d="M9.99999 1.63944C5.38992 1.63944 1.63932 5.38997 1.63932 10C1.63932 14.6101 5.38992 18.3607 9.99999 18.3607C14.6101 18.3607 18.3607 14.6101 18.3607 10C18.3607 5.38997 14.6101 1.63944 9.99999 1.63944ZM9.99999 20C4.48601 20 0 15.514 0 10C0 4.48604 4.48601 0 9.99999 0C15.514 0 20 4.48604 20 10C20 15.514 15.514 20 9.99999 20Z" fill="#F7DE61"/>
<path d="M0.609835 10C0.609835 4.58784 4.93145 0.166999 10.3049 0.00500689C10.2036 0.00199767 10.102 0 9.99999 0C4.48601 0 0 4.48604 0 10C0 15.514 4.48601 20 9.99999 20C10.102 20 10.2036 19.998 10.3049 19.995C4.93145 19.8332 0.609835 15.412 0.609835 10Z" fill="#FFF2BD"/>
<path d="M9.99982 1.63943C9.91051 1.63943 9.82159 1.64142 9.73291 1.64395C14.2199 1.78536 17.8266 5.47927 17.8266 10C17.8266 14.5208 14.2199 18.2145 9.73291 18.3561C9.82159 18.3588 9.91051 18.3607 9.99982 18.3607C14.6099 18.3607 18.3605 14.6101 18.3605 10C18.3605 5.38995 14.6099 1.63943 9.99982 1.63943Z" fill="#CE9811"/>
<path d="M12.7642 9.91443L11.0738 3.91212C11.0738 3.91212 9.07447 5.05173 9.6289 7.02039C10.1844 8.99287 12.7642 9.91443 12.7642 9.91443Z" fill="#CE9811"/>
<path d="M10.854 4.05832C10.8597 4.05359 10.8656 4.04962 10.8715 4.04562C11.2346 5.23818 11.5933 6.52305 11.8924 7.70951C11.5297 6.54325 11.1661 5.26294 10.854 4.05832Z" fill="black" fill-opacity="0.101961"/>
<path d="M10.5806 4.2761C10.588 4.26935 10.5949 4.26351 10.6018 4.25769C10.9517 5.41429 11.2954 6.65123 11.5851 7.79603C11.2351 6.67212 10.8842 5.44264 10.5806 4.2761Z" fill="black" fill-opacity="0.101961"/>
<path d="M10.3164 4.53038C10.3254 4.52084 10.3339 4.51225 10.3421 4.50291C10.6759 5.61347 11.0011 6.79025 11.2777 7.88272C10.945 6.81227 10.6103 5.64596 10.3164 4.53038Z" fill="black" fill-opacity="0.101961"/>
<path d="M8.42546 12.4096L4.47678 14.2745L4.92915 13.287L3.58203 12.4069L8.14335 11.1854L8.42546 12.4096Z" fill="#CE9811"/>
<path d="M8.14346 11.1851L7.7251 11.2969L8.20382 12.512L8.42551 12.4097L8.14346 11.1851Z" fill="black" fill-opacity="0.101961"/>
<path d="M8.38486 12.2345C7.50688 12.6469 6.61301 13.0254 5.70557 13.3681C6.58345 12.9555 7.47752 12.5775 8.38486 12.2345Z" fill="black" fill-opacity="0.101961"/>
<path d="M8.18254 11.3523C7.22928 11.6771 6.264 11.9664 5.28906 12.2187C6.24225 11.8937 7.20768 11.6049 8.18254 11.3523Z" fill="black" fill-opacity="0.101961"/>
<path d="M8.28523 11.801C7.35624 12.1679 6.41355 12.4999 5.45947 12.7954C6.38836 12.4283 7.33123 12.0968 8.28523 11.801Z" fill="black" fill-opacity="0.101961"/>
<path d="M8.23219 11.5709C7.28379 11.9254 6.3223 12.2449 5.3501 12.5276C6.29841 12.1728 7.26007 11.8539 8.23219 11.5709Z" fill="black" fill-opacity="0.101961"/>
<path d="M8.33641 12.0196C7.41936 12.4172 6.48746 12.7803 5.54297 13.1074C6.45992 12.7096 7.39202 12.3469 8.33641 12.0196Z" fill="black" fill-opacity="0.101961"/>
<path d="M14.5707 10.5528C14.5707 10.5528 15.4349 9.62314 14.6569 8.5706C13.8789 7.51808 12.5164 8.02656 12.5164 8.02656C12.5164 8.02656 9.62456 7.52878 8.40171 9.47465C7.33839 11.1667 8.19627 12.7033 9.60191 13.4185C10.9931 14.1263 12.3203 14.1484 13.2591 12.9073C14.1979 11.6663 14.5707 10.5528 14.5707 10.5528Z" fill="#CE9811"/>
<path d="M13.6162 12.4038C13.0777 12.7106 12.3793 12.7569 11.8274 12.5072C10.8259 12.054 10.0103 10.9399 10.7162 9.67796C11.4106 8.43702 12.5159 8.02701 12.5159 8.02701L12.5162 8.02635C12.5162 8.02635 12.5172 8.02603 12.5192 8.02537C12.5209 8.02539 12.5232 8.02405 12.5263 8.02307L12.5383 8.01915C12.543 8.01816 12.5484 8.01586 12.5545 8.01389C12.5605 8.01191 12.5675 8.00964 12.5746 8.00734C12.8445 7.92447 13.975 7.6483 14.6572 8.57024C14.7488 8.69415 14.817 8.81621 14.8674 8.93514C14.8842 8.97479 14.8987 9.01409 14.9115 9.05336C14.9305 9.11177 14.9452 9.16885 14.9565 9.22584C14.9636 9.26309 14.969 9.30031 14.9738 9.33718C14.981 9.41057 14.9832 9.48231 14.9807 9.55162C14.9791 9.58612 14.9762 9.61992 14.9729 9.65272C14.9705 9.66913 14.9683 9.68653 14.9659 9.70292C14.9311 9.93314 14.8463 10.1295 14.7643 10.276C14.7147 10.3634 14.6667 10.4331 14.6301 10.4801C14.6298 10.4807 14.6298 10.4807 14.6295 10.4814C14.6194 10.4947 14.6102 10.5061 14.6028 10.5157C14.5896 10.5317 14.5802 10.542 14.5754 10.548C14.5741 10.549 14.5734 10.5504 14.5731 10.551C14.5711 10.5517 14.5707 10.5524 14.5707 10.5524C14.5707 10.5524 14.5703 10.553 14.5707 10.554C14.5707 10.554 14.5707 10.554 14.571 10.555C14.5529 10.6055 14.2726 11.4125 13.6162 12.4038Z" fill="white" fill-opacity="0.2"/>
<path d="M12.2613 9.23311C11.993 9.76051 12.2028 10.4051 12.7302 10.6735C12.9826 10.8018 13.3114 10.8097 13.5666 10.7491C13.828 10.6871 14.5708 10.5526 14.5708 10.5526C14.5708 10.5526 15.0159 10.074 14.9793 9.41424L13.7016 8.76418C13.1742 8.49585 12.5293 8.7064 12.2613 9.23311Z" fill="white" fill-opacity="0.501961"/>
<path d="M13.5113 9.50586C13.4303 9.66512 13.4937 9.85991 13.653 9.94091C13.8122 10.022 14.007 9.95853 14.088 9.79927C14.1691 9.64001 14.1056 9.44522 13.9464 9.3642C13.7871 9.28315 13.5924 9.3466 13.5113 9.50586Z" fill="#CE9811"/>
<path d="M14.3208 9.99967L14.9093 9.94264L15.5473 10.6237L14.3208 9.99967Z" fill="#CE9811"/>
<path d="M14.3208 9.99966L15.0804 10.3861L14.7203 10.3496L14.3208 9.99966Z" fill="#CE9811" stroke="#CE9811" stroke-width="0.0762" stroke-miterlimit="22.9256"/>
<path d="M11.6867 9.08177L7.60747 4.36521C7.60747 4.36521 6.28124 6.24595 7.61916 7.79291C8.95967 9.34284 11.6867 9.08177 11.6867 9.08177Z" fill="#CE9811"/>
<path d="M11.6867 9.08177L7.60747 4.36521C7.60747 4.36521 6.28124 6.24595 7.61916 7.79291C8.95967 9.34284 11.6867 9.08177 11.6867 9.08177Z" fill="#CE9811" fill-opacity="0.101961"/>
<path d="M7.4707 4.59062C7.47384 4.58397 7.47748 4.57785 7.4811 4.57173C8.31624 5.49728 9.18661 6.5082 9.96122 7.4554C9.13763 6.55352 8.26473 5.54879 7.4707 4.59062Z" fill="#CE9811" fill-opacity="0.101961"/>
<path d="M7.31543 4.90389C7.31927 4.89458 7.32307 4.88636 7.32683 4.87814C8.13472 5.77676 8.97113 6.75069 9.71952 7.66412C8.92544 6.79517 8.08566 5.83108 7.31543 4.90389Z" fill="#CE9811" fill-opacity="0.101961"/>
<path d="M7.18408 5.2464C7.18815 5.23393 7.19217 5.22255 7.19569 5.21062C7.96946 6.07434 8.76357 7.00168 9.47784 7.87335C8.72217 7.04541 7.92389 6.13156 7.18408 5.2464Z" fill="#CE9811" fill-opacity="0.101961"/>
<path d="M11.5895 12.9336C11.8878 12.8805 11.8456 13.1732 11.7756 13.2865C11.6958 13.4153 11.5659 13.4598 11.4678 13.4566" stroke="#CE9811" stroke-width="0.7056" stroke-miterlimit="22.9256"/>
<path d="M11.3707 12.9008C11.6691 12.8477 11.6269 13.1404 11.5568 13.2536C11.4771 13.3825 11.3471 13.427 11.249 13.4237" stroke="#CE9811" stroke-width="0.7056" stroke-miterlimit="22.9256"/>
<path d="M11.1525 12.868C11.4508 12.8148 11.4086 13.1075 11.3386 13.2208C11.2588 13.3497 11.1289 13.3941 11.0308 13.3909" stroke="#CE9811" stroke-width="0.7056" stroke-miterlimit="22.9256"/>
<path d="M12.6852 13.2281C12.9835 13.175 12.9413 13.4677 12.8713 13.5809C12.7915 13.7098 12.6616 13.7543 12.5635 13.751" stroke="#CE9811" stroke-width="0.7056" stroke-miterlimit="22.9256"/>
<path d="M12.4664 13.1953C12.7648 13.1422 12.7226 13.4349 12.6525 13.5481C12.5728 13.677 12.4428 13.7215 12.3447 13.7182" stroke="#CE9811" stroke-width="0.7056" stroke-miterlimit="22.9256"/>
<path d="M12.2481 13.1625C12.5465 13.1094 12.5043 13.402 12.4342 13.5153C12.3545 13.6442 12.2246 13.6887 12.1265 13.6854" stroke="#CE9811" stroke-width="0.7056" stroke-miterlimit="22.9256"/>
<path d="M12.5552 9.87005L10.8548 3.83234C10.8548 3.83234 8.84373 4.97868 9.40145 6.95895C9.96023 8.94306 12.5552 9.87005 12.5552 9.87005Z" fill="#F7DE61"/>
<path d="M10.6343 3.97937C10.64 3.97464 10.6459 3.97062 10.6518 3.9666C11.0171 5.16619 11.3779 6.45864 11.6788 7.65211C11.314 6.47897 10.9482 5.1911 10.6343 3.97937Z" fill="black" fill-opacity="0.101961"/>
<path d="M10.3594 4.19844C10.3668 4.19166 10.3738 4.18577 10.3807 4.1799C10.7327 5.34336 11.0784 6.58758 11.3698 7.7391C11.0178 6.60859 10.6648 5.37186 10.3594 4.19844Z" fill="black" fill-opacity="0.101961"/>
<path d="M10.0933 4.45422C10.1023 4.44461 10.1108 4.43596 10.1191 4.42658C10.4549 5.54369 10.782 6.72742 11.0602 7.82632C10.7256 6.74955 10.3889 5.57636 10.0933 4.45422Z" fill="black" fill-opacity="0.101961"/>
<path d="M8.18985 12.3797L4.21788 14.2557L4.67293 13.2624L3.31787 12.377L7.90607 11.1483L8.18985 12.3797Z" fill="#F7DE61"/>
<path d="M7.90619 11.1482L7.48535 11.2607L7.9669 12.4829L8.18989 12.38L7.90619 11.1482Z" fill="black" fill-opacity="0.101961"/>
<path d="M8.1492 12.2038C7.26603 12.6186 6.36691 12.9993 5.4541 13.3441C6.33717 12.929 7.23652 12.5488 8.1492 12.2038Z" fill="black" fill-opacity="0.101961"/>
<path d="M7.94473 11.3164C6.98582 11.6431 6.01486 11.9341 5.03418 12.1878C5.99298 11.8609 6.9641 11.5705 7.94473 11.3164Z" fill="black" fill-opacity="0.101961"/>
<path d="M8.04848 11.7677C7.11403 12.1367 6.16577 12.4707 5.20605 12.768C6.14043 12.3987 7.08886 12.0652 8.04848 11.7677Z" fill="black" fill-opacity="0.101961"/>
<path d="M7.99528 11.5363C7.04128 11.8929 6.07414 12.2142 5.09619 12.4986C6.05009 12.1417 7.01741 11.8209 7.99528 11.5363Z" fill="black" fill-opacity="0.101961"/>
<path d="M8.09945 11.9876C7.17699 12.3875 6.2396 12.7528 5.28955 13.0818C6.21189 12.6817 7.1495 12.3168 8.09945 11.9876Z" fill="black" fill-opacity="0.101961"/>
<path d="M14.372 10.5122C14.372 10.5122 15.2413 9.57705 14.4588 8.51829C13.6762 7.45957 12.3056 7.97106 12.3056 7.97106C12.3056 7.97106 9.39679 7.47034 8.16672 9.42768C7.09714 11.1297 7.96007 12.6754 9.374 13.3947C10.7734 14.1067 12.1084 14.129 13.0527 12.8806C13.9971 11.6322 14.372 10.5122 14.372 10.5122Z" fill="#F7DE61"/>
<path d="M13.4112 12.3741C12.8696 12.6826 12.1671 12.7293 11.6118 12.4781C10.6045 12.0223 9.78409 10.9015 10.4941 9.63217C11.1926 8.38393 12.3044 7.97149 12.3044 7.97149L12.3047 7.97083C12.3047 7.97083 12.3057 7.97048 12.3078 7.96982C12.3094 7.96984 12.3118 7.96853 12.3149 7.96752L12.327 7.96357C12.3317 7.96259 12.3372 7.96026 12.3432 7.95829C12.3493 7.95632 12.3564 7.95399 12.3635 7.95169C12.635 7.86834 13.7721 7.59056 14.4584 8.5179C14.5505 8.64254 14.6191 8.76531 14.6698 8.88498C14.6867 8.92485 14.7013 8.96438 14.7141 9.00388C14.7333 9.06265 14.748 9.12005 14.7594 9.17738C14.7666 9.21485 14.772 9.2523 14.7768 9.28937C14.784 9.36321 14.7863 9.43536 14.7837 9.50508C14.7822 9.53977 14.7792 9.57378 14.776 9.60678C14.7735 9.62327 14.7714 9.6408 14.7689 9.65728C14.7339 9.88884 14.6486 10.0864 14.566 10.2337C14.5162 10.3217 14.4679 10.3917 14.4312 10.439C14.4308 10.4397 14.4308 10.4397 14.4305 10.4403C14.4203 10.4537 14.4111 10.4651 14.4036 10.4749C14.3904 10.4909 14.3809 10.5013 14.3761 10.5073C14.3747 10.5084 14.3741 10.5097 14.3737 10.5104C14.3717 10.511 14.3714 10.5117 14.3714 10.5117C14.3714 10.5117 14.371 10.5124 14.3714 10.5134C14.3714 10.5134 14.3714 10.5134 14.3717 10.5144C14.3535 10.5651 14.0715 11.3769 13.4112 12.3741Z" fill="white" fill-opacity="0.2"/>
<path d="M12.0486 9.1847C11.7787 9.71521 11.9898 10.3636 12.5203 10.6336C12.7741 10.7627 13.1049 10.7706 13.3616 10.7097C13.6245 10.6472 14.3717 10.512 14.3717 10.512C14.3717 10.512 14.8195 10.0306 14.7827 9.3669L13.4974 8.71302C12.9669 8.4431 12.3181 8.65488 12.0486 9.1847Z" fill="white" fill-opacity="0.501961"/>
<path d="M13.306 9.45908C13.2245 9.61927 13.2883 9.8152 13.4485 9.89668C13.6087 9.97821 13.8046 9.91441 13.8861 9.75421C13.9676 9.59399 13.9038 9.39806 13.7436 9.31656C13.5834 9.23506 13.3875 9.29888 13.306 9.45908Z" fill="#CE9811"/>
<path d="M14.1201 9.95582L14.712 9.89847L15.3539 10.5835L14.1201 9.95582Z" fill="#CE9811"/>
<path d="M14.1201 9.95583L14.8842 10.3445L14.522 10.3079L14.1201 9.95583Z" fill="#CE9811"/>
<path d="M11.471 9.03246L7.36775 4.28811C7.36775 4.28811 6.03371 6.17992 7.37954 7.73602C8.72794 9.29509 11.471 9.03246 11.471 9.03246Z" fill="#F7DE61"/>
<path d="M11.471 9.03246L7.36775 4.28811C7.36775 4.28811 6.03371 6.17992 7.37954 7.73602C8.72794 9.29509 11.471 9.03246 11.471 9.03246Z" fill="#F7DE61" fill-opacity="0.101961"/>
<path d="M7.23145 4.5149C7.23461 4.5082 7.23827 4.50205 7.24191 4.49588C8.08197 5.42689 8.9575 6.44378 9.73668 7.39654C8.90824 6.48935 8.03018 5.47871 7.23145 4.5149Z" fill="black" fill-opacity="0.101961"/>
<path d="M7.0752 4.82997C7.07906 4.82061 7.08286 4.81234 7.08665 4.8041C7.89932 5.708 8.74063 6.68769 9.49344 7.60649C8.69469 6.73243 7.84996 5.76262 7.0752 4.82997Z" fill="black" fill-opacity="0.101961"/>
<path d="M6.94287 5.17451C6.94697 5.16199 6.95099 5.15054 6.95455 5.13853C7.73288 6.00733 8.53166 6.94016 9.25013 7.81696C8.49001 6.98414 7.68706 6.06491 6.94287 5.17451Z" fill="black" fill-opacity="0.101961"/>
<path d="M11.3719 12.907C11.6721 12.8536 11.6296 13.148 11.5591 13.262C11.4789 13.3916 11.3482 13.4363 11.2495 13.4331" stroke="#CE9811" stroke-width="0.7056" stroke-miterlimit="22.9256"/>
<path d="M11.1517 12.874C11.4519 12.8206 11.4094 13.115 11.3389 13.2289C11.2587 13.3586 11.128 13.4033 11.0293 13.4" stroke="#CE9811" stroke-width="0.7056" stroke-miterlimit="22.9256"/>
<path d="M10.9325 12.841C11.2326 12.7876 11.1902 13.0819 11.1197 13.1959C11.0395 13.3255 10.9088 13.3703 10.8101 13.367" stroke="#CE9811" stroke-width="0.7056" stroke-miterlimit="22.9256"/>
<path d="M12.4749 13.2033C12.7751 13.1499 12.7326 13.4443 12.6621 13.5582C12.5819 13.6879 12.4512 13.7326 12.3525 13.7293" stroke="#CE9811" stroke-width="0.7056" stroke-miterlimit="22.9256"/>
<path d="M12.2547 13.1702C12.5549 13.1168 12.5124 13.4112 12.4419 13.5252C12.3617 13.6548 12.231 13.6995 12.1323 13.6963" stroke="#CE9811" stroke-width="0.7056" stroke-miterlimit="22.9256"/>
<path d="M12.0355 13.1372C12.3356 13.0838 12.2932 13.3782 12.2227 13.4922C12.1425 13.6218 12.0118 13.6665 11.9131 13.6633" stroke="#CE9811" stroke-width="0.7056" stroke-miterlimit="22.9256"/>
</svg>
