<svg width="79" height="65" viewBox="0 0 79 65" fill="none" xmlns="http://www.w3.org/2000/svg">
<path d="M26 55.5L39 37.5L50 63L57 17.5L66 37.5L78 10" stroke="#F44C5C"/>
<path d="M42.4619 27.8039L34.6447 0C34.6447 0 25.3991 5.2789 27.963 14.3982C30.5319 23.5351 42.4619 27.8039 42.4619 27.8039Z" fill="#009846"/>
<path d="M33.6304 0.677064C33.6567 0.655231 33.6838 0.636743 33.7111 0.618256C35.3902 6.14242 37.0491 12.0942 38.4324 17.5901C36.7552 12.1878 35.0734 6.2571 33.6304 0.677064Z" fill="black" fill-opacity="0.101961"/>
<path d="M32.3667 1.68588C32.401 1.65464 32.433 1.62747 32.465 1.60053C34.083 6.95822 35.6723 12.688 37.0121 17.9908C35.3936 12.7847 33.7708 7.08944 32.3667 1.68588Z" fill="black" fill-opacity="0.101961"/>
<path d="M31.1436 2.86373C31.1851 2.81948 31.2242 2.77966 31.2625 2.73649C32.806 7.88077 34.3099 13.3319 35.5888 18.3924C34.0506 13.4339 32.5028 8.03125 31.1436 2.86373Z" fill="black" fill-opacity="0.101961"/>
<path d="M22.398 39.3612L4.13766 48.0002L6.2296 43.4258L0 39.3487L21.0933 33.6905L22.398 39.3612Z" fill="#009846"/>
<path d="M21.0934 33.6899L19.1587 34.2079L21.3726 39.8363L22.3977 39.3623L21.0934 33.6899Z" fill="black" fill-opacity="0.101961"/>
<path d="M22.2114 38.5511C18.1512 40.4614 14.0177 42.2147 9.82129 43.8022C13.881 41.8908 18.0155 40.1399 22.2114 38.5511Z" fill="black" fill-opacity="0.101961"/>
<path d="M21.2718 34.4645C16.8635 35.9688 12.3996 37.3089 7.89111 38.4776C12.299 36.972 16.7636 35.6345 21.2718 34.4645Z" fill="black" fill-opacity="0.101961"/>
<path d="M21.7495 36.5428C17.4536 38.2422 13.0942 39.7803 8.68213 41.1492C12.9777 39.4486 17.338 37.913 21.7495 36.5428Z" fill="black" fill-opacity="0.101961"/>
<path d="M21.5048 35.4771C17.119 37.1193 12.6727 38.5991 8.17676 39.9088C12.5621 38.2654 17.0092 36.7881 21.5048 35.4771Z" fill="black" fill-opacity="0.101961"/>
<path d="M21.9825 37.5555C17.7416 39.3971 13.4322 41.0794 9.06445 42.5946C13.3047 40.7518 17.6152 39.0718 21.9825 37.5555Z" fill="black" fill-opacity="0.101961"/>
<path d="M50.8165 30.7609C50.8165 30.7609 54.8129 26.4546 51.2153 21.579C47.6176 16.7035 41.3166 19.0589 41.3166 19.0589C41.3166 19.0589 27.9437 16.753 22.2888 25.7667C17.3715 33.6045 21.3388 40.7226 27.839 44.0352C34.2726 47.3139 40.4099 47.4163 44.7512 41.6676C49.0926 35.9187 50.8165 30.7609 50.8165 30.7609Z" fill="#009846"/>
<path d="M46.4011 39.3351C43.9112 40.7561 40.6815 40.9708 38.1289 39.8141C33.4979 37.7149 29.7263 32.554 32.9906 26.7085C36.2016 20.9603 41.3128 19.061 41.3128 19.061L41.3144 19.058C41.3144 19.058 41.3191 19.0564 41.3283 19.0534C41.3361 19.0534 41.347 19.0473 41.361 19.0427L41.4169 19.0245C41.4386 19.02 41.4634 19.0093 41.4914 19.0002C41.5193 18.9911 41.5519 18.9805 41.5845 18.9699C42.8327 18.586 48.0603 17.3068 51.2155 21.5773C51.6391 22.1513 51.9542 22.7167 52.1873 23.2676C52.2651 23.4513 52.3319 23.6333 52.3911 23.8152C52.4791 24.0858 52.547 24.3502 52.5993 24.6142C52.6322 24.7868 52.6573 24.9592 52.6793 25.13C52.7126 25.47 52.7227 25.8022 52.7111 26.1233C52.7039 26.283 52.6904 26.4397 52.6754 26.5917C52.664 26.6676 52.6542 26.7482 52.6428 26.8241C52.482 27.8906 52.0899 28.8002 51.7103 29.4787C51.4813 29.8837 51.2591 30.2064 51.0903 30.424C51.0887 30.4271 51.0887 30.4271 51.0872 30.4302C51.0402 30.4919 50.9981 30.5444 50.9637 30.5892C50.9028 30.6632 50.8591 30.711 50.8372 30.7388C50.8309 30.7434 50.8277 30.7496 50.8262 30.7527C50.8169 30.7557 50.8154 30.7588 50.8154 30.7588C50.8154 30.7588 50.8137 30.7619 50.8153 30.7666C50.8153 30.7666 50.8153 30.7666 50.8169 30.7712C50.7331 31.0049 49.4368 34.7432 46.4011 39.3351Z" fill="white" fill-opacity="0.2"/>
<path d="M40.1365 24.6479C38.8958 27.0909 39.8663 30.0769 42.3052 31.3198C43.4721 31.9145 44.9928 31.951 46.1729 31.6703C47.3816 31.3829 50.8166 30.7602 50.8166 30.7602C50.8166 30.7602 52.8752 28.5432 52.706 25.4869L46.7972 22.4757C44.3583 21.2327 41.3758 22.208 40.1365 24.6479Z" fill="white" fill-opacity="0.501961"/>
<path d="M45.9149 25.9113C45.5403 26.649 45.8335 27.5513 46.57 27.9265C47.3066 28.302 48.2073 28.0082 48.582 27.2704C48.9568 26.5326 48.6634 25.6304 47.9269 25.2551C47.1904 24.8797 46.2897 25.1736 45.9149 25.9113Z" fill="#263138"/>
<path d="M49.6631 28.1987L52.3844 27.9346L55.3351 31.0892L49.6631 28.1987Z" fill="#263138"/>
<path d="M49.6631 28.1987L53.1758 29.9889L51.5105 29.8198L49.6631 28.1987Z" fill="#36464F"/>
<path d="M37.4789 23.9469L18.6151 2.09887C18.6151 2.09887 12.4821 10.8108 18.6692 17.9766C24.8682 25.1563 37.4789 23.9469 37.4789 23.9469Z" fill="#009846"/>
<path d="M37.4789 23.9469L18.6151 2.09887C18.6151 2.09887 12.4821 10.8108 18.6692 17.9766C24.8682 25.1563 37.4789 23.9469 37.4789 23.9469Z" fill="black" fill-opacity="0.101961"/>
<path d="M17.9839 3.1432C17.9984 3.11242 18.0152 3.08407 18.032 3.05573C21.894 7.34302 25.919 12.0258 29.5011 16.4134C25.6925 12.2357 21.6558 7.5816 17.9839 3.1432Z" fill="black" fill-opacity="0.101961"/>
<path d="M17.2676 4.59426C17.2854 4.55118 17.3028 4.51312 17.3203 4.47506C21.0563 8.63759 24.9242 13.1491 28.3851 17.3803C24.7129 13.3551 20.8294 8.88919 17.2676 4.59426Z" fill="black" fill-opacity="0.101961"/>
<path d="M16.6592 6.18092C16.678 6.12319 16.6966 6.07049 16.7129 6.01511C20.2911 10.016 23.9634 14.3118 27.2664 18.3494C23.772 14.5143 20.0804 10.2812 16.6592 6.18092Z" fill="black" fill-opacity="0.101961"/>
<path d="M37.0257 41.7895C38.4055 41.5434 38.2104 42.8991 37.8863 43.4239C37.5175 44.0209 36.9166 44.2269 36.4629 44.2118" stroke="#263138" stroke-width="0.7056" stroke-miterlimit="10"/>
<path d="M36.0164 41.6373C37.3962 41.3914 37.201 42.747 36.8769 43.2717C36.5082 43.8688 35.9073 44.0748 35.4536 44.0597" stroke="#263138" stroke-width="0.7056" stroke-miterlimit="10"/>
<path d="M35.0067 41.4853C36.3865 41.2393 36.1913 42.5948 35.8672 43.1196C35.4985 43.7166 34.8977 43.9227 34.4438 43.9076" stroke="#263138" stroke-width="0.7056" stroke-miterlimit="10"/>
<path d="M42.0935 43.1537C43.4733 42.9076 43.2783 44.2632 42.9542 44.7879C42.5855 45.385 41.9846 45.5911 41.5308 45.5759" stroke="#263138" stroke-width="0.7056" stroke-miterlimit="10"/>
<path d="M41.0838 43.0015C42.4636 42.7555 42.2685 44.1112 41.9444 44.6359C41.5756 45.233 40.9747 45.4389 40.521 45.4239" stroke="#263138" stroke-width="0.7056" stroke-miterlimit="10"/>
<path d="M40.0745 42.8494C41.4543 42.6035 41.2591 43.959 40.935 44.4838C40.5663 45.0808 39.9654 45.2869 39.5117 45.2718" stroke="#263138" stroke-width="0.7056" stroke-miterlimit="10"/>
</svg>
